<svg width="177" height="177" viewBox="0 0 177 177" fill="none" xmlns="http://www.w3.org/2000/svg">
<rect width="177" height="177" rx="29.5614" fill="white" fill-opacity="0.03"/>
<g clip-path="url(#clip0_1_1073)">
<path d="M72.5731 129C83.3427 129 92.0731 120.27 92.0731 109.5C92.0731 98.7304 83.3427 90 72.5731 90C61.8036 90 53.0731 98.7304 53.0731 109.5C53.0731 120.27 61.8036 129 72.5731 129Z" fill="#FDD835"/>
<path opacity="0.5" d="M72.5731 90C61.8039 90 53.0731 98.7308 53.0731 109.5C53.0731 120.269 61.8039 129 72.5731 129C83.3423 129 92.0731 120.269 92.0731 109.5C92.0731 98.7308 83.3423 90 72.5731 90ZM72.5731 128.162C62.2663 128.162 53.911 119.807 53.911 109.5C53.911 99.1932 62.2663 90.8379 72.5731 90.8379C82.8799 90.8379 91.2352 99.1932 91.2352 109.5C91.2352 119.807 82.8799 128.162 72.5731 128.162Z" fill="white"/>
<path opacity="0.5" d="M80.3533 91.614L54.6872 117.28C53.81 115.265 53.2817 113.116 53.1249 110.924L73.9976 90.0518C76.2423 90.2132 78.3835 90.7563 80.3533 91.614ZM89.5663 99.929L63.0021 126.493C61.3555 125.563 59.8522 124.4 58.5392 123.039L86.1119 95.4661C87.4678 96.7747 88.6347 98.2768 89.5663 99.929ZM85.3152 94.7394L57.8118 122.242C57.3809 121.744 56.9759 121.224 56.5984 120.684L83.7575 93.5252C84.2968 93.903 84.817 94.3082 85.3152 94.7394ZM91.4615 104.634L67.7073 128.388C66.9897 128.204 66.289 127.98 65.6049 127.719L90.7912 102.533C91.0524 103.216 91.2771 103.917 91.4607 104.635L91.4615 104.634Z" fill="white"/>
<path opacity="0.5" d="M88.4146 110.344C88.4146 118.782 81.5736 125.623 73.136 125.623C68.3958 125.623 64.1584 123.464 61.3575 120.075C64.1477 123.091 68.1406 124.98 72.5731 124.98C81.0106 124.98 87.8516 118.139 87.8516 109.701C87.8516 106.005 86.5384 102.613 84.3523 99.9702C86.8744 102.696 88.4146 106.34 88.4146 110.344Z" fill="white"/>
<path d="M72.5731 124.98C81.0112 124.98 87.8517 118.139 87.8517 109.701C87.8517 101.263 81.0112 94.4226 72.5731 94.4226C64.135 94.4226 57.2946 101.263 57.2946 109.701C57.2946 118.139 64.135 124.98 72.5731 124.98Z" fill="#F39E09"/>
<path d="M84.1512 99.7318C81.4753 97.4253 77.9912 96.0314 74.1819 96.0314C65.7443 96.0314 58.9033 102.872 58.9033 111.31C58.9033 115.119 60.298 118.603 62.6037 121.279C59.3527 118.477 57.2946 114.329 57.2946 109.701C57.2946 101.264 64.1356 94.4226 72.5731 94.4226C77.2006 94.4226 81.3489 96.48 84.1512 99.7318Z" fill="#E88102"/>
<path opacity="0.25" d="M85.3152 101.269C75.4212 104.742 67.481 112.371 63.5894 122.06C63.2489 121.812 62.9191 121.55 62.6015 121.275C60.2965 118.6 58.9033 115.117 58.9033 111.309C58.9033 102.872 65.7443 96.0305 74.1819 96.0305C77.9897 96.0305 81.473 97.4237 84.1482 99.7287C84.5687 100.216 84.9587 100.73 85.3159 101.269H85.3152Z" fill="white"/>
<g opacity="0.964">
<path fill-rule="evenodd" clip-rule="evenodd" d="M72.4989 102.204C72.6366 102.281 72.755 102.386 72.8539 102.516C74.2004 104.249 75.5651 105.97 76.948 107.677C76.3949 107.729 75.8427 107.788 75.2914 107.856C74.8643 107.943 74.4384 108.017 74.0135 108.079C73.5367 107.316 73.0398 106.564 72.5226 105.823C71.8778 106.646 71.2389 107.472 70.6057 108.303C71.2515 108.357 71.8984 108.409 72.5462 108.459C69.7425 109.242 67.2891 110.583 65.1863 112.481C65.1714 112.418 65.1871 112.358 65.2336 112.302C67.6659 108.941 70.0876 105.575 72.4989 102.204Z" fill="#DB6704"/>
<path fill-rule="evenodd" clip-rule="evenodd" d="M76.9836 107.766C77.8368 107.753 78.3123 107.324 79.1631 107.383C79.8397 107.43 80.5023 107.534 81.151 107.696C77.0248 107.723 73.804 109.47 70.7359 112.034C72.9446 111.527 75.1534 111.527 77.3622 112.034C76.9296 111.469 76.4878 110.91 76.037 110.358C75.5146 110.331 74.994 110.361 74.475 110.447C74.4435 110.432 74.4119 110.418 74.3804 110.403C75.4558 109.612 76.308 109.165 77.6622 108.958C79.8158 111.825 81.7161 114.664 83.8697 117.531C83.9162 117.588 83.9319 117.647 83.917 117.71C78.6022 113.945 73.3726 112.946 66.9967 114.759C64.9341 115.45 63.0408 116.418 61.317 117.664C61.2776 117.694 61.2461 117.687 61.2224 117.641C63.9589 113.385 67.7927 110.369 72.7238 108.593C74.1111 108.139 75.531 107.864 76.9836 107.766Z" fill="#DB6704"/>
</g>
<g opacity="0.964">
<path fill-rule="evenodd" clip-rule="evenodd" d="M72.4016 101.226C72.5344 101.305 72.6485 101.412 72.7438 101.545C74.0419 103.315 75.3574 105.071 76.6905 106.815C76.1573 106.868 75.625 106.929 75.0936 106.998C74.6819 107.086 74.2712 107.162 73.8617 107.226C73.4021 106.446 72.923 105.678 72.4244 104.922C71.8029 105.762 71.187 106.606 70.5766 107.454C71.1991 107.509 71.8227 107.563 72.4473 107.614C69.7445 108.413 67.3794 109.782 65.3523 111.72C65.3379 111.656 65.3531 111.595 65.3979 111.537C67.7426 108.106 70.0772 104.668 72.4016 101.226Z" fill="#FDD835"/>
<path fill-rule="evenodd" clip-rule="evenodd" d="M76.4168 107.249C77.2392 107.234 78.0605 107.257 78.8806 107.317C79.5329 107.365 80.1716 107.471 80.7969 107.636C76.8193 107.665 73.3517 108.988 70.3941 111.606C72.5232 111.089 74.6525 111.089 76.7818 111.606C76.3647 111.029 75.9389 110.459 75.5042 109.895C75.0007 109.868 74.4988 109.898 73.9986 109.986C73.9681 109.971 73.9377 109.956 73.9073 109.941C74.944 109.133 76.1151 108.624 77.4206 108.412C79.4966 111.34 81.5726 114.267 83.6486 117.195C83.6934 117.253 83.7086 117.313 83.6942 117.378C78.5708 113.533 72.9359 112.537 66.7895 114.389C64.8012 115.094 62.9761 116.083 61.3143 117.355C61.2764 117.386 61.246 117.379 61.2231 117.332C63.861 112.986 67.5568 109.906 72.3104 108.093C73.6477 107.629 75.0165 107.348 76.4168 107.249Z" fill="#FDD835"/>
</g>
<mask id="mask0_1_1073" style="mask-type:alpha" maskUnits="userSpaceOnUse" x="61" y="101" width="23" height="17">
<g opacity="0.964">
<path fill-rule="evenodd" clip-rule="evenodd" d="M72.4016 101.226C72.5343 101.305 72.6484 101.412 72.7438 101.545C74.0418 103.315 75.3574 105.071 76.6905 106.815C76.1572 106.868 75.625 106.929 75.0935 106.998C74.6818 107.086 74.2712 107.162 73.8616 107.226C73.402 106.446 72.9229 105.678 72.4244 104.922C71.8029 105.762 71.1869 106.606 70.5765 107.454C71.1991 107.509 71.8227 107.563 72.4472 107.614C69.7444 108.413 67.3794 109.782 65.3522 111.72C65.3379 111.656 65.3531 111.595 65.3979 111.537C67.7425 108.106 70.0771 104.668 72.4016 101.226Z" fill="#FDD835"/>
<path fill-rule="evenodd" clip-rule="evenodd" d="M76.4167 107.249C77.2392 107.234 78.0605 107.257 78.8806 107.317C79.5328 107.365 80.1716 107.471 80.7969 107.636C76.8192 107.665 73.3516 108.988 70.394 111.606C72.5232 111.089 74.6524 111.089 76.7817 111.606C76.3647 111.029 75.9388 110.459 75.5042 109.895C75.0006 109.868 74.4988 109.898 73.9985 109.986C73.9681 109.971 73.9377 109.956 73.9072 109.941C74.944 109.133 76.115 108.624 77.4205 108.412C79.4965 111.34 81.5725 114.267 83.6485 117.195C83.6934 117.253 83.7085 117.313 83.6942 117.378C78.5707 113.533 72.9358 112.537 66.7895 114.389C64.8011 115.094 62.976 116.083 61.3143 117.355C61.2763 117.386 61.2459 117.379 61.223 117.332C63.861 112.986 67.5567 109.906 72.3103 108.093C73.6476 107.629 75.0164 107.348 76.4167 107.249Z" fill="#FDD835"/>
</g>
</mask>
<g mask="url(#mask0_1_1073)">
<path d="M67.2163 108.075L75.1825 100.109V102.231L64.3499 113.063V109.192L67.2163 108.075Z" fill="white" fill-opacity="0.5"/>
<path d="M75.1825 103.72L60.553 118.349H61.8186L75.4803 104.688L75.1825 103.72Z" fill="white" fill-opacity="0.5"/>
<path d="M78.0116 106.289L70.1199 114.18H70.8271L78.0116 106.996V106.289Z" fill="white" fill-opacity="0.5"/>
<path d="M80.1707 106.14L71.6461 114.664H74.2518L81.3246 107.591L80.1707 106.14Z" fill="white" fill-opacity="0.5"/>
<path d="M82.0319 112.207L77.6766 116.563H79.8729L82.9998 113.436L82.0319 112.207Z" fill="white" fill-opacity="0.5"/>
</g>
</g>
<path d="M113.545 105.533C117.991 105.533 121.018 108.891 121.018 114.946V118.304C121.018 125.115 117.897 128.52 112.836 128.52C107.822 128.52 104.7 125.209 104.511 119.581H109.146C109.288 122.75 110.518 124.074 112.836 124.074C115.106 124.074 116.383 122.655 116.383 118.351V114.898C116.383 111.304 115.295 109.885 112.93 109.885C110.991 109.885 109.761 110.925 109.288 113.054H104.795V94.8912H119.978V99.0061H109.383V106.858C110.471 106.054 111.89 105.533 113.545 105.533Z" fill="white"/>
<path d="M0 29.5614C0 13.2351 13.2351 0 29.5614 0H119V39.4386C119 55.7649 105.765 69 89.4386 69H0V29.5614Z" fill="white"/>
<path d="M30.03 26.8H31.902V44.922H29.38V30.206L26.65 32.13V29.27L30.03 26.8ZM51.6547 42.53H53.2667V48.042H50.6927V45H42.0347V48.042H39.4607V42.53H40.5267C41.8527 41.178 42.4767 38.448 42.5807 35.588L42.8927 26.8H51.6547V42.53ZM49.0547 42.53V29.27H45.3627L45.1027 36.316C44.9987 38.89 44.5307 40.996 43.6727 42.53H49.0547ZM58.198 42.53H64.75V45H55.572V26.8H64.49V29.27H58.198V34.548H63.996V36.966H58.198V42.53ZM75.3303 26.8H77.9563V45H75.3303V37.018H70.1823V45H67.5563V26.8H70.1823V34.548H75.3303V26.8ZM81.5973 45V26.8H84.2233V34.054H86.4593C89.9953 34.054 91.9193 36.238 91.9193 39.54C91.9193 43.128 89.9953 45 86.4593 45H81.5973ZM84.2233 42.582H86.3293C88.1233 42.582 89.2153 41.594 89.2153 39.54C89.2153 37.538 88.1233 36.55 86.3293 36.55H84.2233V42.582Z" fill="#111111"/>
<defs>
<clipPath id="clip0_1_1073">
<rect width="39" height="39" fill="white" transform="translate(53.0731 90)"/>
</clipPath>
</defs>
</svg>
