<svg width="177" height="177" viewBox="0 0 177 177" fill="none" xmlns="http://www.w3.org/2000/svg">
<rect width="177" height="177" rx="29.5614" fill="white" fill-opacity="0.03"/>
<g clip-path="url(#clip0_1_1080)">
<path d="M64.5731 129C75.3427 129 84.0731 120.27 84.0731 109.5C84.0731 98.7304 75.3427 90 64.5731 90C53.8036 90 45.0731 98.7304 45.0731 109.5C45.0731 120.27 53.8036 129 64.5731 129Z" fill="#FDD835"/>
<path opacity="0.5" d="M64.5731 90C53.8039 90 45.0731 98.7308 45.0731 109.5C45.0731 120.269 53.8039 129 64.5731 129C75.3423 129 84.0731 120.269 84.0731 109.5C84.0731 98.7308 75.3423 90 64.5731 90ZM64.5731 128.162C54.2663 128.162 45.911 119.807 45.911 109.5C45.911 99.1932 54.2663 90.8379 64.5731 90.8379C74.8799 90.8379 83.2352 99.1932 83.2352 109.5C83.2352 119.807 74.8799 128.162 64.5731 128.162Z" fill="white"/>
<path opacity="0.5" d="M72.3533 91.614L46.6872 117.28C45.81 115.265 45.2817 113.116 45.1249 110.924L65.9976 90.0518C68.2423 90.2132 70.3835 90.7563 72.3533 91.614ZM81.5663 99.929L55.0021 126.493C53.3555 125.563 51.8522 124.4 50.5392 123.039L78.1119 95.4661C79.4678 96.7747 80.6347 98.2768 81.5663 99.929ZM77.3152 94.7394L49.8118 122.242C49.3809 121.744 48.9759 121.224 48.5984 120.684L75.7575 93.5252C76.2968 93.903 76.817 94.3082 77.3152 94.7394ZM83.4615 104.634L59.7073 128.388C58.9897 128.204 58.289 127.98 57.6049 127.719L82.7912 102.533C83.0524 103.216 83.2771 103.917 83.4607 104.635L83.4615 104.634Z" fill="white"/>
<path opacity="0.5" d="M80.4146 110.344C80.4146 118.782 73.5736 125.623 65.136 125.623C60.3958 125.623 56.1584 123.464 53.3575 120.075C56.1477 123.091 60.1406 124.98 64.5731 124.98C73.0106 124.98 79.8516 118.139 79.8516 109.701C79.8516 106.005 78.5384 102.613 76.3523 99.9702C78.8744 102.696 80.4146 106.34 80.4146 110.344Z" fill="white"/>
<path d="M64.5731 124.98C73.0112 124.98 79.8517 118.139 79.8517 109.701C79.8517 101.263 73.0112 94.4226 64.5731 94.4226C56.135 94.4226 49.2946 101.263 49.2946 109.701C49.2946 118.139 56.135 124.98 64.5731 124.98Z" fill="#F39E09"/>
<path d="M76.1512 99.7318C73.4753 97.4253 69.9912 96.0314 66.1819 96.0314C57.7443 96.0314 50.9033 102.872 50.9033 111.31C50.9033 115.119 52.298 118.603 54.6037 121.279C51.3527 118.477 49.2946 114.329 49.2946 109.701C49.2946 101.264 56.1356 94.4226 64.5731 94.4226C69.2006 94.4226 73.3489 96.48 76.1512 99.7318Z" fill="#E88102"/>
<path opacity="0.25" d="M77.3152 101.269C67.4212 104.742 59.481 112.371 55.5894 122.06C55.2489 121.812 54.9191 121.55 54.6015 121.275C52.2965 118.6 50.9033 115.117 50.9033 111.309C50.9033 102.872 57.7443 96.0305 66.1819 96.0305C69.9897 96.0305 73.473 97.4237 76.1482 99.7287C76.5687 100.216 76.9587 100.73 77.3159 101.269H77.3152Z" fill="white"/>
<g opacity="0.964">
<path fill-rule="evenodd" clip-rule="evenodd" d="M64.499 102.204C64.6367 102.281 64.755 102.386 64.854 102.516C66.2005 104.249 67.5652 105.97 68.9481 107.677C68.3949 107.729 67.8428 107.788 67.2915 107.856C66.8644 107.943 66.4384 108.017 66.0136 108.079C65.5368 107.316 65.0398 106.564 64.5226 105.823C63.8779 106.646 63.2389 107.472 62.6057 108.303C63.2516 108.357 63.8984 108.409 64.5463 108.459C61.7426 109.242 59.2892 110.583 57.1863 112.481C57.1714 112.418 57.1872 112.358 57.2337 112.302C59.6659 108.941 62.0877 105.575 64.499 102.204Z" fill="#DB6704"/>
<path fill-rule="evenodd" clip-rule="evenodd" d="M68.9836 107.766C69.8368 107.753 70.3124 107.324 71.1631 107.383C71.8397 107.43 72.5024 107.534 73.151 107.696C69.0248 107.723 65.804 109.47 62.7359 112.034C64.9446 111.527 67.1534 111.527 69.3623 112.034C68.9296 111.469 68.4879 110.91 68.037 110.358C67.5147 110.331 66.994 110.361 66.4751 110.447C66.4435 110.432 66.412 110.418 66.3804 110.403C67.4559 109.612 68.308 109.165 69.6623 108.958C71.8158 111.825 73.7162 114.664 75.8698 117.531C75.9162 117.588 75.932 117.647 75.9171 117.71C70.6022 113.945 65.3727 112.946 58.9968 114.759C56.9342 115.45 55.0409 116.418 53.3171 117.664C53.2777 117.694 53.2462 117.687 53.2224 117.641C55.9589 113.385 59.7927 110.369 64.7238 108.593C66.1111 108.139 67.5311 107.864 68.9836 107.766Z" fill="#DB6704"/>
</g>
<g opacity="0.964">
<path fill-rule="evenodd" clip-rule="evenodd" d="M64.4017 101.226C64.5345 101.305 64.6485 101.412 64.7439 101.545C66.0419 103.315 67.3575 105.071 68.6906 106.815C68.1574 106.868 67.6251 106.929 67.0937 106.998C66.6819 107.086 66.2713 107.162 65.8617 107.226C65.4021 106.446 64.9231 105.678 64.4245 104.922C63.803 105.762 63.187 106.606 62.5766 107.454C63.1992 107.509 63.8228 107.563 64.4473 107.614C61.7445 108.413 59.3795 109.782 57.3524 111.72C57.338 111.656 57.3532 111.595 57.398 111.537C59.7427 108.106 62.0772 104.668 64.4017 101.226Z" fill="#FDD835"/>
<path fill-rule="evenodd" clip-rule="evenodd" d="M68.4168 107.249C69.2393 107.234 70.0606 107.257 70.8807 107.317C71.5329 107.365 72.1717 107.471 72.797 107.636C68.8194 107.665 65.3517 108.988 62.3941 111.606C64.5233 111.089 66.6525 111.089 68.7819 111.606C68.3648 111.029 67.9389 110.459 67.5043 109.895C67.0008 109.868 66.4989 109.898 65.9986 109.986C65.9682 109.971 65.9378 109.956 65.9074 109.941C66.9441 109.133 68.1152 108.624 69.4206 108.412C71.4966 111.34 73.5727 114.267 75.6487 117.195C75.6935 117.253 75.7087 117.313 75.6943 117.378C70.5708 113.533 64.9359 112.537 58.7896 114.389C56.8012 115.094 54.9762 116.083 53.3144 117.355C53.2765 117.386 53.246 117.379 53.2231 117.332C55.8611 112.986 59.5569 109.906 64.3104 108.093C65.6478 107.629 67.0166 107.348 68.4168 107.249Z" fill="#FDD835"/>
</g>
<mask id="mask0_1_1080" style="mask-type:alpha" maskUnits="userSpaceOnUse" x="53" y="101" width="23" height="17">
<g opacity="0.964">
<path fill-rule="evenodd" clip-rule="evenodd" d="M64.4017 101.226C64.5345 101.305 64.6485 101.412 64.7439 101.545C66.0419 103.315 67.3575 105.071 68.6906 106.815C68.1574 106.868 67.6251 106.929 67.0937 106.998C66.6819 107.086 66.2713 107.162 65.8617 107.226C65.4021 106.446 64.9231 105.678 64.4245 104.922C63.803 105.762 63.187 106.606 62.5766 107.454C63.1992 107.509 63.8228 107.563 64.4473 107.614C61.7445 108.413 59.3795 109.782 57.3524 111.72C57.338 111.656 57.3532 111.595 57.398 111.537C59.7427 108.106 62.0772 104.668 64.4017 101.226Z" fill="#FDD835"/>
<path fill-rule="evenodd" clip-rule="evenodd" d="M68.4168 107.249C69.2393 107.234 70.0606 107.257 70.8807 107.317C71.5329 107.365 72.1717 107.471 72.797 107.636C68.8194 107.665 65.3517 108.988 62.3941 111.606C64.5233 111.089 66.6525 111.089 68.7819 111.606C68.3648 111.029 67.9389 110.459 67.5043 109.895C67.0008 109.868 66.4989 109.898 65.9986 109.986C65.9682 109.971 65.9378 109.956 65.9074 109.941C66.9441 109.133 68.1152 108.624 69.4206 108.412C71.4966 111.34 73.5727 114.267 75.6487 117.195C75.6935 117.253 75.7087 117.313 75.6943 117.378C70.5708 113.533 64.9359 112.537 58.7896 114.389C56.8012 115.094 54.9762 116.083 53.3144 117.355C53.2765 117.386 53.246 117.379 53.2231 117.332C55.8611 112.986 59.5569 109.906 64.3104 108.093C65.6478 107.629 67.0166 107.348 68.4168 107.249Z" fill="#FDD835"/>
</g>
</mask>
<g mask="url(#mask0_1_1080)">
<path d="M59.2164 108.075L67.1826 100.109V102.231L56.3501 113.063V109.192L59.2164 108.075Z" fill="white" fill-opacity="0.5"/>
<path d="M67.1826 103.72L52.5531 118.349H53.8188L67.4804 104.688L67.1826 103.72Z" fill="white" fill-opacity="0.5"/>
<path d="M70.0117 106.289L62.12 114.18H62.8273L70.0117 106.996V106.289Z" fill="white" fill-opacity="0.5"/>
<path d="M72.1708 106.14L63.6462 114.664H66.252L73.3248 107.591L72.1708 106.14Z" fill="white" fill-opacity="0.5"/>
<path d="M74.032 112.207L69.6767 116.563H71.873L74.9999 113.436L74.032 112.207Z" fill="white" fill-opacity="0.5"/>
</g>
</g>
<path d="M101.606 94.8912H105.011V127.858H100.423V101.087L95.4568 104.587V99.3845L101.606 94.8912ZM119.431 128.473C114.086 128.473 110.681 124.926 110.681 119.203V103.783C110.681 98.0129 114.086 94.4182 119.431 94.4182C124.87 94.4182 128.229 98.0129 128.229 103.783V119.203C128.229 124.926 124.87 128.473 119.431 128.473ZM119.431 124.169C122.222 124.169 123.783 122.372 123.783 119.203V103.783C123.783 100.52 122.222 98.7224 119.431 98.7224C116.688 98.7224 115.127 100.52 115.127 103.783V119.203C115.127 122.372 116.688 124.169 119.431 124.169Z" fill="white"/>
<path d="M0 29.5614C0 13.2351 13.2351 0 29.5614 0H122V39.4386C122 55.7649 108.765 69 92.4386 69H0V29.5614Z" fill="white"/>
<path d="M26.728 45V43.258C26.728 37.278 33.488 34.782 33.488 31.012C33.488 29.868 32.786 28.88 31.408 28.88C30.134 28.88 29.328 29.738 29.276 31.402H26.858C27.014 28.308 28.704 26.514 31.382 26.514C34.398 26.514 35.984 28.646 35.984 30.934C35.984 35.848 29.328 38.604 29.328 42.66H36.114V45H26.728ZM54.8793 42.53H56.4913V48.042H53.9173V45H45.2593V48.042H42.6853V42.53H43.7513C45.0773 41.178 45.7013 38.448 45.8053 35.588L46.1173 26.8H54.8793V42.53ZM52.2793 42.53V29.27H48.5873L48.3273 36.316C48.2233 38.89 47.7553 40.996 46.8973 42.53H52.2793ZM61.4226 42.53H67.9746V45H58.7966V26.8H67.7146V29.27H61.4226V34.548H67.2206V36.966H61.4226V42.53ZM78.5549 26.8H81.1809V45H78.5549V37.018H73.4069V45H70.7809V26.8H73.4069V34.548H78.5549V26.8ZM84.822 45V26.8H87.448V34.054H89.684C93.22 34.054 95.144 36.238 95.144 39.54C95.144 43.128 93.22 45 89.684 45H84.822ZM87.448 42.582H89.554C91.348 42.582 92.44 41.594 92.44 39.54C92.44 37.538 91.348 36.55 89.554 36.55H87.448V42.582Z" fill="#111111"/>
<defs>
<clipPath id="clip0_1_1080">
<rect width="39" height="39" fill="white" transform="translate(45.0731 90)"/>
</clipPath>
</defs>
</svg>
