<svg width="177" height="177" viewBox="0 0 177 177" fill="none" xmlns="http://www.w3.org/2000/svg">
<rect width="177" height="177" rx="29.5614" fill="white" fill-opacity="0.03"/>
<g clip-path="url(#clip0_1_1094)">
<path d="M66.1578 129C76.9274 129 85.6578 120.27 85.6578 109.5C85.6578 98.7304 76.9274 90 66.1578 90C55.3883 90 46.6578 98.7304 46.6578 109.5C46.6578 120.27 55.3883 129 66.1578 129Z" fill="#FDD835"/>
<path opacity="0.5" d="M66.1578 90C55.3887 90 46.6578 98.7308 46.6578 109.5C46.6578 120.269 55.3887 129 66.1578 129C76.927 129 85.6578 120.269 85.6578 109.5C85.6578 98.7308 76.927 90 66.1578 90ZM66.1578 128.162C55.851 128.162 47.4957 119.807 47.4957 109.5C47.4957 99.1932 55.851 90.8379 66.1578 90.8379C76.4647 90.8379 84.8199 99.1932 84.8199 109.5C84.8199 119.807 76.4647 128.162 66.1578 128.162Z" fill="white"/>
<path opacity="0.5" d="M73.9381 91.6142L48.2719 117.28C47.3948 115.266 46.8665 113.116 46.7097 110.924L67.5823 90.0519C69.8271 90.2134 71.9683 90.7565 73.9381 91.6142ZM83.151 99.9291L56.5869 126.493C54.9402 125.563 53.4369 124.4 52.124 123.039L79.6966 95.4662C81.0525 96.7748 82.2195 98.2769 83.151 99.9291ZM78.8999 94.7395L51.3965 122.242C50.9656 121.744 50.5606 121.224 50.1831 120.684L77.3422 93.5253C77.8815 93.9031 78.4017 94.3084 78.8999 94.7395ZM85.0462 104.634L61.292 128.388C60.5745 128.204 59.8737 127.98 59.1897 127.719L84.3759 102.533C84.6372 103.216 84.8619 103.917 85.0454 104.635L85.0462 104.634Z" fill="white"/>
<path opacity="0.5" d="M81.9993 110.344C81.9993 118.782 75.1583 125.623 66.7207 125.623C61.9805 125.623 57.7431 123.464 54.9423 120.075C57.7324 123.091 61.7254 124.98 66.1578 124.98C74.5954 124.98 81.4364 118.139 81.4364 109.701C81.4364 106.005 80.1232 102.613 77.937 99.9702C80.4591 102.696 81.9993 106.34 81.9993 110.344Z" fill="white"/>
<path d="M66.1578 124.98C74.5959 124.98 81.4364 118.139 81.4364 109.701C81.4364 101.263 74.5959 94.4226 66.1578 94.4226C57.7197 94.4226 50.8793 101.263 50.8793 109.701C50.8793 118.139 57.7197 124.98 66.1578 124.98Z" fill="#F39E09"/>
<path d="M77.736 99.7318C75.06 97.4253 71.5759 96.0314 67.7666 96.0314C59.329 96.0314 52.488 102.872 52.488 111.31C52.488 115.119 53.8827 118.603 56.1885 121.279C52.9374 118.477 50.8793 114.329 50.8793 109.701C50.8793 101.264 57.7203 94.4226 66.1578 94.4226C70.7853 94.4226 74.9336 96.48 77.736 99.7318Z" fill="#E88102"/>
<path opacity="0.25" d="M78.8999 101.269C69.0059 104.742 61.0658 112.371 57.1741 122.06C56.8336 121.812 56.5038 121.55 56.1862 121.275C53.8812 118.6 52.488 115.117 52.488 111.309C52.488 102.872 59.329 96.0305 67.7666 96.0305C71.5744 96.0305 75.0578 97.4237 77.7329 99.7287C78.1534 100.216 78.5434 100.73 78.9006 101.269H78.8999Z" fill="white"/>
<g opacity="0.964">
<path fill-rule="evenodd" clip-rule="evenodd" d="M66.0836 102.204C66.2214 102.282 66.3397 102.386 66.4386 102.517C67.7851 104.25 69.1498 105.97 70.5327 107.677C69.9796 107.729 69.4274 107.789 68.8762 107.856C68.449 107.943 68.0231 108.017 67.5982 108.08C67.1215 107.316 66.6245 106.564 66.1073 105.823C65.4626 106.646 64.8236 107.472 64.1904 108.303C64.8362 108.357 65.4831 108.409 66.131 108.459C63.3272 109.242 60.8739 110.583 58.771 112.481C58.7561 112.418 58.7718 112.358 58.8183 112.302C61.2506 108.941 63.6724 105.575 66.0836 102.204Z" fill="#DB6704"/>
<path fill-rule="evenodd" clip-rule="evenodd" d="M70.5683 107.767C71.4215 107.753 71.8971 107.325 72.7478 107.383C73.4244 107.43 74.087 107.534 74.7357 107.696C70.6095 107.724 67.3887 109.47 64.3206 112.034C66.5293 111.527 68.7381 111.527 70.9469 112.034C70.5143 111.469 70.0725 110.91 69.6217 110.358C69.0993 110.331 68.5787 110.361 68.0598 110.448C68.0282 110.433 67.9967 110.418 67.9651 110.403C69.0405 109.613 69.8927 109.165 71.2469 108.958C73.4005 111.825 75.3008 114.664 77.4544 117.532C77.5009 117.588 77.5167 117.647 77.5017 117.71C72.1869 113.946 66.9574 112.946 60.5815 114.759C58.5188 115.45 56.6256 116.418 54.9017 117.664C54.8624 117.695 54.8308 117.687 54.8071 117.641C57.5436 113.385 61.3774 110.369 66.3085 108.593C67.6958 108.139 69.1157 107.864 70.5683 107.767Z" fill="#DB6704"/>
</g>
<g opacity="0.964">
<path fill-rule="evenodd" clip-rule="evenodd" d="M65.9863 101.226C66.1191 101.305 66.2332 101.412 66.3285 101.545C67.6266 103.315 68.9421 105.072 70.2753 106.815C69.742 106.868 69.2097 106.929 68.6783 106.998C68.2666 107.086 67.8559 107.162 67.4464 107.226C66.9868 106.447 66.5077 105.679 66.0092 104.922C65.3876 105.762 64.7717 106.606 64.1613 107.454C64.7839 107.51 65.4074 107.563 66.032 107.614C63.3292 108.413 60.9642 109.782 58.937 111.72C58.9226 111.656 58.9378 111.595 58.9826 111.538C61.3273 108.106 63.6619 104.669 65.9863 101.226Z" fill="#FDD835"/>
<path fill-rule="evenodd" clip-rule="evenodd" d="M70.0015 107.249C70.824 107.235 71.6452 107.258 72.4653 107.317C73.1176 107.365 73.7563 107.472 74.3817 107.637C70.404 107.665 66.9364 108.988 63.9788 111.606C66.1079 111.089 68.2372 111.089 70.3665 111.606C69.9494 111.029 69.5236 110.459 69.089 109.895C68.5854 109.868 68.0835 109.898 67.5833 109.986C67.5528 109.971 67.5225 109.956 67.492 109.941C68.5288 109.134 69.6998 108.624 71.0053 108.412C73.0813 111.34 75.1573 114.268 77.2333 117.195C77.2781 117.253 77.2933 117.314 77.279 117.378C72.1555 113.534 66.5206 112.537 60.3743 114.389C58.3859 115.094 56.5608 116.083 54.8991 117.355C54.8611 117.387 54.8307 117.379 54.8078 117.332C57.4458 112.986 61.1415 109.906 65.8951 108.093C67.2324 107.629 68.6012 107.348 70.0015 107.249Z" fill="#FDD835"/>
</g>
<mask id="mask0_1_1094" style="mask-type:alpha" maskUnits="userSpaceOnUse" x="54" y="101" width="24" height="17">
<g opacity="0.964">
<path fill-rule="evenodd" clip-rule="evenodd" d="M65.9863 101.226C66.1191 101.305 66.2331 101.412 66.3285 101.545C67.6265 103.315 68.9421 105.072 70.2752 106.815C69.742 106.868 69.2097 106.929 68.6783 106.998C68.2665 107.086 67.8559 107.162 67.4463 107.226C66.9867 106.447 66.5077 105.679 66.0091 104.922C65.3876 105.762 64.7716 106.606 64.1612 107.454C64.7838 107.51 65.4074 107.563 66.0319 107.614C63.3291 108.413 60.9641 109.782 58.937 111.72C58.9226 111.656 58.9378 111.595 58.9826 111.538C61.3272 108.106 63.6618 104.669 65.9863 101.226Z" fill="#FDD835"/>
<path fill-rule="evenodd" clip-rule="evenodd" d="M70.0014 107.249C70.8239 107.235 71.6452 107.258 72.4653 107.317C73.1175 107.365 73.7563 107.472 74.3816 107.637C70.404 107.665 66.9363 108.988 63.9787 111.606C66.1079 111.089 68.2371 111.089 70.3664 111.606C69.9494 111.029 69.5235 110.459 69.0889 109.895C68.5854 109.868 68.0835 109.898 67.5832 109.986C67.5528 109.971 67.5224 109.956 67.492 109.941C68.5287 109.134 69.6997 108.624 71.0052 108.412C73.0812 111.34 75.1572 114.268 77.2333 117.195C77.2781 117.253 77.2933 117.314 77.2789 117.378C72.1554 113.534 66.5205 112.537 60.3742 114.389C58.3858 115.094 56.5608 116.083 54.899 117.355C54.861 117.387 54.8306 117.379 54.8077 117.332C57.4457 112.986 61.1415 109.906 65.895 108.093C67.2323 107.629 68.6011 107.348 70.0014 107.249Z" fill="#FDD835"/>
</g>
</mask>
<g mask="url(#mask0_1_1094)">
<path d="M60.801 108.076L68.7672 100.109V102.231L57.9347 113.064V109.192L60.801 108.076Z" fill="white" fill-opacity="0.5"/>
<path d="M68.7672 103.72L54.1377 118.35H55.4034L69.065 104.688L68.7672 103.72Z" fill="white" fill-opacity="0.5"/>
<path d="M71.5963 106.289L63.7046 114.18H64.4118L71.5963 106.996V106.289Z" fill="white" fill-opacity="0.5"/>
<path d="M73.7554 106.14L65.2308 114.664H67.8366L74.9094 107.592L73.7554 106.14Z" fill="white" fill-opacity="0.5"/>
<path d="M75.6166 112.208L71.2613 116.563H73.4576L76.5845 113.436L75.6166 112.208Z" fill="white" fill-opacity="0.5"/>
</g>
</g>
<path d="M103.183 94.8912H106.589V127.858H102.001V101.087L97.0346 104.587V99.3845L103.183 94.8912ZM121.151 105.533C125.597 105.533 128.624 108.891 128.624 114.946V118.304C128.624 125.115 125.502 128.52 120.441 128.52C115.428 128.52 112.306 125.209 112.117 119.581H116.752C116.894 122.75 118.124 124.074 120.441 124.074C122.712 124.074 123.989 122.655 123.989 118.351V114.898C123.989 111.304 122.901 109.885 120.536 109.885C118.597 109.885 117.367 110.925 116.894 113.054H112.401V94.8912H127.583V99.0061H116.989V106.858C118.076 106.054 119.495 105.533 121.151 105.533Z" fill="white"/>
<path d="M0.584717 29.5614C0.584717 13.2351 13.8198 0 30.1462 0H122.585V39.4386C122.585 55.7649 109.35 69 93.0233 69H0.584717V29.5614Z" fill="white"/>
<path d="M37.7647 38.162V40.476H35.7367V45H33.2667V40.476H26.8187V39.124L30.5887 26.8H33.1107L29.6007 38.162H33.2927L33.5527 31.766H35.7367V38.162H37.7647ZM55.7433 42.53H57.3553V48.042H54.7813V45H46.1233V48.042H43.5493V42.53H44.6153C45.9413 41.178 46.5653 38.448 46.6693 35.588L46.9813 26.8H55.7433V42.53ZM53.1433 42.53V29.27H49.4513L49.1913 36.316C49.0873 38.89 48.6193 40.996 47.7613 42.53H53.1433ZM62.2866 42.53H68.8386V45H59.6606V26.8H68.5786V29.27H62.2866V34.548H68.0846V36.966H62.2866V42.53ZM79.419 26.8H82.045V45H79.419V37.018H74.271V45H71.645V26.8H74.271V34.548H79.419V26.8ZM85.686 45V26.8H88.312V34.054H90.548C94.084 34.054 96.008 36.238 96.008 39.54C96.008 43.128 94.084 45 90.548 45H85.686ZM88.312 42.582H90.418C92.212 42.582 93.304 41.594 93.304 39.54C93.304 37.538 92.212 36.55 90.418 36.55H88.312V42.582Z" fill="#111111"/>
<defs>
<clipPath id="clip0_1_1094">
<rect width="39" height="39" fill="white" transform="translate(46.6578 90)"/>
</clipPath>
</defs>
</svg>
