<svg width="32" height="32" viewBox="0 0 32 32" fill="none" xmlns="http://www.w3.org/2000/svg">
    <g clip-path="url(#clip0_287_1834)">
        <path d="M20.6165 25.754C20.2162 24.6852 19.4978 23.7649 18.5581 23.1172C17.6184 22.4695 16.5026 22.1256 15.3614 22.132H8.89355C8.14564 22.1158 7.40216 22.2507 6.70758 22.5285C6.013 22.8063 5.3816 23.2214 4.85116 23.7489C4.30135 24.3048 3.87684 24.9719 3.6061 25.7054C2.53519 26.12 1.61624 26.8514 0.971937 27.8019C0.327638 28.7525 -0.011332 29.877 0.000289113 31.0252C0.000289113 31.2397 0.085468 31.4453 0.237087 31.5969C0.388706 31.7485 0.594346 31.8337 0.808768 31.8337H23.4462C23.6606 31.8337 23.8662 31.7485 24.0178 31.5969C24.1695 31.4453 24.2546 31.2397 24.2546 31.0252C24.2494 29.8825 23.8993 28.7679 23.2502 27.8274C22.6011 26.8868 21.6831 26.1642 20.6165 25.754ZM8.89355 23.7489H15.3614C15.9894 23.7464 16.6092 23.8914 17.1709 24.1723C17.7326 24.4531 18.2205 24.862 18.5953 25.3659H5.65964C5.75284 25.2101 5.86116 25.0639 5.98303 24.9293C6.36542 24.5491 6.81975 24.2488 7.31948 24.0462C7.81922 23.8435 8.35433 23.7425 8.89355 23.7489ZM1.69809 30.2168C1.88447 29.3037 2.3806 28.4831 3.1025 27.8938C3.8244 27.3044 4.72774 26.9827 5.65964 26.9828H18.5953C19.541 26.9638 20.4634 27.2769 21.2021 27.8678C21.9407 28.4587 22.4487 29.2899 22.6377 30.2168H1.69809Z"
              fill="white"/>
        <path d="M31.143 18.1866L26.7772 13.8046C26.3341 13.4035 25.7578 13.1814 25.1602 13.1814C24.5626 13.1814 23.9863 13.4035 23.5433 13.8046L21.3604 11.6217L22.6378 10.3443L22.8803 10.5707C22.9529 10.6481 23.0406 10.7097 23.1379 10.7518C23.2352 10.794 23.3402 10.8157 23.4462 10.8157C23.5523 10.8157 23.6572 10.794 23.7546 10.7518C23.8519 10.7097 23.9396 10.6481 24.0122 10.5707L26.1142 8.48485C26.5645 8.02801 26.8169 7.41232 26.8169 6.77087C26.8169 6.12942 26.5645 5.51373 26.1142 5.0569L21.9263 0.868978C21.4695 0.418687 20.8538 0.16626 20.2123 0.16626C19.5709 0.16626 18.9552 0.418687 18.4983 0.868978L16.4125 2.97102C16.3351 3.04361 16.2735 3.13128 16.2313 3.22861C16.1892 3.32595 16.1675 3.43089 16.1675 3.53696C16.1675 3.64302 16.1892 3.74797 16.2313 3.8453C16.2735 3.94264 16.3351 4.03031 16.4125 4.10289L16.6388 4.34544L12.936 8.04827L12.6935 7.8219C12.6209 7.74456 12.5332 7.68291 12.4359 7.64077C12.3385 7.59864 12.2336 7.5769 12.1275 7.5769C12.0215 7.5769 11.9165 7.59864 11.8192 7.64077C11.7219 7.68291 11.6342 7.74456 11.5616 7.8219L9.45955 9.90777C9.00926 10.3646 8.75684 10.9803 8.75684 11.6217C8.75684 12.2632 9.00926 12.8789 9.45955 13.3357L13.6475 17.5236C14.1063 17.9701 14.7212 18.2199 15.3614 18.2199C16.0016 18.2199 16.6166 17.9701 17.0754 17.5236L19.1613 15.4216C19.2386 15.349 19.3003 15.2613 19.3424 15.164C19.3846 15.0667 19.4063 14.9617 19.4063 14.8557C19.4063 14.7496 19.3846 14.6447 19.3424 14.5473C19.3003 14.45 19.2386 14.3623 19.1613 14.2897L18.9349 14.0472L20.2123 12.7698L22.3305 14.8718C21.9063 15.3194 21.6699 15.9126 21.6699 16.5292C21.6699 17.1459 21.9063 17.739 22.3305 18.1866L26.7125 22.5524C27.0851 22.9334 27.5304 23.2356 28.022 23.4411C28.5137 23.6467 29.0416 23.7514 29.5745 23.7489H29.8494C30.1733 23.7576 30.4957 23.7012 30.7974 23.5832C31.0992 23.4652 31.3743 23.2879 31.6064 23.0618C31.8385 22.8357 32.023 22.5654 32.1489 22.2669C32.2748 21.9683 32.3396 21.6475 32.3395 21.3235V21.0486C32.3419 20.5157 32.2373 19.9878 32.0317 19.4961C31.8262 19.0045 31.5239 18.5592 31.143 18.1866ZM19.6464 2.01702C19.7975 1.86888 20.0007 1.78591 20.2123 1.78591C20.4239 1.78591 20.6271 1.86888 20.7783 2.01702L24.9662 6.20494C25.1143 6.35607 25.1973 6.55925 25.1973 6.77087C25.1973 6.98249 25.1143 7.18568 24.9662 7.33681L23.4462 8.85675L18.1264 3.53696L19.6464 2.01702ZM15.9274 16.3756C15.7763 16.5237 15.5731 16.6067 15.3614 16.6067C15.1498 16.6067 14.9466 16.5237 14.7955 16.3756L10.6076 12.1877C10.4595 12.0366 10.3765 11.8334 10.3765 11.6217C10.3765 11.4101 10.4595 11.2069 10.6076 11.0558L12.1275 9.53587L17.4473 14.8557L15.9274 16.3756ZM14.0841 9.19631L17.7869 5.49348L21.4897 9.19631L17.7869 12.8991L14.0841 9.19631ZM30.7225 21.3235C30.7225 21.5379 30.6374 21.7436 30.4857 21.8952C30.3341 22.0468 30.1285 22.132 29.9141 22.132H29.6392C28.9919 22.1287 28.3714 21.8735 27.909 21.4205L23.5433 17.0386C23.3951 16.8874 23.3121 16.6842 23.3121 16.4726C23.3121 16.261 23.3951 16.0578 23.5433 15.9067L24.4973 14.9527C24.5698 14.8753 24.6575 14.8137 24.7548 14.7716C24.8522 14.7294 24.9571 14.7077 25.0632 14.7077C25.1693 14.7077 25.2742 14.7294 25.3715 14.7716C25.4689 14.8137 25.5565 14.8753 25.6291 14.9527L30.0111 19.3185C30.4641 19.7808 30.7193 20.4013 30.7225 21.0486V21.3235Z"
              fill="white"/>
    </g>
    <defs>
        <clipPath id="clip0_287_1834">
            <rect width="32" height="32" fill="white"/>
        </clipPath>
    </defs>
</svg>
