<svg width="28" height="27" viewBox="0 0 28 27" fill="none" xmlns="http://www.w3.org/2000/svg">
    <g clip-path="url(#clip0_140_1460)">
        <path fill-rule="evenodd" clip-rule="evenodd"
              d="M27.4155 5.66667C27.4155 4.2 26.2005 3 24.7155 3C20.6822 4.1279 17.3987 5.30702 14.5411 6.77917C15.6048 8.17586 16.6813 9.56342 17.7707 10.9419C17.2833 10.9884 16.7968 11.0422 16.3111 11.1032C15.9348 11.1814 15.5595 11.2487 15.1852 11.3049C14.7652 10.6159 14.3273 9.93687 13.8716 9.26768C13.3036 10.0104 12.7406 10.7567 12.1827 11.5066C12.7517 11.5556 13.3217 11.6027 13.8925 11.6478C11.4222 12.3548 9.2607 13.5651 7.40796 15.2786C7.39482 15.2218 7.40871 15.168 7.44966 15.1172C9.14199 12.721 10.8286 10.3217 12.5094 7.91951C8.01035 10.669 4.49655 14.4205 0.415527 20.3333C0.415527 21.8 1.63053 23 3.11553 23H18.978C18.978 22.4667 19.4505 22 19.9905 22C20.5305 22 21.003 22.4667 21.003 23H24.7155C26.2005 23 27.4155 21.8 27.4155 20.3333V15.6667C25.9305 15.6667 24.7155 14.4667 24.7155 13C24.7155 11.5333 25.9305 10.3333 27.4155 10.3333V5.66667ZM18.978 19.6667C18.978 20.2 19.4505 20.6667 19.9905 20.6667C20.5305 20.6667 21.003 20.2 21.003 19.6667C21.003 19.1333 20.5305 18.6667 19.9905 18.6667C19.4505 18.6667 18.978 19.1333 18.978 19.6667ZM19.7394 13.9661C19.8203 13.9882 19.9046 14 19.9905 14C20.5305 14 21.003 13.5333 21.003 13C21.003 12.4667 20.5305 12 19.9905 12C19.4838 12 19.0366 12.4109 18.9833 12.9022C18.7909 12.6343 18.5966 12.3662 18.3999 12.0978C17.2067 12.2852 16.456 12.689 15.5084 13.4025L15.5918 13.4429C16.0491 13.365 16.5078 13.3381 16.968 13.3622C17.3652 13.8608 17.7544 14.365 18.1356 14.875C16.1895 14.4178 14.2434 14.4178 12.2975 14.875C15.0006 12.5603 17.8383 10.9836 21.4737 10.9585C20.9022 10.8125 20.3184 10.7184 19.7223 10.6761C19.3238 10.648 19.0188 10.7441 18.7075 10.8422C18.4332 10.9286 18.1541 11.0165 17.802 11.0224C16.5222 11.1101 15.2712 11.3589 14.0489 11.7687C9.70431 13.3722 6.32653 16.0953 3.91553 19.9379C3.93644 19.9791 3.96425 19.9858 3.99893 19.958C5.51772 18.8332 7.18577 17.9591 9.00307 17.3358C14.6206 15.6985 19.2281 16.601 23.9107 20C23.9239 19.9432 23.91 19.8894 23.869 19.8386C22.9203 18.5443 22.0274 17.2563 21.1345 15.9682C20.672 15.3012 20.2096 14.6341 19.7394 13.9661ZM18.978 9.66667C18.978 10.2 19.4505 10.6667 19.9905 10.6667C20.5305 10.6667 21.003 10.2 21.003 9.66667C21.003 9.13333 20.5305 8.66667 19.9905 8.66667C19.4505 8.66667 18.978 9.13333 18.978 9.66667ZM18.978 6.33333C18.978 6.86667 19.4505 7.33333 19.9905 7.33333C20.5305 7.33333 21.003 6.86667 21.003 6.33333C21.003 5.8 20.5305 5.33333 19.9905 5.33333C19.4505 5.33333 18.978 5.8 18.978 6.33333Z"
              fill="#F39E09"/>
        <path d="M24.7155 3H21.003C21.003 3.53333 20.5305 4 19.9905 4C19.4505 4 18.978 3.53333 18.978 3H3.11553C1.63053 3 0.415527 4.2 0.415527 5.66667V10.3333C1.90053 10.3333 3.11553 11.5333 3.11553 13C3.11553 14.4667 1.90053 15.6667 0.415527 15.6667V20.3333C4.49655 14.4205 8.01035 10.669 12.5094 7.91951C12.9569 7.27988 13.4041 6.64005 13.8508 6C13.9721 6.07015 14.0764 6.16427 14.1635 6.28239C14.2892 6.44811 14.415 6.6137 14.5411 6.77917C17.3987 5.30702 20.6822 4.1279 24.7155 3Z"
              fill="#F6B647"/>
    </g>
    <defs>
        <clipPath id="clip0_140_1460">
            <rect width="27" height="27" fill="white" transform="translate(0.415527)"/>
        </clipPath>
    </defs>
</svg>
