<svg width="32" height="32" viewBox="0 0 32 32" fill="none" xmlns="http://www.w3.org/2000/svg">
<path fill-rule="evenodd" clip-rule="evenodd" d="M32 16C32 24.8366 24.8366 32 16 32C7.16344 32 0 24.8366 0 16C0 7.16344 7.16344 0 16 0C24.8366 0 32 7.16344 32 16ZM16.5754 11.8117C15.0192 12.459 11.9089 13.7988 7.24452 15.8309C6.4871 16.1321 6.09032 16.4268 6.05422 16.7149C5.99314 17.2018 6.60298 17.3936 7.43338 17.6547C7.5463 17.6902 7.6633 17.727 7.78324 17.766C8.60019 18.0315 9.69909 18.3422 10.2704 18.3545C10.7886 18.3657 11.367 18.1521 12.0055 17.7136C16.3636 14.7718 18.6132 13.2849 18.7544 13.2528C18.854 13.2302 18.9922 13.2018 19.0858 13.2849C19.1792 13.3681 19.17 13.5256 19.1602 13.5678C19.0998 13.8252 16.7084 16.0485 15.4693 17.2006C15.0822 17.5604 14.8076 17.8158 14.7515 17.874C14.6261 18.0043 14.4982 18.1275 14.3754 18.246C13.6164 18.9776 13.0472 19.5263 14.4069 20.4222C15.0603 20.8528 15.5832 21.209 16.1049 21.5642C16.6744 21.952 17.2425 22.339 17.9775 22.8208C18.1648 22.9434 18.3437 23.071 18.5179 23.1952C19.1808 23.6678 19.7764 24.0924 20.5122 24.0246C20.9398 23.9854 21.3814 23.5834 21.6056 22.3844C22.1356 19.5507 23.1776 13.4111 23.4184 10.8811C23.4394 10.6595 23.413 10.3758 23.3916 10.2512C23.3702 10.1267 23.3258 9.9493 23.1638 9.81796C22.9722 9.66242 22.6762 9.62962 22.5438 9.63194C21.942 9.64254 21.0188 9.96356 16.5754 11.8117Z" fill="white"/>
</svg>
