<svg width="156" height="40" viewBox="0 0 156 40" fill="none" xmlns="http://www.w3.org/2000/svg">
<path d="M43.202 22.4992C43.0022 20.1327 41.179 17.9661 38.6689 17.9661C36.1526 17.9661 34.3793 20.1327 34.1295 22.4992H43.202ZM44.2261 22.9488C44.2198 23.2298 43.9888 23.4545 43.7078 23.4545H34.1295C34.373 25.821 36.1526 27.9877 38.6689 27.9877C40.386 27.9877 41.6598 27.3383 42.6151 25.9646C42.7025 25.8148 42.8586 25.7274 43.0335 25.7211C43.2895 25.7149 43.5018 25.9147 43.508 26.1707V26.1957C43.508 26.2831 43.483 26.3705 43.4331 26.4392C42.4653 28.1126 40.5421 28.9368 38.6689 28.9368C35.447 28.9368 33.1367 26.0458 33.1367 22.9738C33.1367 19.8955 35.4345 17.0107 38.6689 17.0107C41.9033 17.0107 44.2136 19.8705 44.2261 22.9488Z" fill="white"/>
<path d="M55.8711 17.241C56.1334 17.2472 56.3394 17.4595 56.3457 17.7155C56.3519 17.9715 56.1521 18.1838 55.8961 18.1901H53.2986V28.2866C53.2986 28.5489 53.0863 28.7612 52.8241 28.7612C52.5618 28.7549 52.3558 28.5426 52.3495 28.2866V18.1963H49.8769C49.6209 18.2026 49.4086 18.0028 49.4023 17.7468V17.7218C49.4023 17.4595 49.6146 17.2472 49.8769 17.2472H52.3495V13.5633C52.3495 13.3135 52.5368 13.095 52.7803 13.0575C53.0426 13.02 53.2799 13.2074 53.3111 13.4634C53.3111 13.4883 53.3173 13.5071 53.3111 13.5321V17.2472L55.8711 17.241Z" fill="white"/>
<path d="M71.5441 22.125V28.2379C71.5379 28.5001 71.3256 28.7062 71.0696 28.7124C70.8136 28.7186 70.6013 28.5188 70.5951 28.2628V22.125C70.5951 20.0582 69.4274 18.0102 67.1296 18.0102C64.1825 18.0102 62.9087 20.5827 63.0835 23.2239C63.0835 23.2989 63.1147 23.5986 63.1147 23.6423V28.2191C63.1147 28.4689 62.9337 28.6874 62.6839 28.7249C62.4217 28.7624 62.1844 28.575 62.1532 28.319C62.1532 28.2941 62.1469 28.2691 62.1532 28.2503V8.15716C62.1532 7.89491 62.3655 7.68262 62.6277 7.68262C62.89 7.68886 63.096 7.90116 63.1023 8.15716V19.5087C63.9265 18.0352 65.4 17.0361 67.1171 17.0361C69.9394 17.0424 71.5441 19.5087 71.5441 22.125Z" fill="white"/>
<path d="M87.7095 22.4992C87.5097 20.1327 85.6864 17.9661 83.1763 17.9661C80.66 17.9661 78.8867 20.1327 78.6432 22.4992H87.7095ZM88.746 22.9488C88.7397 23.2298 88.5087 23.4545 88.2277 23.4545H78.6494C78.8929 25.821 80.6725 27.9877 83.1826 27.9877C84.8997 27.9877 86.1734 27.3383 87.1288 25.9646C87.2224 25.8148 87.3785 25.7274 87.5471 25.7211C87.8031 25.7149 88.0154 25.9147 88.0217 26.1707V26.1957C88.0217 26.2831 87.9967 26.3705 87.9467 26.4392C86.9789 28.1126 85.0558 28.9368 83.1826 28.9368C79.9607 28.9368 77.6504 26.0458 77.6504 22.9738C77.6504 19.8955 79.9482 17.0107 83.1826 17.0107C86.392 17.0107 88.7335 19.8705 88.746 22.9488Z" fill="white"/>
<path d="M100.523 17.6918C100.542 17.9602 100.342 18.1913 100.073 18.21C97.2572 18.6284 95.9834 20.9261 95.9834 23.5986V28.1817C95.9834 28.4314 95.8024 28.65 95.5526 28.6874C95.2904 28.7249 95.0531 28.5376 95.0219 28.2816C95.0156 28.2566 95.0156 28.2316 95.0156 28.2129V17.7667C95.0156 17.5169 95.2029 17.2984 95.4465 17.2609C95.7025 17.2235 95.9397 17.4108 95.9772 17.6668C95.9772 17.6918 95.9834 17.7105 95.9772 17.7355V19.8584C96.7702 18.516 98.3499 17.2422 99.9921 17.2422C100.248 17.2422 100.523 17.417 100.523 17.6918Z" fill="white"/>
<path d="M115.241 22.4992C115.035 20.1327 113.218 17.9661 110.702 17.9661C108.192 17.9661 106.412 20.1327 106.169 22.4992H115.241ZM116.266 22.9488C116.259 23.2298 116.028 23.4545 115.747 23.4545H106.169C106.412 25.821 108.192 27.9877 110.702 27.9877C112.419 27.9877 113.693 27.3383 114.648 25.9646C114.736 25.8148 114.892 25.7274 115.067 25.7211C115.323 25.7149 115.535 25.9147 115.541 26.1707V26.1957C115.541 26.2831 115.516 26.3705 115.466 26.4392C114.498 28.1126 112.575 28.9368 110.702 28.9368C107.48 28.9368 105.17 26.0458 105.17 22.9738C105.17 19.8955 107.468 17.0107 110.702 17.0107C113.943 17.0107 116.253 19.8705 116.266 22.9488Z" fill="white"/>
<path d="M131.746 17.8034V28.2933C131.74 28.5555 131.528 28.7616 131.272 28.7678C131.016 28.7741 130.803 28.5743 130.797 28.3183V26.3014C130.004 27.8749 128.599 29.0176 126.813 29.0176C123.966 29.0176 122.393 26.5512 122.393 23.935V17.7971C122.393 17.5349 122.605 17.3226 122.867 17.3226C123.129 17.3288 123.335 17.5411 123.342 17.7971V23.935C123.342 26.0017 124.509 28.0498 126.807 28.0498C130.029 28.0498 130.791 25.0339 130.791 21.6934V17.7784C130.797 17.5099 131.016 17.2976 131.284 17.3038C131.34 17.3038 131.39 17.3163 131.44 17.3351C131.627 17.4162 131.746 17.6036 131.746 17.8034Z" fill="white"/>
<path d="M155.999 22.0809V28.2187C155.992 28.481 155.78 28.687 155.524 28.6933C155.268 28.6995 155.056 28.4997 155.049 28.2437V22.0809C155.049 20.0141 153.882 17.9911 151.584 17.9911C148.693 17.9911 147.6 21.0819 147.6 23.4796V28.2187C147.594 28.481 147.382 28.687 147.126 28.6933C146.87 28.6995 146.657 28.4997 146.651 28.2437V22.0809C146.651 20.0141 145.484 17.9911 143.186 17.9911C140.27 17.9911 139.071 20.2889 139.171 23.3484C139.171 23.4234 139.202 23.5482 139.171 23.5919V28.2C139.171 28.4498 138.99 28.6683 138.74 28.7058C138.478 28.7432 138.241 28.5559 138.209 28.2999C138.203 28.2749 138.203 28.25 138.203 28.2312V17.7663C138.203 17.5165 138.39 17.298 138.634 17.2605C138.896 17.2231 139.133 17.4104 139.165 17.6664C139.165 17.6914 139.171 17.7101 139.165 17.7351V19.4834C139.989 18.0098 141.462 17.042 143.18 17.042C145.128 17.042 146.645 18.2845 147.269 20.0891C148.062 18.297 149.611 17.042 151.59 17.042C154.4 17.042 155.999 19.4834 155.999 22.0809Z" fill="white"/>
<path d="M0 20.3639L11.9885 0.458008V14.9191L0 20.3639Z" fill="white"/>
<path d="M11.9885 27.4569L0 20.3637L11.9885 14.9189V27.4569Z" fill="#E0E0E0"/>
<path d="M23.9892 20.3639L11.9883 14.9191V0.458008L23.9892 20.3639Z" fill="#E1E1E1"/>
<path d="M11.9883 27.4569V14.9189L23.9892 20.3637L11.9883 27.4569Z" fill="#CCCCCC"/>
<path d="M11.9885 39.5447L0 22.6484L11.9885 29.7229V39.5447Z" fill="white"/>
<path d="M11.9883 39.5447V29.7229L23.9892 22.6484L11.9883 39.5447Z" fill="#D4D4D4"/>
</svg>
