<svg width="25" height="25" viewBox="0 0 25 25" fill="none" xmlns="http://www.w3.org/2000/svg">
    <g clip-path="url(#clip0_15_1868)">
        <path d="M12.0876 24.5C18.7151 24.5 24.0876 19.1274 24.0876 12.5C24.0876 5.87258 18.7151 0.5 12.0876 0.5C5.46023 0.5 0.0876465 5.87258 0.0876465 12.5C0.0876465 19.1274 5.46023 24.5 12.0876 24.5Z"
              fill="#FDD835"/>
        <path opacity="0.5"
              d="M12.0876 0.5C5.46046 0.5 0.0876465 5.87281 0.0876465 12.5C0.0876465 19.1272 5.46046 24.5 12.0876 24.5C18.7148 24.5 24.0876 19.1272 24.0876 12.5C24.0876 5.87281 18.7148 0.5 12.0876 0.5ZM12.0876 23.9844C5.74499 23.9844 0.603271 18.8427 0.603271 12.5C0.603271 6.15734 5.74499 1.01562 12.0876 1.01562C18.4303 1.01562 23.572 6.15734 23.572 12.5C23.572 18.8427 18.4303 23.9844 12.0876 23.9844Z"
              fill="white"/>
        <path opacity="0.5"
              d="M16.8753 1.49314L1.08079 17.2877C0.540983 16.0478 0.215883 14.7252 0.119385 13.3764L12.9641 0.531738C14.3455 0.631113 15.6631 0.965332 16.8753 1.49314ZM22.5449 6.61002L6.19767 22.9572C5.18433 22.385 4.25925 21.669 3.45126 20.8314L20.4191 3.86361C21.2534 4.66893 21.9716 5.5933 22.5449 6.61002ZM19.9288 3.41643L3.0036 20.3411C2.73843 20.0346 2.4892 19.7146 2.25688 19.3825L18.9702 2.66924C19.302 2.90174 19.6222 3.15111 19.9288 3.41643ZM23.7111 9.50549L9.09313 24.1235C8.65157 24.01 8.22032 23.8722 7.79938 23.7114L23.2986 8.21221C23.4594 8.63268 23.5977 9.06439 23.7106 9.50596L23.7111 9.50549Z"
              fill="white"/>
        <path opacity="0.5"
              d="M21.8363 13.0194C21.8363 18.2117 17.6264 22.4216 12.4341 22.4216C9.51704 22.4216 6.90938 21.0932 5.18579 19.0077C6.90282 20.8639 9.36001 22.026 12.0877 22.026C17.28 22.026 21.4899 17.8161 21.4899 12.6238C21.4899 10.3489 20.6817 8.26206 19.3364 6.6355C20.8884 8.31269 21.8363 10.5552 21.8363 13.0194Z"
              fill="white"/>
        <path d="M12.0875 22.0258C17.2802 22.0258 21.4897 17.8163 21.4897 12.6236C21.4897 7.43094 17.2802 3.22144 12.0875 3.22144C6.89481 3.22144 2.6853 7.43094 2.6853 12.6236C2.6853 17.8163 6.89481 22.0258 12.0875 22.0258Z"
              fill="#F39E09"/>
        <path d="M19.2125 6.48862C17.5658 5.06925 15.4217 4.21144 13.0775 4.21144C7.88515 4.21144 3.6753 8.42128 3.6753 13.6136C3.6753 15.9578 4.53358 18.1019 5.95249 19.7486C3.95187 18.0241 2.6853 15.4717 2.6853 12.6236C2.6853 7.43128 6.89515 3.22144 12.0875 3.22144C14.9351 3.22144 17.488 4.48753 19.2125 6.48862Z"
              fill="#E88102"/>
        <path opacity="0.25"
              d="M19.929 7.43453C13.8404 9.57203 8.95413 14.2666 6.55929 20.2291C6.34976 20.0767 6.14679 19.9155 5.95132 19.7462C4.53288 18.1 3.67554 15.9564 3.67554 13.6131C3.67554 8.42078 7.88538 4.21094 13.0777 4.21094C15.421 4.21094 17.5646 5.06828 19.2108 6.48672C19.4696 6.78672 19.7096 7.10312 19.9294 7.43453H19.929Z"
              fill="white"/>
        <g opacity="0.964">
            <path fill-rule="evenodd" clip-rule="evenodd"
                  d="M12.0422 8.01025C12.127 8.05807 12.1998 8.12222 12.2607 8.20273C13.0893 9.26915 13.9291 10.3278 14.7801 11.3786C14.4397 11.4103 14.0999 11.447 13.7607 11.4886C13.4978 11.5419 13.2357 11.5878 12.9743 11.6261C12.6809 11.1565 12.375 10.6936 12.0568 10.2375C11.66 10.7438 11.2668 11.2524 10.8771 11.7636C11.2746 11.797 11.6726 11.8291 12.0713 11.8598C10.346 12.3417 8.8362 13.1666 7.54212 14.3345C7.53295 14.2958 7.54265 14.2592 7.57125 14.2246C9.06802 12.1564 10.5583 10.085 12.0422 8.01025Z"
                  fill="#DB6704"/>
            <path fill-rule="evenodd" clip-rule="evenodd"
                  d="M14.802 11.4335C15.327 11.425 15.6197 11.1615 16.1432 11.1975C16.5596 11.2263 16.9674 11.2905 17.3666 11.3899C14.8273 11.4071 12.8453 12.4818 10.9573 14.0595C12.3165 13.7478 13.6757 13.7478 15.035 14.0595C14.7688 13.7119 14.4969 13.3682 14.2195 13.0283C13.898 13.0119 13.5776 13.0302 13.2583 13.0833C13.2389 13.0742 13.2195 13.065 13.2 13.0558C13.8618 12.5695 14.3862 12.2943 15.2196 12.1665C16.5449 13.9309 17.7143 15.6783 19.0396 17.4427C19.0682 17.4773 19.0779 17.5139 19.0687 17.5527C15.7981 15.2359 12.5799 14.6207 8.65625 15.7368C7.38693 16.1616 6.22186 16.7573 5.16104 17.5241C5.13681 17.543 5.11739 17.5384 5.10278 17.5103C6.78678 14.8912 9.14605 13.0351 12.1806 11.9422C13.0343 11.6629 13.9081 11.4933 14.802 11.4335Z"
                  fill="#DB6704"/>
        </g>
        <g opacity="0.964">
            <path fill-rule="evenodd" clip-rule="evenodd"
                  d="M11.9824 7.40894C12.0641 7.45776 12.1343 7.52327 12.193 7.60548C12.9917 8.69443 13.8013 9.77543 14.6217 10.8485C14.2936 10.8809 13.966 10.9183 13.639 10.9608C13.3856 11.0152 13.1329 11.062 12.8809 11.1012C12.598 10.6216 12.3032 10.149 11.9964 9.68325C11.6139 10.2002 11.2349 10.7196 10.8593 11.2416C11.2424 11.2757 11.6261 11.3084 12.0105 11.3399C10.3472 11.8319 8.8918 12.6743 7.64433 13.8669C7.63548 13.8273 7.64483 13.7899 7.67241 13.7546C9.11528 11.6427 10.5519 9.52747 11.9824 7.40894Z"
                  fill="#FDD835"/>
            <path fill-rule="evenodd" clip-rule="evenodd"
                  d="M14.4532 11.1152C14.9594 11.1066 15.4648 11.1206 15.9694 11.1573C16.3708 11.1868 16.7639 11.2523 17.1487 11.3539C14.7009 11.3714 12.567 12.1856 10.7469 13.7967C12.0572 13.4785 13.3675 13.4785 14.6779 13.7967C14.4212 13.4417 14.1591 13.0908 13.8917 12.7438C13.5818 12.727 13.2729 12.7457 12.9651 12.7999C12.9464 12.7906 12.9277 12.7812 12.9089 12.7718C13.5469 12.2752 14.2676 11.9616 15.071 11.8312C16.3485 13.6329 17.626 15.4345 18.9036 17.2362C18.9312 17.2716 18.9405 17.309 18.9317 17.3485C15.7788 14.9828 12.3111 14.3698 8.52878 15.5094C7.30517 15.9432 6.18205 16.5516 5.15943 17.3345C5.13607 17.3538 5.11736 17.3491 5.10327 17.3205C6.72663 14.646 9.00094 12.7507 11.9262 11.6347C12.7492 11.3495 13.5915 11.1763 14.4532 11.1152Z"
                  fill="#FDD835"/>
        </g>
        <mask id="mask0_15_1868" style="mask-type:alpha" maskUnits="userSpaceOnUse" x="5" y="7" width="14" height="11">
            <g opacity="0.964">
                <path fill-rule="evenodd" clip-rule="evenodd"
                      d="M11.9824 7.40894C12.0641 7.45776 12.1343 7.52327 12.193 7.60548C12.9917 8.69443 13.8013 9.77543 14.6217 10.8485C14.2936 10.8809 13.966 10.9183 13.639 10.9608C13.3856 11.0152 13.1329 11.062 12.8809 11.1012C12.598 10.6216 12.3032 10.149 11.9964 9.68325C11.6139 10.2002 11.2349 10.7196 10.8593 11.2416C11.2424 11.2757 11.6261 11.3084 12.0105 11.3399C10.3472 11.8319 8.8918 12.6743 7.64433 13.8669C7.63548 13.8273 7.64483 13.7899 7.67241 13.7546C9.11528 11.6427 10.5519 9.52747 11.9824 7.40894Z"
                      fill="#FDD835"/>
                <path fill-rule="evenodd" clip-rule="evenodd"
                      d="M14.4532 11.1152C14.9594 11.1066 15.4648 11.1206 15.9694 11.1573C16.3708 11.1868 16.7639 11.2523 17.1487 11.3539C14.7009 11.3714 12.567 12.1856 10.7469 13.7967C12.0572 13.4785 13.3675 13.4785 14.6779 13.7967C14.4212 13.4417 14.1591 13.0908 13.8917 12.7438C13.5818 12.727 13.2729 12.7457 12.9651 12.7999C12.9464 12.7906 12.9277 12.7812 12.9089 12.7718C13.5469 12.2752 14.2676 11.9616 15.071 11.8312C16.3485 13.6329 17.626 15.4345 18.9036 17.2362C18.9312 17.2716 18.9405 17.309 18.9317 17.3485C15.7788 14.9828 12.3111 14.3698 8.52878 15.5094C7.30517 15.9432 6.18205 16.5516 5.15943 17.3345C5.13607 17.3538 5.11736 17.3491 5.10327 17.3205C6.72663 14.646 9.00094 12.7507 11.9262 11.6347C12.7492 11.3495 13.5915 11.1763 14.4532 11.1152Z"
                      fill="#FDD835"/>
            </g>
        </mask>
        <g mask="url(#mask0_15_1868)">
            <path d="M8.79142 11.6242L13.6937 6.72192V8.02767L7.02751 14.6938V12.3114L8.79142 11.6242Z" fill="white"
                  fill-opacity="0.5"/>
            <path d="M13.6937 8.94398L4.69092 17.9468H5.46978L13.8769 9.53958L13.6937 8.94398Z" fill="white"
                  fill-opacity="0.5"/>
            <path d="M15.4347 10.5246L10.5782 15.3811H11.0135L15.4347 10.9599V10.5246Z" fill="white"
                  fill-opacity="0.5"/>
            <path d="M16.7633 10.433L11.5174 15.6789H13.121L17.4735 11.3264L16.7633 10.433Z" fill="white"
                  fill-opacity="0.5"/>
            <path d="M17.9087 14.167L15.2285 16.8472H16.5801L18.5043 14.9229L17.9087 14.167Z" fill="white"
                  fill-opacity="0.5"/>
        </g>
    </g>
    <defs>
        <clipPath id="clip0_15_1868">
            <rect width="24" height="24" fill="white" transform="translate(0.0876465 0.5)"/>
        </clipPath>
    </defs>
</svg>
