<svg width="36" height="36" viewBox="0 0 36 36" fill="none" xmlns="http://www.w3.org/2000/svg">
<path d="M35 14.6C34.9369 12.3712 34.7247 10.9502 34.0102 9.73756C32.9938 8.01289 31.1635 7.05312 27.5028 5.13358L24.1001 3.34935C21.1133 1.78312 19.6198 1 18.0133 1C16.4067 1 14.9133 1.78312 11.9264 3.34935L8.52376 5.13358C4.86308 7.05312 3.03273 8.01289 2.01637 9.73756C1 11.4622 1 13.6083 1 17.9005V18.0995C1 22.3916 1 24.5379 2.01637 26.2625C3.03273 27.9872 4.86308 28.9468 8.52376 30.8665L11.9264 32.6506C14.9133 34.2168 16.4067 35 18.0133 35C19.6198 35 21.1133 34.2168 24.1001 32.6506L27.5028 30.8665C31.1635 28.9468 32.9938 27.9872 34.0102 26.2625C34.7247 25.0497 34.9369 23.6289 35 21.4" stroke="white" stroke-width="2" stroke-linecap="round"/>
<path d="M32.875 10.3125L26.0278 13.6875M26.0278 13.6875C26.0278 13.6875 25.5062 13.9446 25.1719 14.1094C22.1635 15.5922 17.4688 17.9062 17.4688 17.9062M26.0278 13.6875V19.5938M26.0278 13.6875L9.76563 5.25M17.4688 17.9062L2.0625 10.3125M17.4688 17.9062V33.9375" stroke="white" stroke-width="2" stroke-linecap="round"/>
</svg>
