<svg width="104" height="103" viewBox="0 0 104 103" fill="none" xmlns="http://www.w3.org/2000/svg">
<circle opacity="0.1" cx="52" cy="51.5" r="51.5" fill="#D9D9D9"/>
<path d="M57.687 51.5005C57.687 54.6416 55.1406 57.188 51.9995 57.188C48.8584 57.188 46.312 54.6416 46.312 51.5005C46.312 48.3594 48.8584 45.813 51.9995 45.813C55.1406 45.813 57.687 48.3594 57.687 51.5005Z" stroke="#F7F7F7" stroke-width="2.925"/>
<path d="M66.2842 46.872C67.5945 49.1304 68.2495 50.2595 68.2495 51.5C68.2495 52.7405 67.5945 53.8696 66.2842 56.128L63.1582 61.5162C61.8532 63.7655 61.2007 64.8903 60.1276 65.5077C59.0546 66.125 57.7523 66.125 55.1476 66.125H48.8514C46.2467 66.125 44.9444 66.125 43.8714 65.5077C42.7983 64.8903 42.1458 63.7655 40.8408 61.5162L37.7148 56.128C36.4046 53.8696 35.7495 52.7405 35.7495 51.5C35.7495 50.2595 36.4046 49.1304 37.7148 46.872L40.8408 41.4838C42.1458 39.2344 42.7983 38.1097 43.8714 37.4924C44.9444 36.875 46.2467 36.875 48.8514 36.875H55.1476C57.7523 36.875 59.0546 36.875 60.1276 37.4924C61.2007 38.1097 61.8532 39.2345 63.1582 41.4839L66.2842 46.872Z" stroke="#F7F7F7" stroke-width="2.925"/>
</svg>
