<svg width="40" height="40" viewBox="0 0 40 40" fill="none" xmlns="http://www.w3.org/2000/svg">
<path d="M25.8337 20C25.8337 23.2217 23.222 25.8333 20.0003 25.8333C16.7787 25.8333 14.167 23.2217 14.167 20C14.167 16.7783 16.7787 14.1667 20.0003 14.1667C23.222 14.1667 25.8337 16.7783 25.8337 20Z" stroke="#F7F7F7" stroke-width="1.5"/>
<path d="M34.6512 15.2533C35.995 17.5697 36.6668 18.7277 36.6668 20C36.6668 21.2723 35.995 22.4303 34.6512 24.7467L31.445 30.273C30.1065 32.58 29.4373 33.7337 28.3367 34.3668C27.2362 35 25.9005 35 23.229 35H16.7713C14.0999 35 12.7642 35 11.6636 34.3668C10.5631 33.7337 9.89381 32.58 8.55535 30.273L5.3492 24.7467C4.0054 22.4303 3.3335 21.2723 3.3335 20C3.3335 18.7277 4.0054 17.5697 5.3492 15.2533L8.55535 9.72702C9.89381 7.41993 10.5631 6.2664 11.6636 5.6332C12.7642 5 14.0999 5 16.7713 5H23.229C25.9005 5 27.2362 5 28.3367 5.6332C29.4373 6.2664 30.1065 7.41995 31.445 9.72703L34.6512 15.2533Z" stroke="#F7F7F7" stroke-width="1.5"/>
</svg>
