<svg width="34" height="31" viewBox="0 0 34 31" fill="none" xmlns="http://www.w3.org/2000/svg">
    <path d="M1 1.34226C1 1.15323 1.15132 1 1.33799 1H6.09191C6.27858 1 6.4299 1.15323 6.4299 1.34226V20.603H25.9905L32.1406 6.68082H8.36956C8.18289 6.68082 8.03157 6.52759 8.03157 6.33856C8.03157 6.14954 8.18289 5.9963 8.36956 5.9963H32.662C32.7766 5.9963 32.8833 6.05506 32.9456 6.1524C33.0079 6.24975 33.0173 6.37243 32.9705 6.47832L26.5181 21.085C26.4637 21.2082 26.3429 21.2875 26.2096 21.2875H6.09191C5.90524 21.2875 5.75392 21.1343 5.75392 20.9453V1.68452H1.33799C1.15132 1.68452 1 1.53128 1 1.34226Z"
          fill="white"/>
    <path fill-rule="evenodd" clip-rule="evenodd"
          d="M8.4054 24.3368C8.77264 24.3367 9.13632 24.4098 9.47565 24.5521C9.81496 24.6944 10.1233 24.9029 10.383 25.1659C10.6426 25.4289 10.8486 25.7411 10.9891 26.0847C11.1296 26.4283 11.2019 26.7966 11.2018 27.1685C11.2017 27.7284 11.0376 28.2756 10.7303 28.741C10.4231 29.2065 9.98647 29.5692 9.47565 29.7834C8.9648 29.9976 8.40274 30.0536 7.86051 29.9443C7.31829 29.835 6.82021 29.5655 6.42925 29.1696C6.0383 28.7737 5.77205 28.2693 5.66416 27.7202C5.55626 27.1711 5.61156 26.602 5.82308 26.0847C6.03459 25.5674 6.39282 25.1253 6.85245 24.8142C7.3121 24.503 7.85253 24.3369 8.4054 24.3368ZM9.21704 25.1845C8.95978 25.0767 8.68404 25.0212 8.40557 25.0213C7.98637 25.0214 7.57661 25.1473 7.22811 25.3832C6.87961 25.6191 6.608 25.9544 6.44763 26.3466C6.28726 26.7388 6.24533 27.1703 6.32714 27.5866C6.40895 28.003 6.61083 28.3854 6.90724 28.6856C7.20364 28.9857 7.58127 29.1901 7.99243 29.2729C8.40359 29.3558 8.82975 29.3134 9.21704 29.151C9.60434 28.9886 9.9354 28.7135 10.1684 28.3606C10.4013 28.0077 10.5257 27.5928 10.5258 27.1683C10.5259 26.8863 10.4711 26.6071 10.3646 26.3466C10.258 26.086 10.1019 25.8493 9.90496 25.6499C9.70807 25.4506 9.47431 25.2924 9.21704 25.1845Z"
          fill="white"/>
    <path fill-rule="evenodd" clip-rule="evenodd"
          d="M22.6363 26.301C22.6363 26.3009 22.6363 26.301 22.6363 26.301L23.4928 27.1685C23.4928 27.7285 23.3288 28.2759 23.0215 28.7416C22.7142 29.2072 22.2775 29.5703 21.7664 29.7846C21.2554 29.9989 20.6931 30.0548 20.1507 29.9455C19.6083 29.8362 19.11 29.5665 18.719 29.1704C18.3279 28.7743 18.0616 28.2697 17.9538 27.7204C17.846 27.171 17.9015 26.6017 18.1132 26.0843C18.325 25.5669 18.6835 25.1247 19.1435 24.8136C19.6034 24.5026 20.1441 24.3366 20.6971 24.3368L21.5535 25.2042C21.5535 25.2042 21.5536 25.2042 21.5535 25.2042L22.6363 26.301ZM19.5189 25.3829C19.8676 25.147 20.2776 25.0212 20.697 25.0213C20.9755 25.0213 21.2512 25.0768 21.5084 25.1847C21.5235 25.191 21.5386 25.1975 21.5535 25.2042L22.6363 26.301C22.6429 26.3161 22.6494 26.3314 22.6556 26.3467C22.7621 26.6072 22.8169 26.8864 22.8168 27.1683C22.8168 27.593 22.6925 28.0082 22.4595 28.3613C22.2264 28.7144 21.8952 28.9896 21.5078 29.1521C21.1203 29.3146 20.694 29.3571 20.2826 29.2742C19.8713 29.1913 19.4935 28.9868 19.197 28.6864C18.9005 28.3861 18.6986 28.0035 18.6168 27.5869C18.5351 27.1704 18.5772 26.7387 18.7377 26.3464C18.8983 25.954 19.1701 25.6187 19.5189 25.3829Z"
          fill="white"/>
    <path d="M22.6363 26.301C22.5306 26.0585 22.3814 25.8377 22.1962 25.6501C22.0109 25.4625 21.7929 25.3113 21.5535 25.2042L20.6971 24.3368C21.0643 24.3368 21.4279 24.41 21.7671 24.5523C22.1064 24.6946 22.4146 24.9032 22.6742 25.1662C22.9338 25.4291 23.1398 25.7413 23.2802 26.0849C23.4207 26.4284 23.4929 26.7967 23.4928 27.1685L22.6363 26.301Z"
          fill="white"/>
    <path d="M21.5535 25.2042C21.5386 25.1975 21.5235 25.191 21.5084 25.1847C21.2512 25.0768 20.9755 25.0213 20.697 25.0213C20.2776 25.0212 19.8676 25.147 19.5189 25.3829C19.1701 25.6187 18.8983 25.954 18.7377 26.3464C18.5772 26.7387 18.5351 27.1704 18.6168 27.5869C18.6986 28.0035 18.9005 28.3861 19.197 28.6864C19.4935 28.9868 19.8713 29.1913 20.2826 29.2742C20.694 29.3571 21.1203 29.3146 21.5078 29.1521C21.8952 28.9896 22.2264 28.7144 22.4595 28.3613C22.6925 28.0082 22.8168 27.593 22.8168 27.1683C22.8169 26.8864 22.7621 26.6072 22.6556 26.3467C22.6494 26.3314 22.6429 26.3161 22.6363 26.301M21.5535 25.2042L22.6363 26.301M21.5535 25.2042L20.6971 24.3368M21.5535 25.2042C21.5535 25.2042 21.5536 25.2042 21.5535 25.2042ZM21.5535 25.2042C21.7929 25.3113 22.0109 25.4625 22.1962 25.6501C22.3814 25.8377 22.5306 26.0585 22.6363 26.301M21.5535 25.2042L23.4928 27.1685M22.6363 26.301C22.6363 26.3009 22.6363 26.301 22.6363 26.301ZM22.6363 26.301L23.4928 27.1685M23.4928 27.1685C23.4928 27.7285 23.3288 28.2759 23.0215 28.7416C22.7142 29.2072 22.2775 29.5703 21.7664 29.7846C21.2554 29.9989 20.6931 30.0548 20.1507 29.9455C19.6083 29.8362 19.11 29.5665 18.719 29.1704C18.3279 28.7743 18.0616 28.2697 17.9538 27.7204C17.846 27.171 17.9015 26.6017 18.1132 26.0843C18.325 25.5669 18.6835 25.1247 19.1435 24.8136C19.6034 24.5026 20.1441 24.3366 20.6971 24.3368M23.4928 27.1685C23.4929 26.7967 23.4207 26.4284 23.2802 26.0849C23.1398 25.7413 22.9338 25.4291 22.6742 25.1662C22.4146 24.9032 22.1064 24.6946 21.7671 24.5523C21.4279 24.41 21.0643 24.3368 20.6971 24.3368M1.33799 1C1.15132 1 1 1.15323 1 1.34226C1 1.53128 1.15132 1.68452 1.33799 1.68452H5.75392V20.9453C5.75392 21.1343 5.90524 21.2875 6.09191 21.2875H26.2096C26.3429 21.2875 26.4637 21.2082 26.5181 21.085L32.9705 6.47832C33.0173 6.37243 33.0079 6.24975 32.9456 6.1524C32.8833 6.05506 32.7766 5.9963 32.662 5.9963H8.36956C8.18289 5.9963 8.03157 6.14954 8.03157 6.33856C8.03157 6.52759 8.18289 6.68082 8.36956 6.68082H32.1406L25.9905 20.603H6.4299V1.34226C6.4299 1.15323 6.27858 1 6.09191 1H1.33799ZM8.40557 25.0213C8.68404 25.0212 8.95978 25.0767 9.21704 25.1845C9.47431 25.2924 9.70807 25.4506 9.90496 25.6499C10.1019 25.8493 10.258 26.086 10.3646 26.3466C10.4711 26.6071 10.5259 26.8863 10.5258 27.1683C10.5257 27.5928 10.4013 28.0077 10.1684 28.3606C9.9354 28.7135 9.60434 28.9886 9.21704 29.151C8.82976 29.3134 8.40359 29.3558 7.99243 29.2729C7.58127 29.1901 7.20364 28.9857 6.90724 28.6856C6.61083 28.3854 6.40895 28.003 6.32714 27.5866C6.24533 27.1703 6.28726 26.7388 6.44763 26.3466C6.608 25.9544 6.87961 25.6191 7.22811 25.3832C7.57661 25.1473 7.98637 25.0214 8.40557 25.0213ZM9.47565 24.5521C9.13632 24.4098 8.77264 24.3367 8.4054 24.3368C7.85253 24.3369 7.3121 24.503 6.85245 24.8142C6.39282 25.1253 6.03459 25.5674 5.82308 26.0847C5.61156 26.602 5.55626 27.1711 5.66416 27.7202C5.77205 28.2693 6.0383 28.7737 6.42925 29.1696C6.82021 29.5655 7.31829 29.835 7.86051 29.9443C8.40274 30.0536 8.9648 29.9976 9.47565 29.7834C9.98647 29.5692 10.4231 29.2065 10.7303 28.741C11.0376 28.2756 11.2017 27.7284 11.2018 27.1685C11.2019 26.7966 11.1296 26.4283 10.9891 26.0847C10.8486 25.7411 10.6426 25.4289 10.383 25.1659C10.1233 24.9029 9.81496 24.6944 9.47565 24.5521Z"
          stroke="white" stroke-width="1.97076" stroke-linecap="round" stroke-linejoin="round"/>
</svg>
