<svg width="28" height="28" viewBox="0 0 28 28" fill="none" xmlns="http://www.w3.org/2000/svg">
<g clip-path="url(#clip0_16_1201)">
<path d="M14 27.5C21.4558 27.5 27.5 21.4558 27.5 14C27.5 6.54416 21.4558 0.5 14 0.5C6.54416 0.5 0.5 6.54416 0.5 14C0.5 21.4558 6.54416 27.5 14 27.5Z" fill="#FDD835"/>
<path opacity="0.5" d="M14 0.5C6.54441 0.5 0.5 6.54441 0.5 14C0.5 21.4556 6.54441 27.5 14 27.5C21.4556 27.5 27.5 21.4556 27.5 14C27.5 6.54441 21.4556 0.5 14 0.5ZM14 26.9199C6.86451 26.9199 1.08008 21.1355 1.08008 14C1.08008 6.86451 6.86451 1.08008 14 1.08008C21.1355 1.08008 26.9199 6.86451 26.9199 14C26.9199 21.1355 21.1355 26.9199 14 26.9199Z" fill="white"/>
<path opacity="0.5" d="M19.3863 1.61747L1.61747 19.3863C1.01019 17.9915 0.644449 16.5036 0.535889 14.9862L14.9862 0.535889C16.5402 0.647686 18.0226 1.02368 19.3863 1.61747ZM25.7645 7.37396L7.37396 25.7645C6.23395 25.1208 5.19323 24.3153 4.28425 23.373L23.373 4.28425C24.3117 5.19022 25.1196 6.23015 25.7645 7.37396ZM22.8214 3.78116L3.78063 22.8214C3.48232 22.4766 3.20193 22.1166 2.94058 21.743L21.743 2.94058C22.1164 3.20214 22.4766 3.48269 22.8214 3.78116ZM27.0766 10.6314L10.6314 27.0766C10.1346 26.949 9.64944 26.7939 9.17589 26.613L26.6125 9.17642C26.7934 9.64944 26.949 10.1351 27.076 10.6319L27.0766 10.6314Z" fill="white"/>
<path opacity="0.5" d="M24.9671 14.5842C24.9671 20.4256 20.2311 25.1617 14.3897 25.1617C11.108 25.1617 8.17439 23.6672 6.23535 21.3211C8.16701 23.4093 10.9313 24.7166 14 24.7166C19.8413 24.7166 24.5774 19.9805 24.5774 14.1392C24.5774 11.58 23.6683 9.23223 22.1548 7.40234C23.9008 9.28918 24.9671 11.812 24.9671 14.5842Z" fill="white"/>
<path d="M14.0001 24.7167C19.8418 24.7167 24.5775 19.981 24.5775 14.1392C24.5775 8.29746 19.8418 3.56177 14.0001 3.56177C8.1583 3.56177 3.42261 8.29746 3.42261 14.1392C3.42261 19.981 8.1583 24.7167 14.0001 24.7167Z" fill="#F39E09"/>
<path d="M22.0157 7.23735C20.1631 5.64056 17.7511 4.67552 15.1138 4.67552C9.27243 4.67552 4.53636 9.41159 4.53636 15.253C4.53636 17.8902 5.50192 20.3023 7.09819 22.1549C4.84749 20.2148 3.42261 17.3434 3.42261 14.1392C3.42261 8.29784 8.15868 3.56177 14.0001 3.56177C17.2037 3.56177 20.0756 4.98612 22.0157 7.23735Z" fill="#E88102"/>
<path opacity="0.25" d="M22.8215 8.30159C15.9718 10.7063 10.4748 15.9876 7.7806 22.6954C7.54487 22.5241 7.31653 22.3426 7.09663 22.1523C5.50089 20.3002 4.53638 17.8887 4.53638 15.2525C4.53638 9.41112 9.27245 4.67505 15.1138 4.67505C17.75 4.67505 20.1616 5.63956 22.0136 7.2353C22.3047 7.5728 22.5747 7.92876 22.822 8.30159H22.8215Z" fill="white"/>
<g opacity="0.964">
<path fill-rule="evenodd" clip-rule="evenodd" d="M13.9489 8.94885C14.0443 9.00265 14.1262 9.07482 14.1947 9.16539C15.1269 10.3651 16.0717 11.5561 17.0291 12.7383C16.6461 12.7739 16.2639 12.8152 15.8822 12.862C15.5865 12.922 15.2916 12.9736 14.9975 13.0167C14.6674 12.4884 14.3234 11.9676 13.9653 11.4545C13.519 12.024 13.0766 12.5963 12.6382 13.1713C13.0854 13.2089 13.5332 13.245 13.9817 13.2796C12.0407 13.8217 10.3422 14.7498 8.88635 16.0637C8.87602 16.0201 8.88694 15.9789 8.91911 15.9399C10.603 13.6133 12.2796 11.2829 13.9489 8.94885Z" fill="#DB6704"/>
<path fill-rule="evenodd" clip-rule="evenodd" d="M17.0537 12.8C17.6444 12.7904 17.9736 12.494 18.5626 12.5345C19.031 12.5669 19.4897 12.6391 19.9388 12.751C17.0822 12.7703 14.8524 13.9793 12.7284 15.7542C14.2575 15.4036 15.7867 15.4036 17.3159 15.7542C17.0163 15.3632 16.7105 14.9765 16.3984 14.5942C16.0367 14.5757 15.6763 14.5963 15.317 14.656C15.2952 14.6457 15.2733 14.6354 15.2515 14.6251C15.996 14.078 16.586 13.7684 17.5235 13.6247C19.0144 15.6096 20.3301 17.5754 21.821 19.5603C21.8532 19.5993 21.8641 19.6405 21.8538 19.6841C18.1743 17.0777 14.5538 16.3856 10.1397 17.6412C8.71176 18.1191 7.40105 18.7893 6.20763 19.6519C6.18037 19.6732 6.15853 19.668 6.14209 19.6364C8.03659 16.6899 10.6908 14.6019 14.1046 13.3723C15.065 13.0581 16.0481 12.8673 17.0537 12.8Z" fill="#DB6704"/>
</g>
<g opacity="0.964">
<path fill-rule="evenodd" clip-rule="evenodd" d="M13.8816 8.27197C13.9735 8.3269 14.0525 8.4006 14.1185 8.49309C15.0171 9.71815 15.9279 10.9343 16.8508 12.1415C16.4816 12.1779 16.1131 12.22 15.7452 12.2678C15.4602 12.3291 15.1759 12.3817 14.8924 12.4258C14.5742 11.8863 14.2425 11.3546 13.8974 10.8306C13.4671 11.4121 13.0406 11.9965 12.6181 12.5837C13.0491 12.622 13.4808 12.6589 13.9132 12.6943C12.042 13.2478 10.4047 14.1955 9.00127 15.5371C8.99132 15.4927 9.00184 15.4506 9.03285 15.4108C10.6561 13.035 12.2723 10.6553 13.8816 8.27197Z" fill="#FDD835"/>
<path fill-rule="evenodd" clip-rule="evenodd" d="M16.6613 12.4416C17.2307 12.4318 17.7993 12.4476 18.367 12.4889C18.8186 12.5221 19.2608 12.5958 19.6937 12.71C16.94 12.7297 14.5393 13.6458 12.4917 15.4582C13.9657 15.1002 15.4399 15.1002 16.914 15.4582C16.6252 15.0589 16.3304 14.664 16.0295 14.2736C15.6809 14.2548 15.3335 14.2758 14.9871 14.3368C14.9661 14.3263 14.945 14.3157 14.924 14.3052C15.6417 13.7465 16.4524 13.3938 17.3562 13.247C18.7935 15.2739 20.2307 17.3008 21.6679 19.3277C21.699 19.3674 21.7095 19.4096 21.6995 19.454C18.1525 16.7926 14.2514 16.1029 9.99628 17.385C8.61972 17.8731 7.3562 18.5574 6.20575 19.4382C6.17948 19.46 6.15842 19.4547 6.14258 19.4224C7.96886 16.4136 10.5275 14.2815 13.8184 13.0259C14.7442 12.7051 15.6919 12.5103 16.6613 12.4416Z" fill="#FDD835"/>
</g>
<mask id="mask0_16_1201" style="mask-type:alpha" maskUnits="userSpaceOnUse" x="6" y="8" width="16" height="12">
<g opacity="0.964">
<path fill-rule="evenodd" clip-rule="evenodd" d="M13.8816 8.27209C13.9735 8.32703 14.0525 8.40072 14.1185 8.49321C15.0171 9.71828 15.9279 10.9344 16.8508 12.1416C16.4816 12.178 16.1131 12.2201 15.7452 12.2679C15.4602 12.3292 15.1759 12.3818 14.8924 12.4259C14.5742 11.8864 14.2425 11.3547 13.8974 10.8307C13.4671 11.4123 13.0406 11.9966 12.6181 12.5838C13.0491 12.6222 13.4808 12.659 13.9132 12.6944C12.042 13.248 10.4047 14.1956 9.00127 15.5373C8.99132 15.4928 9.00184 15.4507 9.03285 15.4109C10.6561 13.0351 12.2723 10.6555 13.8816 8.27209Z" fill="#FDD835"/>
<path fill-rule="evenodd" clip-rule="evenodd" d="M16.6613 12.4417C17.2307 12.4319 17.7993 12.4477 18.367 12.4891C18.8186 12.5222 19.2608 12.5959 19.6937 12.7102C16.94 12.7298 14.5393 13.6459 12.4917 15.4583C13.9657 15.1003 15.4399 15.1003 16.914 15.4583C16.6252 15.059 16.3304 14.6642 16.0295 14.2738C15.6809 14.2549 15.3335 14.2759 14.9871 14.3369C14.9661 14.3264 14.945 14.3159 14.924 14.3053C15.6417 13.7466 16.4524 13.3939 17.3562 13.2472C18.7935 15.2741 20.2307 17.3009 21.6679 19.3278C21.699 19.3676 21.7095 19.4097 21.6995 19.4541C18.1525 16.7927 14.2514 16.1031 9.99628 17.3852C8.61972 17.8732 7.3562 18.5576 6.20575 19.4384C6.17948 19.4601 6.15842 19.4548 6.14258 19.4226C7.96886 16.4138 10.5275 14.2816 13.8184 13.026C14.7442 12.7052 15.6919 12.5104 16.6613 12.4417Z" fill="#FDD835"/>
</g>
</mask>
<g mask="url(#mask0_16_1201)">
<path d="M10.2918 13.014L15.8068 7.4989V8.96786L8.30738 16.4673V13.7871L10.2918 13.014Z" fill="white" fill-opacity="0.5"/>
<path d="M15.8068 9.99872L5.67871 20.1268H6.55493L16.013 10.6688L15.8068 9.99872Z" fill="white" fill-opacity="0.5"/>
<path d="M17.7654 11.7769L12.3019 17.2404H12.7916L17.7654 12.2666V11.7769Z" fill="white" fill-opacity="0.5"/>
<path d="M19.2602 11.6739L13.3586 17.5755H15.1625L20.0591 12.6789L19.2602 11.6739Z" fill="white" fill-opacity="0.5"/>
<path d="M20.5487 15.8746L17.5335 18.8898H19.054L21.2188 16.725L20.5487 15.8746Z" fill="white" fill-opacity="0.5"/>
</g>
</g>
<defs>
<clipPath id="clip0_16_1201">
<rect width="27" height="27" fill="white" transform="translate(0.5 0.5)"/>
</clipPath>
</defs>
</svg>
