<svg width="28" height="28" viewBox="0 0 28 28" fill="none" xmlns="http://www.w3.org/2000/svg">
<g clip-path="url(#clip0_16_1173)">
<path d="M21.2304 0.621826L21.2301 0.62151C21.0784 0.469794 20.838 0.459511 20.6704 0.593455C19.2577 1.72291 17.2588 1.75856 15.8098 0.699292C15.5188 0.486564 15.117 0.515145 14.8622 0.770061L0.817663 14.8147C0.565437 15.0669 0.529789 15.467 0.740988 15.7544C0.964737 16.0588 1.13997 16.3876 1.2668 16.7303C1.75195 18.0408 1.52888 19.5541 0.597552 20.6782C0.460496 20.8436 0.468354 21.0849 0.62028 21.2369L0.620438 21.237C0.741937 21.3585 0.924712 21.3892 1.08218 21.3208C1.34859 21.2051 1.67016 21.2562 1.88805 21.4741C2.10595 21.692 2.15705 22.0135 2.0413 22.2799C1.97285 22.4375 2.00365 22.6203 2.12509 22.7417L2.16644 22.783C2.28794 22.9045 2.47071 22.9352 2.62817 22.8668C2.89459 22.7511 3.21616 22.8022 3.43405 23.0201C3.65195 23.238 3.70305 23.5595 3.5873 23.8259C3.51885 23.9835 3.54965 24.1663 3.67109 24.2877L3.71244 24.329C3.83393 24.4505 4.01671 24.4812 4.17417 24.4128C4.44058 24.2971 4.76216 24.3482 4.98005 24.5661C5.19795 24.784 5.24905 25.1055 5.1333 25.3719C5.06485 25.5295 5.09564 25.7123 5.21709 25.8337L5.25843 25.875C5.37993 25.9965 5.56271 26.0272 5.72017 25.9588C5.98658 25.8431 6.30815 25.8942 6.52605 26.1121C6.74395 26.33 6.79505 26.6515 6.67929 26.9179C6.61085 27.0755 6.64164 27.2583 6.76309 27.3797C6.9148 27.5314 7.15617 27.5399 7.32122 27.4026C8.74915 26.2152 10.7942 26.1556 12.265 27.229C12.5555 27.441 12.9565 27.4113 13.2109 27.157L27.2047 13.1632C27.4593 12.9086 27.4882 12.5073 27.276 12.2164C26.2172 10.7647 26.2627 8.75423 27.4061 7.32963C27.5405 7.16214 27.5303 6.92147 27.3784 6.76964C27.2554 6.64662 27.0706 6.61624 26.9107 6.68474C26.645 6.7986 26.3252 6.74707 26.1082 6.53008C25.8913 6.31313 25.8397 5.99335 25.9536 5.72757C26.0221 5.56768 25.9917 5.38285 25.8687 5.25987L25.8325 5.22375C25.7095 5.10072 25.5247 5.07035 25.3649 5.13885C25.0991 5.2527 24.7793 5.20118 24.5623 4.98418C24.3454 4.76723 24.2938 4.44746 24.4077 4.18168C24.4762 4.02179 24.4458 3.83696 24.3228 3.71398L24.2867 3.67786C24.1636 3.55483 23.9788 3.52446 23.819 3.59296C23.5532 3.70681 23.2334 3.65529 23.0165 3.43829C22.7995 3.22129 22.7479 2.90156 22.8618 2.63578C22.9303 2.4759 22.8999 2.29106 22.7769 2.16809L22.7408 2.13197C22.6177 2.00894 22.433 1.97856 22.2731 2.04706C22.0073 2.16092 21.6875 2.1094 21.4706 1.8924C21.2536 1.6754 21.202 1.35567 21.3159 1.08989C21.3839 0.929581 21.3534 0.744854 21.2304 0.621826Z" fill="#D9B43A"/>
<path d="M4.24375 11.3884L0.817473 14.8147C0.565247 15.0669 0.529546 15.467 0.740798 15.7544C0.939077 16.0243 1.09923 16.3134 1.22141 16.6143L18.9915 21.3757L23.7517 16.6155L4.24375 11.3884Z" fill="#BB9430"/>
<path d="M4.2439 11.3885L23.7518 16.6156L27.2043 13.1632C27.4589 12.9085 27.4878 12.5073 27.2756 12.2163C27.0888 11.9601 26.937 11.6864 26.819 11.4016L9.00418 6.62817L4.2439 11.3885Z" fill="#E2C35A"/>
<path d="M15.2829 3.44129L3.49362 15.2305C3.2916 15.4324 3.22916 15.7328 3.32667 16.0013C3.73958 17.1384 3.80934 18.3732 3.53602 19.5432C3.47875 19.7885 3.55179 20.0459 3.72987 20.2241L7.76739 24.2616C7.94652 24.4408 8.20576 24.5135 8.45214 24.4546C9.63237 24.1719 10.8781 24.237 12.0237 24.6505C12.2917 24.7472 12.5913 24.6844 12.7928 24.4829L24.5349 12.7408C24.7361 12.5396 24.7988 12.2408 24.703 11.9728C24.3026 10.8529 24.2325 9.63483 24.4933 8.4769C24.5476 8.23607 24.4706 7.98442 24.2961 7.80977L20.1815 3.695C20.0079 3.5214 19.7581 3.44435 19.5183 3.49693C18.3684 3.7491 17.1586 3.67353 16.0453 3.27165C15.7795 3.17578 15.4826 3.24164 15.2829 3.44129Z" fill="#E2C35A"/>
<path d="M6.68231 12.0419L3.4936 15.2305C3.29169 15.4324 3.22914 15.7328 3.32665 16.0013C3.47552 16.4113 3.57909 16.8342 3.63878 17.262L16.5531 20.7224L21.3134 15.9622L6.68231 12.0419Z" fill="#D9B43A"/>
<path d="M6.68237 12.0419L21.3134 15.9622L24.5349 12.7407C24.7361 12.5395 24.7988 12.2407 24.703 11.9728C24.5614 11.5765 24.4619 11.168 24.403 10.7542L11.4427 7.28162L6.68237 12.0419Z" fill="#EBD37A"/>
<path d="M19.1767 5.98896L17.6308 7.53491C17.4173 7.74838 17.4173 8.09447 17.6308 8.30794C17.8443 8.5214 18.1904 8.5214 18.4038 8.30794L18.7903 7.92145L20.4651 9.59622C20.6786 9.80969 21.0246 9.80969 21.2381 9.59622C21.4516 9.38276 21.4516 9.03666 21.2381 8.8232L19.5633 7.14842L19.9498 6.76194C20.1633 6.54847 20.1633 6.20238 19.9498 5.98891C19.7363 5.7755 19.3902 5.7755 19.1767 5.98896Z" fill="#644D2D"/>
<path d="M15.8272 9.33854C15.0459 10.1199 15.0459 11.3914 15.8272 12.1728C16.6086 12.9541 17.8801 12.9541 18.6615 12.1728C18.9105 11.9238 19.09 11.613 19.1805 11.2741C19.2584 10.9825 19.0851 10.6829 18.7934 10.605C18.5017 10.5272 18.2022 10.7004 18.1243 10.9921C18.0833 11.1455 18.0018 11.2865 17.8885 11.3999C17.6782 11.6102 17.3899 11.696 17.1158 11.6572L18.6615 10.1116C18.8749 9.8981 18.8749 9.55201 18.6615 9.33854C17.8801 8.55708 16.6086 8.55708 15.8272 9.33854ZM16.3428 10.8842C16.304 10.6102 16.3899 10.3218 16.6002 10.1115C16.8104 9.90126 17.0987 9.81541 17.3728 9.85417L16.3428 10.8842Z" fill="#644D2D"/>
<path d="M14.9566 13.0433V11.5286C14.9566 11.2268 14.7118 10.9821 14.41 10.9821C14.1081 10.9821 13.8634 11.2268 13.8634 11.5286V13.301L13.2505 12.6881C13.037 12.4746 12.6909 12.4746 12.4775 12.6881C12.264 12.9016 12.264 13.2477 12.4775 13.4611L14.5387 15.5224C14.7522 15.7359 15.0983 15.7359 15.3118 15.5224C15.5252 15.3089 15.5252 14.9628 15.3118 14.7494L14.9566 14.3941V14.1364H16.4712C16.6222 14.1364 16.7588 14.0753 16.8577 13.9763C16.9566 13.8775 17.0178 13.7408 17.0178 13.5899C17.0178 13.288 16.7731 13.0433 16.4712 13.0433L14.9566 13.0433Z" fill="#644D2D"/>
<path d="M11.4985 15.2217C11.6695 15.0508 11.8967 14.9567 12.1384 14.9567C12.4403 14.9567 12.685 14.712 12.685 14.4101C12.685 14.1083 12.4403 13.8635 12.1384 13.8635C11.0366 13.8635 10.1404 14.7598 10.1404 15.8616C10.1404 16.9632 11.0368 17.8595 12.1384 17.8596C12.6893 17.8596 13.1888 17.6355 13.5506 17.2737C13.9124 16.912 14.1365 16.4124 14.1365 15.8616C14.1365 15.5598 13.8918 15.315 13.5899 15.315C13.2881 15.315 13.0433 15.5598 13.0433 15.8616C13.0433 16.1033 12.9491 16.3306 12.7783 16.5015C12.6074 16.6724 12.3801 16.7665 12.1385 16.7665C11.6396 16.7665 11.2336 16.3605 11.2336 15.8616C11.2335 15.6199 11.3276 15.3926 11.4985 15.2217Z" fill="#644D2D"/>
<path d="M8.61274 16.5529C8.39927 16.7663 8.39927 17.1124 8.61274 17.3259L10.674 19.3872C10.8875 19.6006 11.2336 19.6006 11.447 19.3872C11.6605 19.1737 11.6605 18.8276 11.447 18.6141L9.38576 16.5529C9.1723 16.3395 8.8262 16.3395 8.61274 16.5529Z" fill="#644D2D"/>
<path d="M7.55639 17.6093L6.01044 19.1553C5.79698 19.3688 5.79698 19.7149 6.01044 19.9283C6.22391 20.1418 6.57 20.1418 6.78347 19.9283L7.16995 19.5418L8.84473 21.2166C9.0582 21.4301 9.40429 21.4301 9.61775 21.2166C9.83122 21.0031 9.83122 20.657 9.61775 20.4436L7.94293 18.7688L8.32941 18.3823C8.54288 18.1689 8.54288 17.8228 8.32941 17.6093C8.11595 17.3958 7.7698 17.3959 7.55639 17.6093Z" fill="#644D2D"/>
<path d="M5.98574 14.9992L6.47263 15.2589L6.85917 14.8723C6.99248 14.739 7.2215 14.8536 7.19777 15.0417L7.12626 15.6075L7.63209 15.8773C7.80379 15.9689 7.76007 16.2252 7.56854 16.2494L7.03667 16.3166L6.96949 16.8484C6.94528 17.04 6.68905 17.0837 6.59745 16.912L6.32766 16.4061L5.76183 16.4777C5.57373 16.5014 5.45908 16.2724 5.59245 16.1391L5.97899 15.7525L5.71932 15.2656C5.62688 15.0921 5.81229 14.9067 5.98574 14.9992Z" fill="#9E7325"/>
<path d="M9.07753 11.9074L9.56442 12.1671L9.95096 11.7805C10.0843 11.6472 10.3133 11.7618 10.2896 11.9499L10.2181 12.5157L10.7239 12.7855C10.8956 12.8771 10.8519 13.1334 10.6603 13.1576L10.1285 13.2248L10.0613 13.7566C10.0371 13.9482 9.78084 13.9919 9.68925 13.8202L9.41946 13.3144L8.85362 13.3859C8.66552 13.4096 8.55088 13.1806 8.68424 13.0473L9.07078 12.6607L8.81112 12.1738C8.71868 12.0002 8.90409 11.8149 9.07753 11.9074Z" fill="#9E7325"/>
<path d="M12.1696 8.81537L12.6565 9.07503L13.043 8.68849C13.1763 8.55518 13.4053 8.66977 13.3816 8.85787L13.3101 9.42371L13.8159 9.69349C13.9876 9.78509 13.9439 10.0413 13.7524 10.0655L13.2205 10.1327L13.1533 10.6646C13.1291 10.8561 12.8729 10.8998 12.7813 10.7281L12.5115 10.2223L11.9457 10.2938C11.7576 10.3176 11.6429 10.0885 11.7763 9.95521L12.1628 9.56867L11.9032 9.08178C11.8107 8.90829 11.996 8.72287 12.1696 8.81537Z" fill="#9E7325"/>
<path d="M15.2614 5.72357L15.7483 5.98324L16.1348 5.5967C16.2681 5.46338 16.4971 5.57798 16.4734 5.76608L16.4019 6.33191L16.9077 6.6017C17.0794 6.6933 17.0357 6.94953 16.8442 6.97373L16.3123 7.04092L16.2451 7.57279C16.2209 7.76432 15.9647 7.80804 15.8731 7.63634L15.6033 7.13051L15.0375 7.20202C14.8494 7.2258 14.7347 6.99673 14.8681 6.86342L15.2546 6.47688L14.995 5.98998C14.9026 5.81649 15.0879 5.63108 15.2614 5.72357Z" fill="#9E7325"/>
<path d="M11.6542 20.6677L12.1411 20.9273L12.5276 20.5408C12.6609 20.4075 12.89 20.5221 12.8662 20.7102L12.7947 21.276L13.3005 21.5458C13.4722 21.6374 13.4285 21.8936 13.237 21.9178L12.7051 21.985L12.6379 22.5169C12.6137 22.7084 12.3575 22.7521 12.2659 22.5804L11.9961 22.0746L11.4303 22.1461C11.2422 22.1699 11.1275 21.9408 11.2609 21.8075L11.6474 21.421L11.3878 20.9341C11.2953 20.7605 11.4807 20.5752 11.6542 20.6677Z" fill="#9E7325"/>
<path d="M14.746 17.5759L15.2329 17.8355L15.6194 17.449C15.7527 17.3157 15.9818 17.4303 15.958 17.6184L15.8865 18.1842L16.3923 18.454C16.564 18.5456 16.5203 18.8018 16.3288 18.826L15.7969 18.8932L15.7297 19.4251C15.7055 19.6166 15.4493 19.6603 15.3577 19.4886L15.0879 18.9828L14.5221 19.0543C14.334 19.0781 14.2193 18.849 14.3527 18.7157L14.7392 18.3292L14.4796 17.8423C14.3872 17.6687 14.5725 17.4833 14.746 17.5759Z" fill="#9E7325"/>
<path d="M17.8378 14.4838L18.3247 14.7435L18.7113 14.357C18.8446 14.2236 19.0736 14.3382 19.0499 14.5263L18.9784 15.0922L19.4842 15.362C19.6559 15.4535 19.6122 15.7098 19.4206 15.734L18.8887 15.8012L18.8215 16.333C18.7973 16.5246 18.5411 16.5683 18.4495 16.3966L18.1797 15.8908L17.6139 15.9623C17.4258 15.9861 17.3111 15.757 17.4445 15.6237L17.831 15.2371L17.5714 14.7502C17.479 14.5767 17.6644 14.3913 17.8378 14.4838Z" fill="#9E7325"/>
<path d="M20.9298 11.392L21.4167 11.6517L21.8033 11.2652C21.9366 11.1318 22.1656 11.2464 22.1419 11.4345L22.0704 12.0004L22.5762 12.2702C22.7479 12.3618 22.7042 12.618 22.5126 12.6422L21.9808 12.7094L21.9136 13.2412C21.8894 13.4328 21.6331 13.4765 21.5415 13.3048L21.2718 12.799L20.7059 12.8705C20.5178 12.8943 20.4032 12.6652 20.5365 12.5319L20.9231 12.1453L20.6634 11.6584C20.571 11.4848 20.7564 11.2995 20.9298 11.392Z" fill="#9E7325"/>
</g>
<defs>
<clipPath id="clip0_16_1173">
<rect width="27" height="27" fill="white" transform="translate(0.5 0.5)"/>
</clipPath>
</defs>
</svg>
