<svg width="28" height="28" viewBox="0 0 28 28" fill="none" xmlns="http://www.w3.org/2000/svg">
<g clip-path="url(#clip0_16_1168)">
<path d="M14 27.5C21.4558 27.5 27.5 21.4558 27.5 14C27.5 6.54416 21.4558 0.5 14 0.5C6.54416 0.5 0.5 6.54416 0.5 14C0.5 21.4558 6.54416 27.5 14 27.5Z" fill="#B5B5B5"/>
<path opacity="0.5" d="M14 0.5C6.54441 0.5 0.5 6.54441 0.5 14C0.5 21.4556 6.54441 27.5 14 27.5C21.4556 27.5 27.5 21.4556 27.5 14C27.5 6.54441 21.4556 0.5 14 0.5ZM14 26.9199C6.86451 26.9199 1.08008 21.1355 1.08008 14C1.08008 6.86451 6.86451 1.08008 14 1.08008C21.1355 1.08008 26.9199 6.86451 26.9199 14C26.9199 21.1355 21.1355 26.9199 14 26.9199Z" fill="white"/>
<path opacity="0.5" d="M19.3863 1.61747L1.61747 19.3863C1.01019 17.9915 0.644449 16.5036 0.535889 14.9862L14.9862 0.535889C16.5402 0.647686 18.0226 1.02368 19.3863 1.61747ZM25.7645 7.37396L7.37396 25.7645C6.23395 25.1208 5.19323 24.3153 4.28425 23.373L23.373 4.28425C24.3117 5.19022 25.1196 6.23015 25.7645 7.37396ZM22.8214 3.78116L3.78063 22.8214C3.48232 22.4766 3.20193 22.1166 2.94058 21.743L21.743 2.94058C22.1164 3.20214 22.4766 3.48269 22.8214 3.78116ZM27.0766 10.6314L10.6314 27.0766C10.1346 26.949 9.64944 26.7939 9.17589 26.613L26.6125 9.17642C26.7934 9.64944 26.949 10.1351 27.076 10.6319L27.0766 10.6314Z" fill="white"/>
<path opacity="0.5" d="M24.9671 14.5844C24.9671 20.4257 20.2311 25.1618 14.3897 25.1618C11.108 25.1618 8.17439 23.6673 6.23535 21.3212C8.16701 23.4095 10.9313 24.7167 14 24.7167C19.8413 24.7167 24.5774 19.9807 24.5774 14.1393C24.5774 11.5801 23.6683 9.23235 22.1548 7.40247C23.9008 9.2893 24.9671 11.8121 24.9671 14.5844Z" fill="white"/>
<path d="M14.0001 24.7167C19.8418 24.7167 24.5775 19.981 24.5775 14.1392C24.5775 8.29746 19.8418 3.56177 14.0001 3.56177C8.1583 3.56177 3.42261 8.29746 3.42261 14.1392C3.42261 19.981 8.1583 24.7167 14.0001 24.7167Z" fill="#777777"/>
<path d="M22.0157 7.23735C20.1631 5.64056 17.7511 4.67552 15.1138 4.67552C9.27243 4.67552 4.53636 9.41159 4.53636 15.253C4.53636 17.8902 5.50192 20.3023 7.09819 22.1549C4.84749 20.2148 3.42261 17.3434 3.42261 14.1392C3.42261 8.29784 8.15868 3.56177 14.0001 3.56177C17.2037 3.56177 20.0756 4.98612 22.0157 7.23735Z" fill="#5C5C5C"/>
<path d="M20.6219 11.7825C20.5233 11.1628 20.3097 10.5912 19.9796 10.0681C19.5087 9.32242 18.8448 8.74761 17.9863 8.34314C17.1278 7.93919 16.1453 7.73669 15.0389 7.73669H9.29301V14.6059H7.31494V17.3001H9.29301V17.8469H7.31494V20.5311H9.29301V22.2112H12.7824V20.5311H15.8938V17.8469H12.7824V17.3001H14.9693C16.7191 17.3001 18.1091 16.8793 19.1396 16.0376C20.17 15.196 20.6852 14.0495 20.6852 12.5977V11.7624L20.6219 11.7814V11.7825ZM14.9192 14.6064H12.7819V10.4409H15.0685C15.7113 10.4478 16.2181 10.6497 16.5893 11.0474C16.9606 11.445 17.1462 11.9686 17.1462 12.6178C17.1462 13.9435 16.4037 14.6059 14.9192 14.6059V14.6064Z" fill="#464646"/>
<path d="M15.8938 19.6964H12.7824V21.3765H9.29301V19.6964H7.31494V17.0122H9.29301V16.4654H7.31494V13.7712H9.29301V6.90198H15.0389C16.1458 6.90198 17.1283 7.10395 17.9863 7.50842C18.8443 7.9129 19.5087 8.4877 19.9796 9.23336C20.45 9.97903 20.6852 10.8223 20.6852 11.7636C20.6852 13.2148 20.17 14.3618 19.1396 15.2034C18.1091 16.0451 16.7191 16.4659 14.9693 16.4659H12.7824V17.0127H15.8938V19.6969V19.6964ZM12.7824 13.7717H14.9198C16.4042 13.7717 17.1467 13.1088 17.1467 11.7836C17.1467 11.1344 16.9611 10.6108 16.5899 10.2132C16.2186 9.81555 15.7118 9.61358 15.069 9.60672H12.7824V13.7722V13.7717Z" fill="#B5B5B5"/>
<path opacity="0.5" d="M14.1014 6.90186L9.29305 11.7102V6.90186H14.1014ZM20.6858 11.7629C20.6858 12.0192 20.6694 12.2649 20.6373 12.5017L16.8699 16.2691C16.292 16.4004 15.6586 16.4658 14.9694 16.4658H12.782V17.0126H15.8938V17.2452L13.4427 19.6963H12.782V20.357L11.7626 21.3764H9.29305V19.6963H7.9615L13.8862 13.7716H14.9193C16.4032 13.7716 17.1462 13.1092 17.1462 11.7835C17.1462 11.3822 17.0756 11.0294 16.9337 10.724L19.2783 8.37947C19.5467 8.63365 19.7798 8.91842 19.9791 9.23324C20.4495 9.97943 20.6853 10.8227 20.6853 11.7634L20.6858 11.7629ZM12.782 13.771H12.831L7.31445 19.2876V17.3691L7.67147 17.0121H9.29305V16.4658H8.21832L12.782 11.9016V13.771ZM18.6929 7.90908L16.4897 10.1123C16.1311 9.78221 15.6602 9.61346 15.078 9.60555L17.4099 7.27363C17.6082 7.34219 17.8002 7.42023 17.9868 7.50777C18.2389 7.62643 18.4746 7.76037 18.6935 7.90855L18.6929 7.90908Z" fill="white"/>
<path opacity="0.25" d="M22.8215 8.30147C15.9718 10.7062 10.4748 15.9875 7.7806 22.6953C7.54487 22.5239 7.31653 22.3425 7.09663 22.1522C5.50089 20.3001 4.53638 17.8886 4.53638 15.2524C4.53638 9.411 9.27245 4.67493 15.1138 4.67493C17.75 4.67493 20.1616 5.63944 22.0136 7.23518C22.3047 7.57268 22.5747 7.92864 22.822 8.30147H22.8215Z" fill="white"/>
</g>
<defs>
<clipPath id="clip0_16_1168">
<rect width="27" height="27" fill="white" transform="translate(0.5 0.5)"/>
</clipPath>
</defs>
</svg>
