<svg width="104" height="103" viewBox="0 0 104 103" fill="none" xmlns="http://www.w3.org/2000/svg">
<circle opacity="0.1" cx="52" cy="51.5" r="51.5" fill="#D9D9D9"/>
<path d="M51.2363 41.0215L50.5292 40.3144L50.5291 40.3144L51.2363 41.0215ZM71.4718 32.0283L72.4688 31.9516C72.431 31.4598 72.0403 31.0691 71.5485 31.0312L71.4718 32.0283ZM62.4783 52.2636L63.1854 52.9707L63.1854 52.9707L62.4783 52.2636ZM45.9901 64.2551L45.283 64.9622C45.5658 65.245 45.99 65.3321 46.3615 65.1835L45.9901 64.2551ZM39.2449 57.5099L38.3164 57.1385C38.1679 57.5099 38.2549 57.9341 38.5378 58.217L39.2449 57.5099ZM50.4444 54.4697C50.8349 54.0792 50.8349 53.446 50.4444 53.0555C50.0539 52.665 49.4207 52.665 49.0302 53.0555L50.4444 54.4697ZM38.5378 63.548C38.1473 63.9385 38.1473 64.5716 38.5378 64.9622C38.9283 65.3527 39.5615 65.3527 39.952 64.9622L38.5378 63.548ZM58.228 57.4193C58.178 56.8693 57.6916 56.464 57.1415 56.514C56.5915 56.564 56.1862 57.0504 56.2362 57.6004L58.228 57.4193ZM57.6478 62.0823L58.6437 61.9917L58.6437 61.9917L57.6478 62.0823ZM54.9613 67.868L55.5347 68.6872L55.5348 68.6872L54.9613 67.868ZM50.4869 71L49.4879 71.0434C49.5037 71.4082 49.7171 71.7353 50.0445 71.8968C50.3719 72.0583 50.7613 72.0286 51.0604 71.8192L50.4869 71ZM51.1113 62.3377C51.0873 61.786 50.6206 61.3581 50.0688 61.3821C49.5171 61.4061 49.0892 61.8728 49.1132 62.4246L51.1113 62.3377ZM45.8995 47.2637C46.4495 47.3137 46.9359 46.9083 46.986 46.3583C47.036 45.8083 46.6306 45.3219 46.0806 45.2719L45.8995 47.2637ZM41.4177 45.852L41.5082 44.8561L41.5082 44.8561L41.4177 45.852ZM35.632 48.5386L36.4512 49.1121L36.4512 49.112L35.632 48.5386ZM32.5 53.013L31.6808 52.4395C31.4714 52.7386 31.4417 53.128 31.6032 53.4554C31.7647 53.7828 32.0918 53.9962 32.4566 54.012L32.5 53.013ZM41.0754 54.3867C41.6271 54.4107 42.0939 53.9828 42.1178 53.4311C42.1418 52.8793 41.714 52.4126 41.1622 52.3886L41.0754 54.3867ZM51.9434 41.7286C54.8309 38.8413 58.5545 36.5652 62.1611 35.0587C65.7897 33.543 69.1813 32.8549 71.395 33.0253L71.5485 31.0312C68.8907 30.8267 65.1625 31.6375 61.3902 33.2132C57.5959 34.7982 53.6375 37.2062 50.5292 40.3144L51.9434 41.7286ZM70.4747 32.105C70.645 34.3186 69.9569 37.7102 68.4411 41.3389C66.9346 44.9455 64.6585 48.6691 61.7712 51.5565L63.1854 52.9707C66.2936 49.8625 68.7016 45.9041 70.2866 42.1098C71.8624 38.3375 72.6732 34.6093 72.4688 31.9516L70.4747 32.105ZM61.7712 51.5565C55.8354 57.492 49.2005 61.8938 45.6187 63.3266L46.3615 65.1835C50.2741 63.6184 57.1295 59.0264 63.1854 52.9707L61.7712 51.5565ZM46.6972 63.548L39.952 56.8028L38.5378 58.217L45.283 64.9622L46.6972 63.548ZM40.1734 57.8813C41.6062 54.2994 46.0079 47.6644 51.9434 41.7286L50.5291 40.3144C44.4735 46.3703 39.8815 53.2258 38.3164 57.1385L40.1734 57.8813ZM49.0302 53.0555L38.5378 63.548L39.952 64.9622L50.4444 54.4697L49.0302 53.0555ZM62.1459 44.4364C61.2947 45.2877 59.9146 45.2877 59.0634 44.4364L57.6492 45.8507C59.2815 47.4829 61.9279 47.4829 63.5602 45.8507L62.1459 44.4364ZM59.0634 44.4364C58.2122 43.5852 58.2122 42.2051 59.0634 41.3539L57.6492 39.9397C56.0169 41.5719 56.0169 44.2184 57.6492 45.8507L59.0634 44.4364ZM59.0634 41.3539C59.9146 40.5027 61.2947 40.5027 62.1459 41.3539L63.5602 39.9397C61.9279 38.3074 59.2815 38.3074 57.6492 39.9397L59.0634 41.3539ZM62.1459 41.3539C62.9972 42.2051 62.9972 43.5852 62.1459 44.4364L63.5602 45.8507C65.1924 44.2184 65.1924 41.5719 63.5602 39.9397L62.1459 41.3539ZM56.2362 57.6004L56.6519 62.1728L58.6437 61.9917L58.228 57.4193L56.2362 57.6004ZM56.6519 62.1728C56.8259 64.0865 55.962 65.9467 54.3878 67.0488L55.5348 68.6872C57.6962 67.174 58.8826 64.6197 58.6437 61.9917L56.6519 62.1728ZM54.3878 67.0488L49.9135 70.1808L51.0604 71.8192L55.5347 68.6872L54.3878 67.0488ZM51.486 70.9566L51.1113 62.3377L49.1132 62.4246L49.4879 71.0434L51.486 70.9566ZM46.0806 45.2719L41.5082 44.8561L41.3271 46.8479L45.8995 47.2637L46.0806 45.2719ZM41.5082 44.8561C40.2173 44.7388 38.9182 44.9645 37.7425 45.5104L38.5848 47.3244C39.441 46.9268 40.387 46.7624 41.3271 46.8479L41.5082 44.8561ZM37.7425 45.5104C36.5667 46.0564 35.5561 46.9032 34.8127 47.9652L36.4512 49.112C36.9926 48.3386 37.7286 47.722 38.5848 47.3244L37.7425 45.5104ZM34.8127 47.9651L31.6808 52.4395L33.3192 53.5864L36.4512 49.1121L34.8127 47.9651ZM32.4566 54.012L41.0754 54.3867L41.1622 52.3886L32.5434 52.0139L32.4566 54.012Z" fill="white"/>
</svg>
