<svg width="24" height="24" viewBox="0 0 24 24" fill="none" xmlns="http://www.w3.org/2000/svg">
<path fill-rule="evenodd" clip-rule="evenodd" d="M6.51558 2.94477L2.94114 2.927L2.46121 2.93336L2.49231 5.0733C2.5909 5.06154 2.6926 5.06304 2.79323 5.06452C2.82798 5.06503 2.8626 5.06554 2.89692 5.0655L4.6162 5.06558C4.667 5.06559 4.7179 5.06525 4.76885 5.06491C4.93128 5.06382 5.09421 5.06274 5.25584 5.07293L5.25621 7.73757L5.83956 7.7445L5.8531 9.6669L6.47481 9.67399L6.48576 11.5884L7.06968 11.5915L7.07163 14.0657L5.67149 14.0676L5.67861 19.0344H8.09864L8.1091 20.3328C8.10911 20.3916 8.10737 20.4523 8.10561 20.5135C8.10169 20.6501 8.09768 20.7896 8.11285 20.9187L11.5251 20.9179L11.5275 19.0343L14.6421 19.0341L14.6449 20.9165L18.1103 20.921L18.1211 16.5445L12.7878 16.5172L7.7404 16.5263L7.74963 15.4477L18.7545 15.452L18.7555 13.4016L19.1341 13.4182C19.1477 13.4187 19.1615 13.4191 19.1752 13.4194C19.2391 13.4209 19.3037 13.4225 19.3647 13.4417L19.3655 11.4974L19.9253 11.5302C19.9367 11.4549 19.9339 11.3802 19.9311 11.305C19.93 11.2766 19.929 11.248 19.9287 11.2194L19.9274 9.65423L20.5234 9.65895L20.5299 7.72935L20.9374 7.73719C20.949 7.7371 20.9616 7.73749 20.9748 7.7379C21.0125 7.73906 21.0543 7.74034 21.0855 7.73089L21.0788 5.78246L6.50691 5.7744L6.51558 2.94477ZM8 7.7445L18.2907 7.72935L16.3742 13.4016L9.23996 14.0676L8 7.7445Z" fill="white"/>
</svg>
