<svg width="24" height="25" viewBox="0 0 24 25" fill="none" xmlns="http://www.w3.org/2000/svg">
<path d="M22 8.5V7.5H21V6.5H20V5.5H19V4.5H18V3.5H17V2.5H16V1.5H8V2.5H7V3.5H6V4.5H5V5.5H4V6.5H3V7.5H2V8.5H1V16.5H2V17.5H3V18.5H4V19.5H5V20.5H6V21.5H7V22.5H8V23.5H16V22.5H17V21.5H18V20.5H19V19.5H20V18.5H21V17.5H22V16.5H23V8.5H22ZM16 17.5H14V16.5H13V15.5H11V16.5H10V17.5H8V16.5H7V14.5H8V13.5H9V11.5H8V10.5H7V8.5H8V7.5H10V8.5H11V9.5H13V8.5H14V7.5H16V8.5H17V10.5H16V11.5H15V13.5H16V14.5H17V16.5H16V17.5Z" fill="white"/>
</svg>
