<svg width="24" height="24" viewBox="0 0 24 24" fill="none" xmlns="http://www.w3.org/2000/svg">
<g clip-path="url(#clip0_367_897)">
<path d="M22.86 6.28874H21.72V7.42874H22.86V12.0037H20.5725V13.1437H22.86V17.7112H21.72V18.8587H22.86V19.9987H24V5.14124H22.86V6.28874Z" fill="white"/>
<path d="M22.86 19.9988H21.72V21.1463H22.86V19.9988Z" fill="white"/>
<path d="M22.86 2.85376H21.72V5.14126H22.86V2.85376Z" fill="white"/>
<path d="M21.72 21.1462H20.5725V22.2862H21.72V21.1462Z" fill="white"/>
<path d="M21.72 15.4313H20.5725V17.7113H21.72V15.4313Z" fill="white"/>
<path d="M21.72 7.42871H20.5725V9.71621H21.72V7.42871Z" fill="white"/>
<path d="M20.5725 9.71619H19.4325V10.8562H20.5725V9.71619Z" fill="white"/>
<path d="M21.72 1.71375H19.4325V2.85375H21.72V1.71375Z" fill="white"/>
<path d="M20.5725 22.2863H14.8575V23.4263H20.5725V22.2863Z" fill="white"/>
<path d="M19.4325 13.1437H18.2925V14.2837H19.4325V13.1437Z" fill="white"/>
<path d="M19.4325 6.2887H18.2925V7.4287H19.4325V6.2887Z" fill="white"/>
<path d="M19.4325 4.00122H18.2925V5.14122H19.4325V4.00122Z" fill="white"/>
<path d="M19.4325 18.8588H17.145V19.9988H19.4325V18.8588Z" fill="white"/>
<path d="M18.2925 7.42871H17.145V8.56871H18.2925V7.42871Z" fill="white"/>
<path d="M17.145 19.9988H16.005V21.1463H17.145V19.9988Z" fill="white"/>
<path d="M17.145 14.2837H16.005V15.4312H17.145V14.2837Z" fill="white"/>
<path d="M18.2925 12.0038H16.005V13.1438H18.2925V12.0038Z" fill="white"/>
<path d="M16.005 15.4313H14.8575V17.7113H16.005V15.4313Z" fill="white"/>
<path d="M16.005 4.00122H14.8575V5.14122H16.005V4.00122Z" fill="white"/>
<path d="M16.005 4.00123H17.145V1.71373H19.4325V0.57373H13.7175V1.71373H16.005V4.00123Z" fill="white"/>
<path d="M14.8575 21.1462H12.5775V22.2862H14.8575V21.1462Z" fill="white"/>
<path d="M13.7175 1.71375H12.5775V2.85375H13.7175V1.71375Z" fill="white"/>
<path d="M12.5775 15.4313H14.8575V14.2838H12.5775V9.71626H14.8575V12.0038H16.005V9.71626H17.145V8.56876H12.5775V2.85376H11.43V5.14126H9.15002V6.28876H11.43V10.8563H10.29V12.0038H11.43V16.5713H10.29V17.7113H11.43V21.1463H12.5775V15.4313Z" fill="white"/>
<path d="M11.43 1.71375H10.29V2.85375H11.43V1.71375Z" fill="white"/>
<path d="M11.43 21.1462H9.15002V22.2862H11.43V21.1462Z" fill="white"/>
<path d="M10.29 14.2837H9.15002V16.5712H10.29V14.2837Z" fill="white"/>
<path d="M10.29 9.71619H9.15002V10.8562H10.29V9.71619Z" fill="white"/>
<path d="M9.14994 4.00122H8.00244V5.14122H9.14994V4.00122Z" fill="white"/>
<path d="M9.15006 22.2863H3.43506V23.4263H9.15006V22.2863Z" fill="white"/>
<path d="M8.00255 13.1437H6.86255V14.2837H8.00255V13.1437Z" fill="white"/>
<path d="M8.00255 2.85376H6.86255V4.00126H8.00255V2.85376Z" fill="white"/>
<path d="M6.86248 15.4313H5.71498V16.5713H4.57498V15.4313H3.43498V16.5713H2.28748V17.7113H3.43498V18.8588H4.57498V19.9988H5.71498V18.8588H6.86248V17.7113H8.00248V16.5713H6.86248V15.4313Z" fill="white"/>
<path d="M6.86247 7.42871H5.71497V9.71621H6.86247V7.42871Z" fill="white"/>
<path d="M10.29 0.57373H4.57495V1.71373H10.29V0.57373Z" fill="white"/>
<path d="M5.71495 6.2887H4.57495V7.4287H5.71495V6.2887Z" fill="white"/>
<path d="M5.71506 10.8562H3.43506V12.0037H5.71506V10.8562Z" fill="white"/>
<path d="M4.57498 1.71375H2.28748V2.85375H4.57498V1.71375Z" fill="white"/>
<path d="M3.43498 21.1462H2.28748V22.2862H3.43498V21.1462Z" fill="white"/>
<path d="M3.43498 9.71619H2.28748V10.8562H3.43498V9.71619Z" fill="white"/>
<path d="M4.57498 5.14124H2.28748V6.28874H4.57498V5.14124Z" fill="white"/>
<path d="M2.28746 19.9988H1.14746V21.1463H2.28746V19.9988Z" fill="white"/>
<path d="M2.28746 2.85376H1.14746V5.14126H2.28746V2.85376Z" fill="white"/>
<path d="M1.1475 14.2837H3.435V13.1437H1.1475V9.71624H2.2875V8.56874H1.1475V5.14124H0V19.9987H1.1475V14.2837Z" fill="white"/>
</g>
<defs>
<clipPath id="clip0_367_897">
<rect width="24" height="24" fill="white"/>
</clipPath>
</defs>
</svg>
