<svg width="27" height="27" viewBox="0 0 27 27" fill="none" xmlns="http://www.w3.org/2000/svg">
    <g clip-path="url(#clip0_16_1502)">
        <path d="M13.4415 26.5C20.6212 26.5 26.4415 20.6797 26.4415 13.5C26.4415 6.3203 20.6212 0.5 13.4415 0.5C6.26183 0.5 0.441528 6.3203 0.441528 13.5C0.441528 20.6797 6.26183 26.5 13.4415 26.5Z"
              fill="#FDD835"/>
        <path opacity="0.5"
              d="M13.4415 0.5C6.26207 0.5 0.441528 6.32055 0.441528 13.5C0.441528 20.6795 6.26207 26.5 13.4415 26.5C20.621 26.5 26.4415 20.6795 26.4415 13.5C26.4415 6.32055 20.621 0.5 13.4415 0.5ZM13.4415 25.9414C6.57032 25.9414 1.00012 20.3712 1.00012 13.5C1.00012 6.62879 6.57032 1.05859 13.4415 1.05859C20.3127 1.05859 25.8829 6.62879 25.8829 13.5C25.8829 20.3712 20.3127 25.9414 13.4415 25.9414Z"
              fill="white"/>
        <path opacity="0.5"
              d="M18.6283 1.57595L1.51758 18.6867C0.93279 17.3435 0.580598 15.9107 0.476059 14.4495L14.3911 0.534424C15.8877 0.64208 17.3151 1.00415 18.6283 1.57595ZM24.7703 7.11923L7.06086 24.8287C5.96308 24.2088 4.96091 23.4331 4.08559 22.5258L22.4674 4.14396C23.3713 5.01638 24.1493 6.01778 24.7703 7.11923ZM21.9362 3.6595L3.60063 21.9946C3.31336 21.6625 3.04336 21.3159 2.79168 20.9561L20.8977 2.85005C21.2573 3.10192 21.6041 3.37208 21.9362 3.6595ZM26.0338 10.256L10.1976 26.0921C9.71926 25.9692 9.25208 25.8199 8.79606 25.6458L25.5869 8.85493C25.7611 9.31044 25.9109 9.77814 26.0332 10.2565L26.0338 10.256Z"
              fill="white"/>
        <path opacity="0.5"
              d="M24.0025 14.0626C24.0025 19.6877 19.4418 24.2483 13.8168 24.2483C10.6567 24.2483 7.83173 22.8092 5.9645 20.5499C7.82462 22.5609 10.4866 23.8197 13.4415 23.8197C19.0666 23.8197 23.6272 19.2591 23.6272 13.634C23.6272 11.1696 22.7518 8.90884 21.2943 7.14673C22.9757 8.96368 24.0025 11.3931 24.0025 14.0626Z"
              fill="white"/>
        <path d="M13.4415 23.8199C19.0669 23.8199 23.6272 19.2596 23.6272 13.6342C23.6272 8.00878 19.0669 3.44849 13.4415 3.44849C7.81612 3.44849 3.25583 8.00878 3.25583 13.6342C3.25583 19.2596 7.81612 23.8199 13.4415 23.8199Z"
              fill="#F39E09"/>
        <path d="M21.1603 6.98794C19.3763 5.45028 17.0536 4.52099 14.514 4.52099C8.88899 4.52099 4.32833 9.08165 4.32833 14.7067C4.32833 17.2463 5.25813 19.569 6.79528 21.3529C4.62794 19.4847 3.25583 16.7197 3.25583 13.6342C3.25583 8.00915 7.81649 3.44849 13.4415 3.44849C16.5265 3.44849 19.292 4.82009 21.1603 6.98794Z"
              fill="#E88102"/>
        <path opacity="0.25"
              d="M21.9362 8.01273C15.3402 10.3284 10.0468 15.4141 7.45239 21.8735C7.22539 21.7084 7.00551 21.5337 6.79375 21.3504C5.25711 19.567 4.32832 17.2448 4.32832 14.7062C4.32832 9.08117 8.88899 4.52051 14.514 4.52051C17.0526 4.52051 19.3748 5.4493 21.1582 6.98594C21.4386 7.31094 21.6986 7.65371 21.9367 8.01273H21.9362Z"
              fill="white"/>
        <g opacity="0.964">
            <path fill-rule="evenodd" clip-rule="evenodd"
                  d="M13.3921 8.63599C13.4839 8.68779 13.5628 8.75728 13.6287 8.8445C14.5264 9.99979 15.4362 11.1466 16.3581 12.2851C15.9894 12.3194 15.6213 12.3591 15.2538 12.4042C14.969 12.462 14.685 12.5116 14.4018 12.5532C14.084 12.0444 13.7526 11.543 13.4078 11.0488C12.978 11.5973 12.552 12.1484 12.1299 12.7021C12.5605 12.7383 12.9917 12.773 13.4236 12.8064C11.5545 13.3284 9.91889 14.222 8.51698 15.4873C8.50704 15.4454 8.51754 15.4057 8.54853 15.3682C10.17 13.1277 11.7845 10.8836 13.3921 8.63599Z"
                  fill="#DB6704"/>
            <path fill-rule="evenodd" clip-rule="evenodd"
                  d="M16.3818 12.3445C16.9506 12.3353 17.2677 12.0498 17.8348 12.0888C18.2859 12.12 18.7277 12.1895 19.1601 12.2973C16.4093 12.3159 14.2621 13.4801 12.2167 15.1893C13.6892 14.8517 15.1617 14.8517 16.6343 15.1893C16.3458 14.8127 16.0513 14.4404 15.7508 14.0722C15.4025 14.0544 15.0554 14.0743 14.7095 14.1318C14.6884 14.1219 14.6674 14.1119 14.6464 14.102C15.3633 13.5751 15.9314 13.277 16.8343 13.1386C18.27 15.0501 19.5369 16.943 20.9726 18.8544C21.0036 18.8919 21.0141 18.9317 21.0041 18.9736C17.4609 16.4638 13.9746 15.7973 9.72395 17.0064C8.34886 17.4666 7.08669 18.112 5.93747 18.9426C5.91122 18.9631 5.89019 18.9581 5.87436 18.9277C7.69869 16.0903 10.2546 14.0796 13.542 12.8956C14.4668 12.593 15.4135 12.4093 16.3818 12.3445Z"
                  fill="#DB6704"/>
        </g>
        <g opacity="0.964">
            <path fill-rule="evenodd" clip-rule="evenodd"
                  d="M13.3272 7.98413C13.4157 8.03703 13.4918 8.10799 13.5553 8.19706C14.4207 9.37675 15.2977 10.5478 16.1865 11.7103C15.831 11.7454 15.4761 11.786 15.1219 11.832C14.8474 11.891 14.5736 11.9417 14.3006 11.9841C13.9942 11.4646 13.6748 10.9525 13.3424 10.448C12.9281 11.008 12.5174 11.5707 12.1105 12.1362C12.5255 12.1731 12.9413 12.2086 13.3576 12.2426C11.5558 12.7757 9.97909 13.6882 8.62766 14.9802C8.61808 14.9374 8.62821 14.8969 8.65808 14.8586C10.2212 12.5707 11.7776 10.2792 13.3272 7.98413Z"
                  fill="#FDD835"/>
            <path fill-rule="evenodd" clip-rule="evenodd"
                  d="M16.004 11.9993C16.5523 11.9899 17.0998 12.0051 17.6465 12.0449C18.0814 12.0768 18.5072 12.1478 18.9241 12.2578C16.2723 12.2768 13.9606 13.1589 11.9888 14.9042C13.4083 14.5595 14.8278 14.5595 16.2473 14.9042C15.9693 14.5197 15.6854 14.1394 15.3956 13.7635C15.0599 13.7453 14.7253 13.7656 14.3918 13.8243C14.3715 13.8142 14.3513 13.8041 14.331 13.7939C15.0222 13.2559 15.8029 12.9162 16.6732 12.7749C18.0572 14.7268 19.4412 16.6785 20.8252 18.6304C20.8551 18.6687 20.8652 18.7092 20.8556 18.752C17.44 16.1892 13.6834 15.5251 9.58582 16.7597C8.26024 17.2296 7.04352 17.8887 5.93568 18.7368C5.91038 18.7578 5.8901 18.7527 5.87485 18.7216C7.63349 15.8243 10.0973 13.7711 13.2664 12.562C14.1579 12.253 15.0705 12.0654 16.004 11.9993Z"
                  fill="#FDD835"/>
        </g>
        <mask id="mask0_16_1502" style="mask-type:alpha" maskUnits="userSpaceOnUse" x="5" y="7" width="16" height="12">
            <g opacity="0.964">
                <path fill-rule="evenodd" clip-rule="evenodd"
                      d="M13.3272 7.98413C13.4157 8.03703 13.4918 8.10799 13.5553 8.19706C14.4207 9.37675 15.2977 10.5478 16.1865 11.7103C15.831 11.7454 15.4761 11.786 15.1219 11.832C14.8474 11.891 14.5736 11.9417 14.3006 11.9841C13.9942 11.4646 13.6748 10.9525 13.3424 10.448C12.9281 11.008 12.5174 11.5707 12.1105 12.1362C12.5255 12.1731 12.9413 12.2086 13.3576 12.2426C11.5558 12.7757 9.97908 13.6882 8.62765 14.9802C8.61807 14.9374 8.6282 14.8969 8.65807 14.8586C10.2212 12.5707 11.7776 10.2792 13.3272 7.98413Z"
                      fill="#FDD835"/>
                <path fill-rule="evenodd" clip-rule="evenodd"
                      d="M16.004 11.9993C16.5523 11.9899 17.0998 12.0051 17.6465 12.0449C18.0814 12.0768 18.5072 12.1478 18.9241 12.2578C16.2723 12.2768 13.9606 13.1589 11.9888 14.9042C13.4083 14.5595 14.8278 14.5595 16.2473 14.9042C15.9693 14.5197 15.6854 14.1394 15.3956 13.7635C15.0599 13.7453 14.7253 13.7656 14.3918 13.8243C14.3715 13.8142 14.3513 13.8041 14.331 13.7939C15.0221 13.2559 15.8028 12.9162 16.6732 12.7749C18.0572 14.7268 19.4412 16.6785 20.8252 18.6304C20.8551 18.6687 20.8652 18.7092 20.8556 18.752C17.44 16.1892 13.6834 15.5251 9.58581 16.7597C8.26023 17.2296 7.04352 17.8887 5.93568 18.7368C5.91038 18.7578 5.8901 18.7527 5.87484 18.7216C7.63348 15.8243 10.0973 13.7711 13.2664 12.562C14.1579 12.253 15.0704 12.0654 16.004 11.9993Z"
                      fill="#FDD835"/>
            </g>
        </mask>
        <g mask="url(#mask0_16_1502)">
            <path d="M9.87033 12.5503L15.1811 7.2395V8.65406L7.95944 15.8757V13.2948L9.87033 12.5503Z" fill="white"
                  fill-opacity="0.5"/>
            <path d="M15.1811 9.64673L5.42812 19.3997H6.27189L15.3797 10.292L15.1811 9.64673Z" fill="white"
                  fill-opacity="0.5"/>
            <path d="M17.0672 11.3591L11.806 16.6203H12.2776L17.0672 11.8306V11.3591Z" fill="white" fill-opacity="0.5"/>
            <path d="M18.5066 11.2598L12.8235 16.9429H14.5607L19.2759 12.2277L18.5066 11.2598Z" fill="white"
                  fill-opacity="0.5"/>
            <path d="M19.7474 15.305L16.8439 18.2085H18.308L20.3927 16.1239L19.7474 15.305Z" fill="white"
                  fill-opacity="0.5"/>
        </g>
    </g>
    <defs>
        <clipPath id="clip0_16_1502">
            <rect width="26" height="26" fill="white" transform="translate(0.441528 0.5)"/>
        </clipPath>
    </defs>
</svg>
