<svg width="1024" height="1024" viewBox="0 0 1024 1024" fill="none" xmlns="http://www.w3.org/2000/svg">
<path d="M688 304V288H720V272H736V224H768V240H784V256H800V272H816V288H848V304H880V336H864V352H832V336H800V320H736V304H688Z" fill="#EAAF2C"/>
<path fill-rule="evenodd" clip-rule="evenodd" d="M608.177 64.3621L639.61 64.3839L639.705 79.968C641.102 80.3614 642.742 80.3089 644.285 80.2594C644.776 80.2437 645.257 80.2283 645.717 80.2277L656.146 80.2657L656.284 64.3927L671.447 64.4262L671.531 80.3067L719.571 80.3989L719.632 96.3418L735.237 96.5192L735.43 112.382L751.264 112.521L751.529 128.402L767.423 128.474L767.585 144.318L783.359 144.441L783.569 192.348L799.407 192.463L799.614 240.299L815.623 240.414L815.762 256.253L831.523 256.435L831.666 272.187L879.264 272.505L879.521 288.281L895.289 288.473L895.515 304.268L911.324 304.454L911.371 351.627L895.802 351.739C895.448 353.94 895.564 356.39 895.679 358.84C895.825 361.93 895.971 365.02 895.175 367.613L784.373 367.711L784.281 351.678L736.345 351.763L736.279 335.706L703.571 335.741L703.539 384.338L719.249 384.481L719.472 432.357L735.449 432.44L735.54 464.35L751.308 464.475L751.518 496.349L767.449 496.429L767.566 528.297L783.292 528.459L783.541 576.274L799.239 576.486L799.34 655.606L783.562 655.708L783.329 719.57L767.497 719.675L767.311 735.417C763.987 736.003 759.979 735.877 756.201 735.758C754.606 735.708 753.052 735.66 751.608 735.666L751.344 751.605L735.564 751.705L735.353 767.627L719.58 767.753L719.373 783.647L703.583 783.731L703.344 799.592L655.586 799.659L655.351 815.646L623.608 815.749L623.611 864.301L639.54 864.416L639.631 880.265L655.537 880.387L655.611 896.268L671.452 896.413L671.517 912.36L687.17 912.458C687.586 913.407 687.545 914.46 687.505 915.5L687.505 915.504C687.494 915.787 687.484 916.07 687.482 916.349L687.429 927.578L560.495 927.624L560.368 911.622L543.592 911.735L543.348 927.547L524.75 927.554L416.469 927.592L416.316 911.541L400.492 911.575L400.375 895.592L384.441 895.656L384.368 815.54L336.433 815.621L336.287 799.597L288.418 799.687L288.295 783.596L256.448 783.631L256.344 767.551L224.486 767.577L224.307 751.525L208.493 751.567L208.339 735.61L192.501 735.644L192.397 719.549L176.505 719.594L176.434 703.582L160.513 703.672L160.464 671.628L144.496 671.699L144.463 639.643L128.45 639.769L128.462 595.169C128.462 593.273 128.536 591.287 128.612 589.271C128.785 584.649 128.964 579.868 128.263 575.647L112.436 575.765L112.256 464.385L159.376 464.446L159.525 480.345L175.336 480.543L175.539 496.362L207.432 496.451L207.544 512.305L255.539 512.392L255.607 528.335L304.25 528.258L304.262 512.369L368.138 512.272L368.419 496.461L400.352 496.279L400.43 480.713C401.238 480.266 402.319 480.296 403.314 480.324C403.597 480.332 403.874 480.34 404.135 480.336L416.296 480.263L416.378 464.453L448.255 464.297L448.328 448.419L464.352 448.314L464.458 432.512L512.106 432.254L512.243 416.333L528.386 416.293L528.457 403.82C528.459 403.518 528.475 403.197 528.492 402.869L528.492 402.867C528.547 401.77 528.607 400.586 528.154 399.684L512.509 399.713L512.49 367.644L496.472 367.703L496.439 303.614L480.397 303.758L480.275 192.389L496.386 192.323L496.411 144.44L512.352 144.287L512.414 128.446L528.385 128.312L528.455 112.492L544.329 112.253L544.379 96.4323L560.36 96.3102L560.447 80.4714L608.109 80.256L608.177 64.3621ZM400.063 703.819L384.472 703.605L384.401 687.76L336.366 687.78L336.302 671.704L288.347 671.774L288.246 655.668L256.432 655.702L256.317 639.639L224.489 639.648L224.429 608.466L256.247 608.001L256.152 592.326L288.36 592.268L288.451 576.486L320.324 576.267L320.451 560.494L351.568 560.39L351.529 591.637L303.803 591.766L303.445 607.558L287.631 607.62L287.516 627.806C287.523 628.895 287.51 630.002 287.496 631.117C287.46 634.172 287.422 637.287 287.805 640.242L319.511 640.398L319.554 656.272L367.516 656.403L367.554 672.302L465.632 672.289L495.972 672.284C497.517 672.284 499.091 672.315 500.676 672.347C504.556 672.425 508.502 672.505 512.249 672.12L512.262 656.403L560.248 656.304L560.276 640.388L592.256 640.291L592.175 624.342L624.275 624.264L624.337 608.381L640.254 608.089L640.195 592.336L656.3 592.263L656.375 576.421L688.42 576.326L688.475 544.541L704.363 544.346L704.448 528.474L720.354 528.32L720.447 512.465L736.419 512.328L736.464 495.659L720.476 495.668L720.447 463.687L704.453 463.733L704.445 431.718L688.394 431.76L688.457 383.664L672.399 383.759L672.336 319.693L656.382 319.789L656.323 288.408L672.041 288.28C672.484 287.534 672.43 286.351 672.384 285.328C672.37 285.012 672.356 284.711 672.358 284.443L672.435 272.518L688.352 272.41L688.316 256.4L704.408 256.313L704.446 224.479L720.307 224.205L720.275 208.393L736.241 208.29L736.244 192.381L752.277 192.284L752.374 143.559L736.505 143.596L736.392 127.573L720.539 127.611L720.429 111.549L672.47 111.613L672.372 95.6354L619.007 95.5981C616.42 95.6002 613.785 95.5452 611.133 95.4899C604.592 95.3534 597.942 95.2146 591.62 95.9247L591.433 111.599L559.721 111.66L559.451 127.578L543.533 127.643L543.341 143.57L527.61 143.642L527.361 175.572L511.589 175.629L511.492 304.347L527.292 304.48L527.533 368.267L543.41 368.425L543.464 416.324L559.484 416.417L559.426 447.6L495.635 447.74L495.455 463.632L463.665 463.721L463.424 479.567L447.598 479.657L447.366 495.596L415.592 495.672L415.375 511.564L383.726 511.74L383.486 527.641L351.603 527.918L351.367 543.543L224.486 543.588L224.367 527.588L176.385 527.65L176.325 511.533L160.508 511.557L160.41 495.54L143.6 495.567L143.449 592.341L159.364 592.454L159.514 640.336L175.261 640.457C175.845 642.219 175.731 644.701 175.629 646.911C175.592 647.721 175.556 648.495 175.557 649.183L175.633 672.29L191.554 672.414C191.557 673.86 191.525 675.341 191.493 676.835C191.41 680.661 191.325 684.577 191.829 688.236L207.491 688.413L207.572 720.343L223.273 720.509L223.471 736.347L255.585 736.395L255.722 752.299L271.434 752.48L271.549 768.316L319.586 768.426L319.749 784.319L400.065 784.016H672V768H704V752H720V736H736V720H752V688H768V560H752V528H736V560H720V576H704V592H688V608H672V624H656V640H624V656H592V672H560V688H512V704.5L400.063 703.819ZM479.614 815.823L479.635 864.226L495.258 864.47L495.471 880.351L511.478 880.472L511.594 896.233L544.339 896.278L544.416 879.716L528.395 879.764L528.418 815.594L479.614 815.823ZM688 304V288H720V272H736V224H768V240H784V256H800V272H816V288H848V304H880V336H864V352H832V336H800V320H736V304H688Z" fill="black"/>
<path d="M400.063 703.819L400.065 784.016H672V768H704V752H720V736H736V720H752V688H768V560H752V528H736V560H720V576H704V592H688V608H672V624H656V640H624V656H592V672H560V688H512V704.5L400.063 703.819Z" fill="#04A08B"/>
<path d="M432.5 592.5V607.5H479.5V591.5H495.5V560.5H464.5V576.5H448.5V592.5H432.5Z" fill="black"/>
<path fill-rule="evenodd" clip-rule="evenodd" d="M400.065 784.016L400.063 703.819L384.472 703.605L384.401 687.76L336.366 687.78L336.302 671.704L288.347 671.774L288.246 655.668L256.432 655.702L256.317 639.639L224.489 639.648L224.429 608.466L256.247 608.001L256.152 592.326L288.36 592.268L288.451 576.486L320.324 576.267L320.451 560.494L351.568 560.39L351.529 591.637L303.803 591.766L303.445 607.558L287.631 607.62L287.516 627.806C287.523 628.895 287.51 630.002 287.496 631.117C287.46 634.172 287.422 637.287 287.805 640.242L319.511 640.398L319.554 656.272L367.516 656.403L367.554 672.302L465.632 672.289L495.972 672.284C497.517 672.284 499.091 672.315 500.676 672.347C504.556 672.425 508.502 672.505 512.249 672.12L512.262 656.403L560.248 656.304L560.276 640.388L592.256 640.291L592.175 624.342L624.275 624.264L624.337 608.381L640.254 608.089L640.195 592.336L656.3 592.263L656.375 576.421L688.42 576.326L688.475 544.541L704.363 544.346L704.448 528.474L720.354 528.32L720.447 512.465L736.419 512.328L736.464 495.659L720.476 495.668L720.447 463.687L704.453 463.733L704.445 431.718L688.394 431.76L688.457 383.664L672.399 383.759L672.336 319.693L656.382 319.789L656.323 288.408L672.041 288.28C672.484 287.534 672.43 286.351 672.384 285.328C672.37 285.012 672.356 284.711 672.358 284.443L672.435 272.518L688.352 272.41L688.316 256.4L704.408 256.313L704.446 224.479L720.307 224.205L720.275 208.393L736.241 208.29L736.244 192.381L752.277 192.284L752.374 143.559L736.505 143.596L736.392 127.573L720.539 127.611L720.429 111.549L672.47 111.613L672.372 95.6354L619.007 95.5981C616.42 95.6002 613.785 95.5452 611.133 95.4899C604.592 95.3534 597.942 95.2146 591.62 95.9247L591.433 111.599L559.721 111.66L559.451 127.578L543.533 127.643L543.341 143.57L527.61 143.642L527.361 175.572L511.589 175.629L511.492 304.347L527.292 304.48L527.533 368.267L543.41 368.425L543.464 416.324L559.484 416.417L559.426 447.6L495.635 447.74L495.455 463.632L463.665 463.721L463.424 479.567L447.598 479.657L447.366 495.596L415.592 495.672L415.375 511.564L383.726 511.74L383.486 527.641L351.603 527.918L351.367 543.543L224.486 543.588L224.367 527.588L176.385 527.65L176.325 511.533L160.508 511.557L160.41 495.54L143.6 495.567L143.449 592.341L159.364 592.454L159.514 640.336L175.261 640.457C175.845 642.219 175.731 644.701 175.629 646.911C175.592 647.721 175.556 648.495 175.557 649.183L175.633 672.29L191.554 672.414C191.557 673.86 191.525 675.341 191.493 676.835C191.41 680.661 191.325 684.577 191.829 688.236L207.491 688.413L207.572 720.343L223.273 720.509L223.471 736.347L255.585 736.395L255.722 752.299L271.434 752.48L271.549 768.316L319.586 768.426L319.749 784.319L400.065 784.016ZM432.5 592.5V607.5H479.5V591.5H495.5V560.5H464.5V576.5H448.5V592.5H432.5ZM592.5 496.5V480.5H608.5V464.5H623.5V511.5H576.5V496.5H592.5Z" fill="white"/>
<path d="M560.003 816.007L591.998 816.016L591.99 864.024L607.996 864.019L607.997 895.995L576.033 895.989L576.013 879.987L560.033 879.99L560.003 816.007Z" fill="#ECC394"/>
<path d="M416.006 816.01L447.997 816.015L447.988 864.024L463.995 864.018L463.988 896.025L479.995 896.019L479.992 911.992L448.028 911.995L448.009 895.986L432.033 895.99L432.013 879.989L416.032 879.991L416.006 816.01Z" fill="#ECC394"/>
<path d="M624.364 176.423L655.381 176.438L655.378 223.571L624.468 223.623L624.364 176.423Z" fill="black"/>
</svg>
