<svg width="24" height="25" viewBox="0 0 24 25" fill="none" xmlns="http://www.w3.org/2000/svg">
<path d="M22 10.7589V9.75891H21V5.75891H20V4.75891H19V3.75891H15V2.75891H14V1.75891H10V2.75891H9V3.75891H5V4.75891H4V5.75891H3V9.75891H2V10.7589H1V14.7589H2V15.7589H3V19.7589H4V20.7589H5V21.7589H9V22.7589H10V23.7589H14V22.7589H15V21.7589H19V20.7589H20V19.7589H21V15.7589H22V14.7589H23V10.7589H22ZM7 11.7589H8V10.7589H9V11.7589H10V12.7589H12V11.7589H13V10.7589H14V9.75891H15V8.75891H16V9.75891H17V11.7589H16V12.7589H15V13.7589H14V14.7589H13V15.7589H12V16.7589H10V15.7589H9V14.7589H8V13.7589H7V11.7589Z" fill="white"/>
</svg>
