<svg width="24" height="25" viewBox="0 0 24 25" fill="none" xmlns="http://www.w3.org/2000/svg">
<path d="M16 20.7589H15V21.7589H2V20.7589H1V17.7589H2V16.7589H3V15.7589H4V14.7589H13V15.7589H14V16.7589H15V17.7589H16V20.7589Z" fill="white"/>
<path d="M13 12.7589V11.7589H14V5.75891H18V6.75891H19V11.7589H18V12.7589H13Z" fill="white"/>
<path d="M23 17.7589V20.7589H22V21.7589H16V20.7589H17V16.7589H16V15.7589H15V14.7589H20V15.7589H21V16.7589H22V17.7589H23Z" fill="white"/>
<path d="M12 3.75891V4.75891H11V5.75891H10V4.75891H9V3.75891H8V4.75891H7V5.75891H6V4.75891H5V3.75891H4V10.7589H5V11.7589H6V12.7589H11V11.7589H12V10.7589H13V3.75891H12ZM11 9.75891H10V10.7589H7V9.75891H6V7.75891H11V9.75891Z" fill="white"/>
</svg>
