<svg width="25" height="24" viewBox="0 0 25 24" fill="none" xmlns="http://www.w3.org/2000/svg">
<path d="M22.5 9V7H21.5V5H20.5V4H19.5V3H17.5V2H15.5V1H9.5V2H7.5V3H5.5V4H4.5V5H3.5V7H2.5V9H1.5V15H2.5V17H3.5V19H4.5V20H5.5V21H7.5V22H9.5V23H15.5V22H17.5V21H19.5V20H20.5V19H21.5V17H22.5V15H23.5V9H22.5ZM9.5 21V20H7.5V19H5.5V17H4.5V15H3.5V11H4.5V12H5.5V13H6.5V14H8.5V17H9.5V18H10.5V21H9.5ZM15.5 19H14.5V21H12.5V18H11.5V17H10.5V14H9.5V13H8.5V12H7.5V11H6.5V10H5.5V9H4.5V7H5.5V6H6.5V5H7.5V4H10.5V3H12.5V4H13.5V8H11.5V11H10.5V10H8.5V12H11.5V13H15.5V14H16.5V17H15.5V19ZM20.5 17H19.5V19H17.5V20H16.5V19H17.5V17H18.5V14H17.5V13H16.5V12H15.5V11H13.5V9H14.5V8H15.5V4H14.5V3H15.5V4H17.5V5H19.5V7H18.5V8H17.5V9H16.5V12H17.5V13H18.5V14H19.5V15H20.5V17ZM21.5 13H19.5V12H18.5V9H19.5V8H20.5V9H21.5V13Z" fill="white"/>
</svg>
