<svg width="24" height="25" viewBox="0 0 24 25" fill="none" xmlns="http://www.w3.org/2000/svg">
<path d="M23 5.75891V15.7589H22V14.7589H21V13.7589H20V12.7589H18V13.7589H17V14.7589H16V15.7589H15V16.7589H14V17.7589H13V18.7589H12V19.7589H10V18.7589H9V17.7589H8V16.7589H7V15.7589H5V16.7589H4V17.7589H1V14.7589H2V13.7589H3V12.7589H4V11.7589H5V10.7589H7V11.7589H8V12.7589H9V13.7589H10V14.7589H12V13.7589H13V12.7589H14V11.7589H15V10.7589H16V8.75891H15V7.75891H14V6.75891H13V5.75891H23Z" fill="white"/>
</svg>
