<svg width="24" height="25" viewBox="0 0 24 25" fill="none" xmlns="http://www.w3.org/2000/svg">
<path d="M1 9.75891V22.7589H2V23.7589H22V22.7589H23V9.75891H1ZM13 20.7589V22.7589H11V20.7589H9V18.7589H13V17.7589H10V16.7589H9V12.7589H11V10.7589H13V12.7589H15V14.7589H11V15.7589H14V16.7589H15V20.7589H13Z" fill="white"/>
<path d="M11 1.75891V7.75891H1V6.75891H2V4.75891H3V3.75891H4V2.75891H5V1.75891H11Z" fill="white"/>
<path d="M23 6.75891V7.75891H13V1.75891H19V2.75891H20V3.75891H21V4.75891H22V6.75891H23Z" fill="white"/>
</svg>
