<?xml version="1.0" encoding="utf-8" ?>
<svg xmlns="http://www.w3.org/2000/svg" xmlns:xlink="http://www.w3.org/1999/xlink" width="1600" height="1600">
	<path d="M1307.45 190.516L1377 190.721C1383.72 190.764 1398.14 186.859 1398.31 196.647L1398.45 341.016C1398.88 356.547 1403.28 357.719 1386.18 357.792L1363.22 357.788L1363.46 445.78C1363.46 463.474 1364.85 482.648 1362.48 500.152L1332.09 500.007C1334.85 533.961 1333.12 569.178 1333.11 603.285L1333.12 636.917C1333.24 646.769 1333.8 655.883 1332.54 665.718L1310.07 665.354L1309.7 857.202L1281.74 856.43C1280.5 858.578 1281.16 863.955 1281.16 866.657L1281.18 984.854C1281.19 1000.56 1280.22 1017.07 1281.82 1032.66L1250.55 1032.76L1252.21 1199.03L1226.72 1199.13L1226.74 1360.13L1131.93 1360.07L1132.23 1328.03L1045.79 1328.58L1047.27 1295.5L959.576 1295.99L960.257 1257.54L903.22 1257.91C905.352 1246.51 904.294 1233.23 904.796 1221.54L840.214 1222.45L840.227 1186.64L771.052 1185.45L770.859 1216.84L724.016 1212.33L724.672 1245.37L676.852 1244.62L674.956 1262.53L607.642 1261.71L608.147 1303.27C583.094 1301.72 557.067 1303 531.911 1302.99L511.854 1302.98C506.682 1302.98 500.074 1305.78 499.483 1299.61L499.581 1216.11L498.278 1106.77C494.594 1105.78 490.017 1106.06 486.166 1105.94L452.415 1106.35C449.728 1084.68 450.991 1061.67 450.995 1039.85L450.968 961.818L380.327 961.188L380.322 922.553L297.526 922.35L297.641 887.632L216.463 887.539L217.905 852.514L135.874 852.195L135.31 667.961L215.722 667.769L215.449 628.152L299.878 629.413L299.892 595.143L343.355 595.44C356.136 595.445 369.185 595.898 381.905 594.571L381.19 576.292L426.165 576.562C431.77 576.602 439.976 577.76 445.136 576.324L445.282 548.075L527.211 547.491L527.834 510.122L615.303 510.21L614.835 481.883C614.771 479.172 613.895 475.098 614.699 472.61L701.421 472.598C701.191 459.912 701.831 446.422 699.952 433.889L788.45 432.9L788.301 394.142L880.297 394.322L880.597 362.45C882.697 361.638 885.543 361.884 887.787 361.794L965.133 361.295C966.527 349.024 965.668 335.936 965.521 323.602C967.164 322.764 969.549 323.14 971.381 323.138L1052.77 322.826L1052.76 288.043L1135.61 287.702C1137.06 285.168 1136.72 257.194 1136.96 251.048L1224.11 250.137L1224.94 217.334L1306.2 217.319L1307.45 190.516ZM1225.14 320.458L1225 350.119L1145.25 352.437L1144.99 389.936L1056.1 390.28L1056.55 426.822C1044.55 425.346 1032.26 425.766 1020.18 425.772L970.088 425.911L969.817 464.071L882.157 462.595C879.693 480.502 882.751 480.787 882.759 495.352L802.27 494.392L802.443 530.127L719.527 529.941L719.754 568.008L641.324 567.844L641.448 602.164L566.013 601.162L565.599 633.894L485.838 634.07L486.776 664.798L401.959 664.583L402.402 685.271C402.412 688.149 402.909 691.864 401.925 694.564L324.169 693.614L324.857 724.509C321.605 725.517 315.97 724.49 312.39 724.32L284.268 723.265L284.453 793.758L337.455 793.125L337.112 839.92L452.299 840.25C452.595 856.475 450.325 871.448 452.271 887.786L510.571 887.507C512.185 883.211 510.998 874.689 511.037 869.922L511.767 837.327L611.954 836.937L612.74 778.613L683.551 778.958L683.292 725.067L758.211 725.181L759.32 670.091L845.988 669.819L846.187 622.615L925.558 622.239L925.164 567.827L994.863 567.478L994.24 518.042C1010.23 518.634 1028.74 520.776 1044.55 517.985L1045.68 486.035C1065.62 483.786 1087.09 485.112 1107.2 485.264L1106.27 580.488L1070.39 580.384C1063.61 580.36 1056.62 580.717 1049.88 579.967L1051.02 626.386L1029.36 625.057L1006.06 625.085L1007.97 666.474L963.092 665.272L964.48 702.903L918.896 702.435L919.652 736.791L883.008 734.911C880.854 734.866 875.072 734.148 873.397 735.133L873.565 770.351L830.391 769.988L831.795 808.664L789.172 807.804L789.946 845.921L747.593 845.421L749.209 883.823L707.145 885.052L707.793 922.753L674.379 923.381C669.988 923.51 664.724 923.026 660.504 924.177C659.018 940.523 660.987 955.993 660.455 972.119L607.547 971.921L608.177 1171.04C615.275 1171.01 656.329 1171.7 659.443 1169.78L659.289 1115.16L744.53 1113.58C744.115 1107.75 742.52 1071.07 744.939 1066.36L831.166 1067.19L831.037 1100.14L891.545 1099.99L890.126 1136.82L957.978 1136.69L957.65 1175.94L1022.33 1175.39L1021.8 1208.94L1085.65 1207.6L1084.72 1247.3L1129.71 1246.09L1129.77 1197.78L1158.78 1195.6L1157.87 1029.38L1189.75 1027.84L1188.86 862.546L1215.48 863.173L1216.44 666.748L1240.5 665.625L1239.9 487.346L1269.64 487.459C1269.67 479.05 1268.83 404.3 1269.53 402.797L1289.06 402.431L1288.83 320.369L1225.14 320.458Z"/>
</svg>
