<svg width="176" height="176" viewBox="0 0 176 176" fill="none" xmlns="http://www.w3.org/2000/svg">
<path fill-rule="evenodd" clip-rule="evenodd" d="M50.0495 83.3951C73.6718 73.1033 89.4237 66.3182 97.3052 63.0401C119.808 53.6802 124.484 52.0543 127.532 52.0006C128.202 51.9888 129.701 52.1549 130.672 52.9427C131.492 53.6079 131.717 54.5064 131.825 55.1371C131.933 55.7678 132.068 57.2045 131.961 58.327C130.741 71.14 125.465 102.234 122.78 116.584C121.645 122.657 119.408 124.693 117.243 124.892C112.537 125.325 108.964 121.782 104.406 118.795C97.2743 114.12 93.2453 111.209 86.3227 106.648C78.3223 101.375 83.5086 98.4778 88.068 93.7422C89.2612 92.5029 109.994 73.6445 110.396 71.9338C110.446 71.7198 110.492 70.9223 110.019 70.5011C109.545 70.08 108.846 70.224 108.341 70.3385C107.626 70.5009 96.2324 78.0314 74.1614 92.9299C70.9275 95.1506 67.9983 96.2325 65.3739 96.1758C62.4806 96.1133 56.9152 94.54 52.7779 93.1951C47.7033 91.5455 43.6701 90.6734 44.0213 87.872C44.2042 86.4128 46.2137 84.9205 50.0495 83.3951Z" fill="white"/>
</svg>
