<svg width="157" height="81" viewBox="0 0 157 81" fill="none" xmlns="http://www.w3.org/2000/svg">
<rect x="0.985381" y="0.985381" width="155.029" height="79.0292" rx="39.5146" stroke="white" stroke-opacity="0.15" stroke-width="1.97076"/>
<path d="M31.5322 40.5H51.5322M31.5322 40.5L39.8656 31.5M31.5322 40.5L39.8656 49.5" stroke="white" stroke-width="1.97076" stroke-linecap="round" stroke-linejoin="round"/>
<path d="M80.1792 33.4456H82.1421V50H80.1792V42.5032H74.9291V50H72.9662V33.4456H74.9291V40.6822H80.1792V33.4456ZM89.1465 37.2531C91.6533 37.2531 93.0722 38.8613 93.0722 41.5573V50H91.535L91.3931 48.8175C90.8492 49.6689 89.9505 50.3074 88.5552 50.3074C86.2849 50.3074 84.6768 48.8412 84.6768 46.4526C84.6768 43.9931 86.3559 42.6688 89.0755 42.6688H91.2039V41.5809C91.2039 39.9491 90.5181 39.0504 89.0992 39.0504C87.8931 39.0504 87.018 39.7126 86.9234 40.966H85.0552C85.1498 38.6957 86.7342 37.2531 89.1465 37.2531ZM91.2039 46.3817V44.3242H89.0519C87.4437 44.3242 86.5687 45.081 86.5687 46.4763C86.5687 47.8479 87.491 48.5811 88.91 48.5811C90.3289 48.5811 91.2039 47.6824 91.2039 46.3817ZM101.614 43.4728C102.678 43.8985 103.6 44.9627 103.6 46.3817C103.6 48.7229 101.874 50.2601 99.367 50.2601C96.7183 50.2601 95.1101 48.6756 95.0155 46.429H96.8365C96.9311 47.6587 97.7825 48.4865 99.367 48.4865C100.857 48.4865 101.756 47.706 101.756 46.2871C101.756 45.1046 100.904 44.3479 99.3433 44.3479H97.6642V42.8107H99.2724C100.549 42.8107 101.401 42.1721 101.401 40.966C101.401 39.8545 100.668 39.0741 99.3433 39.0741C97.9244 39.0741 97.1912 39.7599 97.0966 41.2262H95.2757C95.3939 38.7667 96.8129 37.3477 99.3197 37.3477C101.614 37.3477 103.222 38.8613 103.222 40.8241C103.222 42.2194 102.441 43.0708 101.614 43.4728ZM109.562 37.2531C112.069 37.2531 113.488 38.8613 113.488 41.5573V50H111.951L111.809 48.8175C111.265 49.6689 110.366 50.3074 108.971 50.3074C106.701 50.3074 105.093 48.8412 105.093 46.4526C105.093 43.9931 106.772 42.6688 109.491 42.6688H111.62V41.5809C111.62 39.9491 110.934 39.0504 109.515 39.0504C108.309 39.0504 107.434 39.7126 107.339 40.966H105.471C105.566 38.6957 107.15 37.2531 109.562 37.2531ZM111.62 46.3817V44.3242H109.468C107.86 44.3242 106.985 45.081 106.985 46.4763C106.985 47.8479 107.907 48.5811 109.326 48.5811C110.745 48.5811 111.62 47.6824 111.62 46.3817ZM114.958 52.7433V48.2736H115.881C116.567 47.1385 116.898 45.3411 117.04 43.3073C117.181 41.3681 117.252 39.4761 117.276 37.5605H124.134V48.2736H125.53V52.7433H123.732V50H116.756V52.7433H114.958ZM117.962 48.2736H122.29V39.2869H119.05C119.026 40.7532 118.979 42.1958 118.861 43.662C118.695 45.6486 118.411 47.1621 117.962 48.2736Z" fill="white"/>
</svg>
