<svg width="28" height="27" viewBox="0 0 28 27" fill="none" xmlns="http://www.w3.org/2000/svg">
    <g clip-path="url(#clip0_140_1460)">
        <path fill-rule="evenodd" clip-rule="evenodd"
              d="M27.4152 5.66667C27.4152 4.2 26.2002 3 24.7152 3C20.6819 4.1279 17.3983 5.30702 14.5407 6.77917C15.6044 8.17586 16.681 9.56342 17.7703 10.9419C17.283 10.9884 16.7965 11.0422 16.3108 11.1032C15.9345 11.1814 15.5592 11.2487 15.1848 11.3049C14.7648 10.6159 14.3269 9.93687 13.8713 9.26768C13.3032 10.0104 12.7402 10.7567 12.1824 11.5066C12.7514 11.5556 13.3213 11.6027 13.8921 11.6478C11.4219 12.3548 9.26033 13.5651 7.40759 15.2786C7.39445 15.2218 7.40834 15.168 7.44929 15.1172C9.14162 12.721 10.8282 10.3217 12.509 7.91951C8.00999 10.669 4.49618 14.4205 0.415161 20.3333C0.415161 21.8 1.63016 23 3.11516 23H18.9777C18.9777 22.4667 19.4502 22 19.9902 22C20.5302 22 21.0027 22.4667 21.0027 23H24.7152C26.2002 23 27.4152 21.8 27.4152 20.3333V15.6667C25.9302 15.6667 24.7152 14.4667 24.7152 13C24.7152 11.5333 25.9302 10.3333 27.4152 10.3333V5.66667ZM18.9777 19.6667C18.9777 20.2 19.4502 20.6667 19.9902 20.6667C20.5302 20.6667 21.0027 20.2 21.0027 19.6667C21.0027 19.1333 20.5302 18.6667 19.9902 18.6667C19.4502 18.6667 18.9777 19.1333 18.9777 19.6667ZM19.739 13.9661C19.8199 13.9882 19.9042 14 19.9902 14C20.5302 14 21.0027 13.5333 21.0027 13C21.0027 12.4667 20.5302 12 19.9902 12C19.4835 12 19.0362 12.4109 18.983 12.9022C18.7906 12.6343 18.5962 12.3662 18.3995 12.0978C17.2064 12.2852 16.4556 12.689 15.5081 13.4025L15.5915 13.4429C16.0487 13.365 16.5074 13.3381 16.9676 13.3622C17.3649 13.8608 17.7541 14.365 18.1352 14.875C16.1891 14.4178 14.2431 14.4178 12.2971 14.875C15.0002 12.5603 17.8379 10.9836 21.4733 10.9585C20.9018 10.8125 20.318 10.7184 19.7219 10.6761C19.3235 10.648 19.0184 10.7441 18.7071 10.8422C18.4329 10.9286 18.1538 11.0165 17.8016 11.0224C16.5218 11.1101 15.2708 11.3589 14.0485 11.7687C9.70395 13.3722 6.32616 16.0953 3.91516 19.9379C3.93608 19.9791 3.96388 19.9858 3.99856 19.958C5.51735 18.8332 7.18541 17.9591 9.0027 17.3358C14.6202 15.6985 19.2277 16.601 23.9104 20C23.9235 19.9432 23.9096 19.8894 23.8687 19.8386C22.92 18.5443 22.027 17.2563 21.1341 15.9682C20.6717 15.3012 20.2092 14.6341 19.739 13.9661ZM18.9777 9.66667C18.9777 10.2 19.4502 10.6667 19.9902 10.6667C20.5302 10.6667 21.0027 10.2 21.0027 9.66667C21.0027 9.13333 20.5302 8.66667 19.9902 8.66667C19.4502 8.66667 18.9777 9.13333 18.9777 9.66667ZM18.9777 6.33333C18.9777 6.86667 19.4502 7.33333 19.9902 7.33333C20.5302 7.33333 21.0027 6.86667 21.0027 6.33333C21.0027 5.8 20.5302 5.33333 19.9902 5.33333C19.4502 5.33333 18.9777 5.8 18.9777 6.33333Z"
              fill="#F39E09"/>
        <path d="M24.7152 3H21.0027C21.0027 3.53333 20.5302 4 19.9902 4C19.4502 4 18.9777 3.53333 18.9777 3H3.11516C1.63016 3 0.415161 4.2 0.415161 5.66667V10.3333C1.90016 10.3333 3.11516 11.5333 3.11516 13C3.11516 14.4667 1.90016 15.6667 0.415161 15.6667V20.3333C4.49618 14.4205 8.00999 10.669 12.509 7.91951C12.9566 7.27988 13.4037 6.64005 13.8504 6C13.9718 6.07015 14.076 6.16427 14.1632 6.28239C14.2888 6.44811 14.4147 6.6137 14.5407 6.77917C17.3983 5.30702 20.6819 4.1279 24.7152 3Z"
              fill="#F6B647"/>
    </g>
    <defs>
        <clipPath id="clip0_140_1460">
            <rect width="27" height="27" fill="white" transform="translate(0.415161)"/>
        </clipPath>
    </defs>
</svg>
