<svg width="33" height="20" viewBox="0 0 33 20" fill="none" xmlns="http://www.w3.org/2000/svg">
<path fill-rule="evenodd" clip-rule="evenodd" d="M6.6 0H5.67445C4.43825 0 3.30417 0.751401 2.73987 1.93971L2.74699 1.92662L2.72637 1.96847C2.73083 1.95886 2.73534 1.94927 2.73987 1.93971L0.487266 6.08259C0.168638 6.64451 0 7.29045 0 7.94922V14.5061C0 15.5597 0.8028 16.4286 1.77633 16.4286H2.70059C3.0176 18.4487 4.64629 20 6.6 20C8.55371 20 10.1824 18.4487 10.4994 16.4286H22.5006C22.8176 18.4487 24.4463 20 26.4 20C28.3537 20 29.9824 18.4487 30.2994 16.4286H31.02C32.106 16.4286 33 15.461 33 14.2857V10.9919C33 9.25106 31.829 7.75602 30.2427 7.46931L24.7461 6.4774L20.1519 1.26953C19.5252 0.464489 18.6014 0 17.6292 0H17.16H15.84H7.92H6.6ZM11.22 1.42857H5.67445C4.92476 1.42857 4.24258 1.88374 3.90586 2.60882L3.89555 2.63114L1.83047 6.42857H11.22V1.42857ZM17.6292 1.42857H12.54V6.42857H22.877L19.1555 2.20703L19.1426 2.19029C18.7661 1.70676 18.2133 1.42857 17.6292 1.42857ZM24.3646 7.85714H1.32516C1.32466 7.86972 1.32371 7.88223 1.32275 7.89473C1.32138 7.91284 1.32 7.93093 1.32 7.94922V14.5061C1.32 14.7868 1.51698 15 1.77633 15H2.70059C3.0176 12.9799 4.64629 11.4286 6.6 11.4286C8.55371 11.4286 10.1824 12.9799 10.4994 15H22.5006C22.8176 12.9799 24.4463 11.4286 26.4 11.4286C28.3537 11.4286 29.9824 12.9799 30.2994 15H31.02C31.386 15 31.68 14.6818 31.68 14.2857V10.9919C31.68 9.9399 30.9848 9.05163 30.0261 8.87835L24.3646 7.85714ZM9.24 15.7143C9.24 14.1283 8.06545 12.8571 6.6 12.8571C5.13455 12.8571 3.96 14.1283 3.96 15.7143C3.96 17.3003 5.13455 18.5714 6.6 18.5714C8.06545 18.5714 9.24 17.3003 9.24 15.7143ZM29.04 15.7143C29.04 14.1283 27.8654 12.8571 26.4 12.8571C24.9346 12.8571 23.76 14.1283 23.76 15.7143C23.76 17.3003 24.9346 18.5714 26.4 18.5714C27.8654 18.5714 29.04 17.3003 29.04 15.7143Z" fill="white"/>
</svg>
