<svg width="82" height="81" viewBox="0 0 82 81" fill="none" xmlns="http://www.w3.org/2000/svg">
<circle cx="41.3538" cy="40.5" r="39.5146" stroke="white" stroke-opacity="0.15" stroke-width="1.97076"/>
<path d="M43.439 39.6838L49.7805 33.3108C50.0732 33.0189 50.0732 32.5811 49.7805 32.2892L48.8049 31.2676C48.5122 30.9757 48.0732 30.9757 47.7805 31.2676L41.3902 37.6405C41.1951 37.8351 40.9024 37.8351 40.7073 37.6405L34.3171 31.2189C34.0244 30.927 33.5854 30.927 33.2927 31.2189L32.2683 32.2405C31.9756 32.5324 31.9756 32.9703 32.2683 33.2622L38.6585 39.6351C38.8537 39.8297 38.8537 40.1216 38.6585 40.3162L32.2195 46.7378C31.9268 47.0297 31.9268 47.4676 32.2195 47.7595L33.2439 48.7811C33.5366 49.073 33.9756 49.073 34.2683 48.7811L40.6585 42.4081C40.8537 42.2135 41.1463 42.2135 41.3415 42.4081L47.7317 48.7811C48.0244 49.073 48.4634 49.073 48.7561 48.7811L49.7805 47.7595C50.0732 47.4676 50.0732 47.0297 49.7805 46.7378L43.439 40.3649C43.2439 40.1703 43.2439 39.8784 43.439 39.6838Z" fill="white"/>
</svg>
