<svg width="27" height="27" viewBox="0 0 27 27" fill="none" xmlns="http://www.w3.org/2000/svg">
    <g clip-path="url(#clip0_1_693)">
        <path d="M13.4415 26.5C20.6212 26.5 26.4415 20.6797 26.4415 13.5C26.4415 6.3203 20.6212 0.5 13.4415 0.5C6.26183 0.5 0.441528 6.3203 0.441528 13.5C0.441528 20.6797 6.26183 26.5 13.4415 26.5Z"
              fill="#FDD835"/>
        <path opacity="0.5"
              d="M13.4415 0.5C6.26207 0.5 0.441528 6.32055 0.441528 13.5C0.441528 20.6795 6.26207 26.5 13.4415 26.5C20.621 26.5 26.4415 20.6795 26.4415 13.5C26.4415 6.32055 20.621 0.5 13.4415 0.5ZM13.4415 25.9414C6.57032 25.9414 1.00012 20.3712 1.00012 13.5C1.00012 6.62879 6.57032 1.05859 13.4415 1.05859C20.3127 1.05859 25.8829 6.62879 25.8829 13.5C25.8829 20.3712 20.3127 25.9414 13.4415 25.9414Z"
              fill="white"/>
        <path opacity="0.5"
              d="M18.6283 1.57607L1.5176 18.6868C0.932806 17.3436 0.580614 15.9108 0.476074 14.4496L14.3912 0.534546C15.8877 0.642202 17.3151 1.00427 18.6283 1.57607ZM24.7703 7.11935L7.06088 24.8288C5.96309 24.2089 4.96092 23.4332 4.08561 22.5259L22.4674 4.14408C23.3713 5.0165 24.1493 6.01791 24.7703 7.11935ZM21.9362 3.65962L3.60064 21.9947C3.31338 21.6626 3.04337 21.316 2.7917 20.9562L20.8978 2.85017C21.2573 3.10205 21.6041 3.3722 21.9362 3.65962ZM26.0338 10.2561L10.1976 26.0922C9.71928 25.9694 9.25209 25.8201 8.79607 25.6459L25.5869 8.85505C25.7611 9.31056 25.9109 9.77826 26.0333 10.2566L26.0338 10.2561Z"
              fill="white"/>
        <path opacity="0.5"
              d="M24.0025 14.0626C24.0025 19.6877 19.4418 24.2483 13.8168 24.2483C10.6567 24.2483 7.8317 22.8092 5.96448 20.5499C7.82459 22.5609 10.4865 23.8197 13.4415 23.8197C19.0665 23.8197 23.6272 19.2591 23.6272 13.634C23.6272 11.1696 22.7517 8.90884 21.2943 7.14673C22.9757 8.96368 24.0025 11.3931 24.0025 14.0626Z"
              fill="white"/>
        <path d="M13.4416 23.8198C19.067 23.8198 23.6273 19.2595 23.6273 13.6341C23.6273 8.00866 19.067 3.44836 13.4416 3.44836C7.81615 3.44836 3.25586 8.00866 3.25586 13.6341C3.25586 19.2595 7.81615 23.8198 13.4416 23.8198Z"
              fill="#F39E09"/>
        <path d="M21.1603 6.98782C19.3764 5.45016 17.0536 4.52086 14.5141 4.52086C8.88902 4.52086 4.32836 9.08153 4.32836 14.7066C4.32836 17.2461 5.25816 19.5689 6.79531 21.3528C4.62797 19.4846 3.25586 16.7195 3.25586 13.6341C3.25586 8.00903 7.81652 3.44836 13.4416 3.44836C16.5265 3.44836 19.2921 4.81997 21.1603 6.98782Z"
              fill="#E88102"/>
        <path opacity="0.25"
              d="M21.9363 8.01261C15.3403 10.3282 10.0468 15.414 7.45243 21.8734C7.22544 21.7083 7.00556 21.5336 6.7938 21.3503C5.25716 19.5669 4.32837 17.2446 4.32837 14.7061C4.32837 9.08105 8.88903 4.52039 14.5141 4.52039C17.0526 4.52039 19.3749 5.44917 21.1583 6.98582C21.4386 7.31082 21.6986 7.65359 21.9368 8.01261H21.9363Z"
              fill="white"/>
        <g opacity="0.964">
            <path fill-rule="evenodd" clip-rule="evenodd"
                  d="M13.3921 8.63586C13.4839 8.68767 13.5628 8.75716 13.6288 8.84438C14.5264 9.99966 15.4362 11.1465 16.3582 12.2849C15.9894 12.3193 15.6213 12.359 15.2538 12.4041C14.969 12.4618 14.6851 12.5115 14.4018 12.553C14.084 12.0443 13.7527 11.5428 13.4079 11.0487C12.978 11.5972 12.5521 12.1482 12.1299 12.702C12.5605 12.7381 12.9917 12.7729 13.4237 12.8062C11.5545 13.3283 9.91892 14.2219 8.51701 15.4872C8.50707 15.4452 8.51757 15.4055 8.54856 15.368C10.1701 13.1275 11.7846 10.8835 13.3921 8.63586Z"
                  fill="#DB6704"/>
            <path fill-rule="evenodd" clip-rule="evenodd"
                  d="M16.3819 12.3444C16.9507 12.3352 17.2677 12.0497 17.8349 12.0887C18.2859 12.1199 18.7277 12.1894 19.1601 12.2972C16.4093 12.3158 14.2621 13.48 12.2167 15.1892C13.6892 14.8516 15.1617 14.8516 16.6343 15.1892C16.3459 14.8126 16.0514 14.4403 15.7508 14.0721C15.4026 14.0543 15.0555 14.0742 14.7095 14.1317C14.6885 14.1218 14.6675 14.1118 14.6464 14.1019C15.3634 13.575 15.9315 13.2769 16.8343 13.1385C18.27 15.0499 19.5369 16.9429 20.9726 18.8543C21.0036 18.8918 21.0141 18.9315 21.0042 18.9735C17.4609 16.4637 13.9746 15.7972 9.72398 17.0063C8.34889 17.4665 7.08672 18.1119 5.9375 18.9425C5.91125 18.963 5.89022 18.958 5.87439 18.9276C7.69872 16.0902 10.2546 14.0795 13.542 12.8955C14.4669 12.5929 15.4135 12.4092 16.3819 12.3444Z"
                  fill="#DB6704"/>
        </g>
        <g opacity="0.964">
            <path fill-rule="evenodd" clip-rule="evenodd"
                  d="M13.3272 7.98401C13.4158 8.03691 13.4918 8.10787 13.5554 8.19693C14.4207 9.37663 15.2978 10.5477 16.1865 11.7102C15.831 11.7453 15.4762 11.7858 15.1219 11.8319C14.8474 11.8908 14.5736 11.9415 14.3006 11.984C13.9942 11.4644 13.6748 10.9524 13.3424 10.4479C12.9281 11.0079 12.5175 11.5706 12.1105 12.136C12.5256 12.173 12.9413 12.2085 13.3577 12.2425C11.5558 12.7756 9.97912 13.6881 8.62769 14.9801C8.61811 14.9373 8.62824 14.8967 8.65811 14.8584C10.2212 12.5706 11.7776 10.2791 13.3272 7.98401Z"
                  fill="#FDD835"/>
            <path fill-rule="evenodd" clip-rule="evenodd"
                  d="M16.004 11.9992C16.5523 11.9898 17.0998 12.005 17.6466 12.0448C18.0814 12.0767 18.5072 12.1477 18.9241 12.2577C16.2724 12.2767 13.9606 13.1588 11.9889 14.9041C13.4083 14.5593 14.8278 14.5593 16.2473 14.9041C15.9693 14.5195 15.6854 14.1393 15.3956 13.7634C15.06 13.7452 14.7254 13.7655 14.3919 13.8242C14.3716 13.8141 14.3513 13.8039 14.331 13.7938C15.0222 13.2558 15.8029 12.9161 16.6732 12.7748C18.0572 14.7266 19.4412 16.6784 20.8252 18.6302C20.8551 18.6685 20.8652 18.7091 20.8556 18.7519C17.44 16.1891 13.6834 15.5249 9.58585 16.7595C8.26027 17.2295 7.04355 17.8885 5.93571 18.7367C5.91042 18.7576 5.89014 18.7526 5.87488 18.7215C7.63352 15.8241 10.0974 13.7709 13.2664 12.5619C14.158 12.2529 15.0705 12.0653 16.004 11.9992Z"
                  fill="#FDD835"/>
        </g>
        <mask id="mask0_1_693" style="mask-type:alpha" maskUnits="userSpaceOnUse" x="5" y="7" width="16" height="12">
            <g opacity="0.964">
                <path fill-rule="evenodd" clip-rule="evenodd"
                      d="M13.3272 7.98401C13.4158 8.03691 13.4918 8.10787 13.5554 8.19693C14.4207 9.37663 15.2978 10.5477 16.1865 11.7102C15.831 11.7453 15.4762 11.7858 15.1219 11.8319C14.8474 11.8908 14.5736 11.9415 14.3006 11.984C13.9942 11.4644 13.6748 10.9524 13.3424 10.4479C12.9281 11.0079 12.5175 11.5706 12.1105 12.136C12.5256 12.173 12.9413 12.2085 13.3577 12.2425C11.5558 12.7756 9.97912 13.6881 8.62769 14.9801C8.61811 14.9373 8.62824 14.8967 8.65811 14.8584C10.2212 12.5706 11.7776 10.2791 13.3272 7.98401Z"
                      fill="#FDD835"/>
                <path fill-rule="evenodd" clip-rule="evenodd"
                      d="M16.004 11.9992C16.5523 11.9898 17.0998 12.005 17.6466 12.0448C18.0814 12.0767 18.5072 12.1477 18.9241 12.2577C16.2724 12.2767 13.9606 13.1588 11.9889 14.9041C13.4083 14.5593 14.8278 14.5593 16.2473 14.9041C15.9693 14.5195 15.6854 14.1393 15.3956 13.7634C15.06 13.7452 14.7254 13.7655 14.3919 13.8242C14.3716 13.8141 14.3513 13.8039 14.331 13.7938C15.0222 13.2558 15.8029 12.9161 16.6732 12.7748C18.0572 14.7266 19.4412 16.6784 20.8252 18.6302C20.8551 18.6685 20.8652 18.7091 20.8556 18.7519C17.44 16.1891 13.6834 15.5249 9.58585 16.7595C8.26027 17.2295 7.04355 17.8885 5.93571 18.7367C5.91042 18.7576 5.89014 18.7526 5.87488 18.7215C7.63352 15.8241 10.0974 13.7709 13.2664 12.5619C14.158 12.2529 15.0705 12.0653 16.004 11.9992Z"
                      fill="#FDD835"/>
            </g>
        </mask>
        <g mask="url(#mask0_1_693)">
            <path d="M9.87043 12.5503L15.1812 7.2395V8.65406L7.95954 15.8757V13.2948L9.87043 12.5503Z" fill="white"
                  fill-opacity="0.5"/>
            <path d="M15.1812 9.64673L5.42822 19.3997H6.27199L15.3798 10.292L15.1812 9.64673Z" fill="white"
                  fill-opacity="0.5"/>
            <path d="M17.0673 11.3591L11.8061 16.6203H12.2777L17.0673 11.8306V11.3591Z" fill="white"
                  fill-opacity="0.5"/>
            <path d="M18.5067 11.2598L12.8236 16.9429H14.5608L19.276 12.2277L18.5067 11.2598Z" fill="white"
                  fill-opacity="0.5"/>
            <path d="M19.7475 15.305L16.8439 18.2085H18.3081L20.3928 16.1239L19.7475 15.305Z" fill="white"
                  fill-opacity="0.5"/>
        </g>
    </g>
    <defs>
        <clipPath id="clip0_1_693">
            <rect width="26" height="26" fill="white" transform="translate(0.441528 0.5)"/>
        </clipPath>
    </defs>
</svg>
