<svg width="28" height="27" viewBox="0 0 28 27" fill="none" xmlns="http://www.w3.org/2000/svg">
<g clip-path="url(#clip0_1_124)">
<path d="M13.9152 27C21.371 27 27.4152 20.9558 27.4152 13.5C27.4152 6.04416 21.371 0 13.9152 0C6.45932 0 0.415161 6.04416 0.415161 13.5C0.415161 20.9558 6.45932 27 13.9152 27Z" fill="#FDD835"/>
<path opacity="0.5" d="M13.9152 0C6.45957 0 0.415161 6.04441 0.415161 13.5C0.415161 20.9556 6.45957 27 13.9152 27C21.3707 27 27.4152 20.9556 27.4152 13.5C27.4152 6.04441 21.3707 0 13.9152 0ZM13.9152 26.4199C6.77967 26.4199 0.995239 20.6355 0.995239 13.5C0.995239 6.36451 6.77967 0.580078 13.9152 0.580078C21.0506 0.580078 26.8351 6.36451 26.8351 13.5C26.8351 20.6355 21.0506 26.4199 13.9152 26.4199Z" fill="white"/>
<path opacity="0.5" d="M19.3015 1.11771L1.53263 18.8866C0.925348 17.4917 0.55961 16.0038 0.45105 14.4864L14.9013 0.0361328C16.4554 0.14793 17.9378 0.523926 19.3015 1.11771ZM25.6797 6.8742L7.28912 25.2648C6.14911 24.621 5.10839 23.8155 4.19941 22.8733L23.2882 3.78449C24.2269 4.69047 25.0348 5.73039 25.6797 6.8742ZM22.7366 3.28141L3.6958 22.3217C3.39748 21.9768 3.11709 21.6169 2.85574 21.2433L21.6582 2.44082C22.0315 2.70238 22.3917 2.98293 22.7366 3.28141ZM26.9917 10.1316L10.5465 26.5768C10.0498 26.4492 9.5646 26.2942 9.09105 26.1133L26.5277 8.67666C26.7086 9.14969 26.8641 9.63537 26.9912 10.1321L26.9917 10.1316Z" fill="white"/>
<path opacity="0.5" d="M24.8824 14.0845C24.8824 19.9259 20.1463 24.6619 14.305 24.6619C11.0233 24.6619 8.08968 23.1675 6.15063 20.8213C8.08229 22.9096 10.8466 24.2169 13.9152 24.2169C19.7566 24.2169 24.4927 19.4808 24.4927 13.6394C24.4927 11.0802 23.5836 8.73247 22.0701 6.90259C23.8161 8.78942 24.8824 11.3122 24.8824 14.0845Z" fill="white"/>
<path d="M13.9151 24.2169C19.7569 24.2169 24.4926 19.4812 24.4926 13.6395C24.4926 7.7977 19.7569 3.06201 13.9151 3.06201C8.07334 3.06201 3.33765 7.7977 3.33765 13.6395C3.33765 19.4812 8.07334 24.2169 13.9151 24.2169Z" fill="#F39E09"/>
<path d="M21.9307 6.7376C20.0782 5.1408 17.6661 4.17576 15.0289 4.17576C9.18747 4.17576 4.4514 8.91184 4.4514 14.7532C4.4514 17.3905 5.41696 19.8025 7.01323 21.6551C4.76253 19.715 3.33765 16.8436 3.33765 13.6395C3.33765 7.79809 8.07372 3.06201 13.9151 3.06201C17.1187 3.06201 19.9906 4.48637 21.9307 6.7376Z" fill="#E88102"/>
<path opacity="0.25" d="M22.7365 7.80135C15.8869 10.206 10.3898 15.4874 7.69563 22.1952C7.45991 22.0238 7.23157 21.8424 7.01167 21.652C5.41593 19.8 4.45142 17.3885 4.45142 14.7523C4.45142 8.91088 9.18749 4.1748 15.0289 4.1748C17.6651 4.1748 20.0766 5.13932 21.9286 6.73506C22.2197 7.07256 22.4897 7.42852 22.7371 7.80135H22.7365Z" fill="white"/>
<g opacity="0.964">
<path fill-rule="evenodd" clip-rule="evenodd" d="M13.8639 8.44849C13.9592 8.50228 14.0411 8.57445 14.1096 8.66502C15.0418 9.86474 15.9866 11.0557 16.944 12.2379C16.5611 12.2736 16.1788 12.3148 15.7971 12.3616C15.5015 12.4216 15.2065 12.4732 14.9124 12.5163C14.5824 11.988 14.2383 11.4673 13.8802 10.9541C13.4339 11.5237 12.9915 12.0959 12.5532 12.671C13.0003 12.7085 13.4481 12.7446 13.8966 12.7793C11.9556 13.3214 10.2571 14.2494 8.80126 15.5633C8.79094 15.5198 8.80185 15.4785 8.83403 15.4396C10.5179 13.1129 12.1945 10.7825 13.8639 8.44849Z" fill="#DB6704"/>
<path fill-rule="evenodd" clip-rule="evenodd" d="M16.9686 12.2996C17.5593 12.2901 17.8885 11.9936 18.4775 12.0341C18.9459 12.0665 19.4047 12.1387 19.8537 12.2506C16.9971 12.2699 14.7674 13.4789 12.6433 15.2538C14.1724 14.9033 15.7016 14.9033 17.2308 15.2538C16.9312 14.8628 16.6254 14.4761 16.3133 14.0938C15.9516 14.0753 15.5912 14.0959 15.2319 14.1557C15.2101 14.1454 15.1883 14.135 15.1664 14.1247C15.911 13.5776 16.5009 13.268 17.4384 13.1243C18.9294 15.1093 20.245 17.075 21.7359 19.06C21.7681 19.0989 21.779 19.1401 21.7687 19.1837C18.0892 16.5773 14.4688 15.8853 10.0547 17.1408C8.62668 17.6187 7.31597 18.289 6.12254 19.1515C6.09529 19.1728 6.07344 19.1676 6.05701 19.1361C7.95151 16.1895 10.6057 14.1015 14.0195 12.8719C14.98 12.5577 15.963 12.3669 16.9686 12.2996Z" fill="#DB6704"/>
</g>
<g opacity="0.964">
<path fill-rule="evenodd" clip-rule="evenodd" d="M13.7965 7.77197C13.8884 7.8269 13.9674 7.9006 14.0334 7.99309C14.932 9.21815 15.8428 10.4343 16.7657 11.6415C16.3966 11.6779 16.0281 11.72 15.6602 11.7678C15.3751 11.8291 15.0908 11.8817 14.8073 11.9258C14.4891 11.3863 14.1574 10.8546 13.8123 10.3306C13.382 10.9121 12.9556 11.4965 12.533 12.0837C12.964 12.122 13.3957 12.1589 13.8281 12.1943C11.9569 12.7478 10.3196 13.6955 8.91618 15.0371C8.90623 14.9927 8.91675 14.9506 8.94777 14.9108C10.571 12.535 12.1872 10.1553 13.7965 7.77197Z" fill="#FDD835"/>
<path fill-rule="evenodd" clip-rule="evenodd" d="M16.5762 11.9416C17.1456 11.9318 17.7142 11.9476 18.2819 11.9889C18.7335 12.0221 19.1757 12.0958 19.6086 12.21C16.8549 12.2297 14.4542 13.1458 12.4066 14.9582C13.8807 14.6002 15.3548 14.6002 16.8289 14.9582C16.5402 14.5589 16.2454 14.164 15.9445 13.7736C15.5958 13.7548 15.2484 13.7758 14.9021 13.8368C14.881 13.8263 14.8599 13.8157 14.8389 13.8052C15.5566 13.2465 16.3673 12.8938 17.2711 12.747C18.7084 14.7739 20.1456 16.8008 21.5829 18.8277C21.6139 18.8674 21.6244 18.9096 21.6144 18.954C18.0674 16.2926 14.1663 15.6029 9.9112 16.885C8.53464 17.3731 7.27112 18.0574 6.12067 18.9382C6.0944 18.96 6.07334 18.9547 6.0575 18.9224C7.88378 15.9136 10.4424 13.7815 13.7333 12.5259C14.6591 12.2051 15.6068 12.0103 16.5762 11.9416Z" fill="#FDD835"/>
</g>
<mask id="mask0_1_124" style="mask-type:alpha" maskUnits="userSpaceOnUse" x="6" y="7" width="16" height="12">
<g opacity="0.964">
<path fill-rule="evenodd" clip-rule="evenodd" d="M13.7966 7.77197C13.8885 7.8269 13.9675 7.9006 14.0335 7.99309C14.9322 9.21815 15.8429 10.4343 16.7659 11.6415C16.3967 11.6779 16.0282 11.72 15.6603 11.7678C15.3752 11.8291 15.0909 11.8817 14.8074 11.9258C14.4892 11.3863 14.1576 10.8546 13.8124 10.3306C13.3821 10.9121 12.9557 11.4965 12.5331 12.0837C12.9641 12.122 13.3958 12.1589 13.8282 12.1943C11.957 12.7478 10.3197 13.6955 8.91631 15.0371C8.90636 14.9927 8.91687 14.9506 8.94789 14.9108C10.5711 12.535 12.1874 10.1553 13.7966 7.77197Z" fill="#FDD835"/>
<path fill-rule="evenodd" clip-rule="evenodd" d="M16.5763 11.9416C17.1457 11.9318 17.7143 11.9476 18.2821 11.9889C18.7336 12.0221 19.1758 12.0958 19.6087 12.21C16.855 12.2297 14.4543 13.1458 12.4067 14.9582C13.8808 14.6002 15.3549 14.6002 16.829 14.9582C16.5403 14.5589 16.2455 14.164 15.9446 13.7736C15.596 13.7548 15.2485 13.7758 14.9022 13.8368C14.8811 13.8263 14.8601 13.8157 14.839 13.8052C15.5567 13.2465 16.3675 12.8938 17.2713 12.747C18.7085 14.7739 20.1457 16.8008 21.583 18.8277C21.614 18.8674 21.6245 18.9096 21.6146 18.954C18.0676 16.2926 14.1665 15.6029 9.91132 16.885C8.53476 17.3731 7.27124 18.0574 6.12079 18.9382C6.09452 18.96 6.07346 18.9547 6.05762 18.9224C7.8839 15.9136 10.4425 13.7815 13.7334 12.5259C14.6593 12.2051 15.6069 12.0103 16.5763 11.9416Z" fill="#FDD835"/>
</g>
</mask>
<g mask="url(#mask0_1_124)">
<path d="M10.2066 12.5138L15.7216 6.99878V8.46774L8.22218 15.9672V13.287L10.2066 12.5138Z" fill="white" fill-opacity="0.5"/>
<path d="M15.7216 9.49859L5.59351 19.6267H6.46973L15.9278 10.1686L15.7216 9.49859Z" fill="white" fill-opacity="0.5"/>
<path d="M17.6802 11.2768L12.2167 16.7403H12.7064L17.6802 11.7665V11.2768Z" fill="white" fill-opacity="0.5"/>
<path d="M19.175 11.1737L13.2734 17.0754H15.0773L19.9739 12.1788L19.175 11.1737Z" fill="white" fill-opacity="0.5"/>
<path d="M20.4635 15.3744L17.4483 18.3897H18.9688L21.1336 16.2249L20.4635 15.3744Z" fill="white" fill-opacity="0.5"/>
</g>
</g>
<defs>
<clipPath id="clip0_1_124">
<rect width="27" height="27" fill="white" transform="translate(0.415161)"/>
</clipPath>
</defs>
</svg>
