<svg width="33" height="14" viewBox="0 0 33 14" fill="none" xmlns="http://www.w3.org/2000/svg">
<path d="M32.9735 1.33931C30.7238 0.863974 28.4999 -0.019748 26.205 0.000336565C24.89 0.00703143 23.5685 0.248047 22.2664 0.468977C20.8031 0.716687 19.3914 1.28575 17.9281 1.49329C17.4575 1.56024 16.9805 1.58702 16.5035 1.58702C16.0265 1.58702 15.5495 1.56024 15.0789 1.49329C13.6156 1.27906 12.2039 0.716687 10.7406 0.468977C9.43203 0.241352 8.11056 0.00703143 6.79553 0.000336565C4.50069 -0.0130532 2.27675 0.863974 0.027025 1.33931C0.027025 2.14269 -0.108345 3.1804 0.226857 3.74946C0.574952 4.33861 1.16156 4.8675 1.30982 5.66419C1.67081 7.54545 2.18005 9.38653 2.83757 11.154C3.15343 12.0109 3.75293 12.6135 4.42333 13.0218C6.03488 14.0127 7.94296 14.16 9.71566 13.852C12.2361 13.4101 13.6027 11.0937 14.647 8.44256C15.0402 7.36469 15.0789 6.12614 15.5946 5.14199C15.788 4.77377 16.1361 4.7336 16.4971 4.75369C16.858 4.7336 17.2126 4.77377 17.3995 5.14199C17.9152 6.12614 17.9539 7.37138 18.3471 8.44256C19.3914 11.0937 20.758 13.4035 23.2785 13.852C25.0447 14.1667 26.9592 14.0194 28.5708 13.0218C29.2412 12.6135 29.8407 12.0109 30.1566 11.154C30.8076 9.38653 31.3233 7.54545 31.6843 5.66419C31.8326 4.8675 32.4256 4.33861 32.7673 3.74946C33.1089 3.1804 32.9735 2.14939 32.9735 1.33931ZM13.1644 8.88442C11.9138 12.0645 9.66409 12.7273 8.00097 12.7273C7.35635 12.7273 6.6795 12.6268 5.98976 12.426C4.75853 12.0712 3.84317 11 3.41128 9.4267C2.83112 7.32452 2.59261 5.63072 2.65707 4.11098C2.74732 2.14269 4.45556 1.741 6.35075 1.4799C7.23387 1.35939 7.94296 1.29914 8.58113 1.29245H8.58757C9.44492 1.29245 10.1218 1.37278 10.7535 1.53346C12.5907 2.0088 13.6349 2.66489 14.0346 3.60217C14.4794 4.65327 14.228 6.18639 13.1644 8.88442ZM29.5893 9.4267C29.1574 11 28.2356 12.0645 27.0108 12.426C26.3211 12.6268 25.6442 12.7273 24.9931 12.7273C23.33 12.7273 21.0803 12.0578 19.8297 8.88442C18.7661 6.18639 18.5147 4.65996 18.966 3.60887C19.3656 2.67159 20.4099 2.01549 22.2471 1.54016C22.8724 1.37948 23.5556 1.29914 24.413 1.29914H24.4194C25.0576 1.30583 25.7667 1.36609 26.6498 1.4866C28.545 1.7477 30.2532 2.14269 30.3435 4.11768C30.408 5.63072 30.1694 7.31782 29.5893 9.4267Z" fill="white"/>
</svg>
