<svg width="32" height="32" viewBox="0 0 32 32" fill="none" xmlns="http://www.w3.org/2000/svg">
<path d="M29.7143 8.22857H27.1543C27.8857 7.35086 28.3429 6.25371 28.3429 5.02857C28.3429 2.24914 26.0937 0 23.3143 0C20.2423 0 17.536 1.62743 16 4.04114C14.464 1.62743 11.7577 0 8.68571 0C5.90629 0 3.65714 2.24914 3.65714 5.02857C3.65714 6.25371 4.11429 7.35086 4.84571 8.22857H2.28571C1.024 8.22857 0 9.25257 0 10.5143V15.0857C0 16.1829 0.786286 17.0606 1.82857 17.28V29.7143C1.82857 30.976 2.85257 32 4.11429 32H27.8857C29.1474 32 30.1714 30.976 30.1714 29.7143V17.28C31.2137 17.0606 32 16.1829 32 15.0857V10.5143C32 9.25257 30.976 8.22857 29.7143 8.22857ZM29.2571 14.6286H17.3714V10.9714H29.2571V14.6286ZM23.3143 2.74286C24.576 2.74286 25.6 3.76686 25.6 5.02857C25.6 6.29029 24.576 7.31429 23.3143 7.31429H17.536C18.1577 4.69943 20.5166 2.74286 23.3143 2.74286ZM8.68571 2.74286C11.4834 2.74286 13.8423 4.69943 14.464 7.31429H8.68571C7.424 7.31429 6.4 6.29029 6.4 5.02857C6.4 3.76686 7.424 2.74286 8.68571 2.74286ZM2.74286 10.9714H14.6286V14.6286H2.74286V10.9714ZM4.57143 17.3714H14.6286V29.2571H4.57143V17.3714ZM27.4286 29.2571H17.3714V17.3714H27.4286V29.2571Z" fill="white"/>
</svg>
