<svg width="36" height="35" viewBox="0 0 36 35" fill="none" xmlns="http://www.w3.org/2000/svg">
<path d="M15.5942 33.5559H9.31769C6.83643 33.5559 4.86286 32.3485 3.09084 30.6604C-0.536678 27.2044 5.41918 24.4426 7.69074 23.09C11.7858 20.6516 16.7273 20.0879 21.2138 21.3985" stroke="black" stroke-width="2.4084" stroke-linecap="round" stroke-linejoin="round"/>
<path d="M25.2252 8.66928C25.2252 12.6596 21.9904 15.8945 18 15.8945C14.0097 15.8945 10.7748 12.6596 10.7748 8.66928C10.7748 4.67892 14.0097 1.44409 18 1.44409C21.9904 1.44409 25.2252 4.67892 25.2252 8.66928Z" stroke="black" stroke-width="2.4084"/>
<path d="M28.3342 20.4681C28.8726 19.8846 29.1418 19.593 29.4278 19.4228C30.118 19.0123 30.9681 18.9996 31.6699 19.3891C31.9606 19.5507 32.2381 19.8342 32.7931 20.401C33.348 20.9679 33.6255 21.2515 33.7836 21.5485C34.165 22.2654 34.1524 23.1337 33.7506 23.8387C33.5841 24.1309 33.2986 24.406 32.7275 24.9561L25.9332 31.5C24.851 32.5424 24.31 33.0635 23.6337 33.3277C22.9576 33.5918 22.214 33.5723 20.7272 33.5335L20.5249 33.5282C20.0723 33.5163 19.8461 33.5104 19.7144 33.361C19.5829 33.2117 19.6009 32.9812 19.6367 32.5202L19.6563 32.2697C19.7574 30.9721 19.8079 30.3233 20.0614 29.7399C20.3147 29.1566 20.7518 28.6831 21.626 27.7358L28.3342 20.4681Z" stroke="black" stroke-width="2.4084" stroke-linejoin="round"/>
</svg>
