<svg width="33" height="33" viewBox="0 0 33 33" fill="none" xmlns="http://www.w3.org/2000/svg">
<path fill-rule="evenodd" clip-rule="evenodd" d="M16.5 0C7.3873 0 0 7.3873 0 16.5C0 25.6128 7.3873 33 16.5 33C25.6128 33 33 25.6128 33 16.5C33 7.3873 25.6128 0 16.5 0ZM2.30233 16.5C2.30233 12.9938 3.57327 9.7845 5.67959 7.30758L10.595 12.223C9.7233 13.4244 9.2093 14.9022 9.2093 16.5C9.2093 18.0978 9.7233 19.5756 10.595 20.777L5.67958 25.6924C3.57327 23.2156 2.30233 20.0061 2.30233 16.5ZM12.223 10.595L7.30758 5.67959C9.7845 3.57327 12.9938 2.30233 16.5 2.30233C20.0061 2.30233 23.2156 3.57327 25.6924 5.67959L20.777 10.595C19.5756 9.7233 18.0978 9.2093 16.5 9.2093C14.9022 9.2093 13.4244 9.7233 12.223 10.595ZM7.30757 27.3205C9.78448 29.4268 12.9938 30.6977 16.5 30.6977C20.0061 30.6977 23.2156 29.4268 25.6924 27.3205L20.777 22.405C19.5756 23.2767 18.0978 23.7907 16.5 23.7907C14.9022 23.7907 13.4244 23.2767 12.223 22.405L7.30757 27.3205ZM22.405 20.777L27.3205 25.6924C29.4268 23.2156 30.6977 20.0061 30.6977 16.5C30.6977 12.9938 29.4268 9.7845 27.3205 7.30758L22.405 12.223C23.2767 13.4244 23.7907 14.9022 23.7907 16.5C23.7907 18.0978 23.2767 19.5756 22.405 20.777ZM11.5116 16.5C11.5116 13.745 13.745 11.5116 16.5 11.5116C19.255 11.5116 21.4884 13.745 21.4884 16.5C21.4884 19.255 19.255 21.4884 16.5 21.4884C13.745 21.4884 11.5116 19.255 11.5116 16.5Z" fill="white"/>
</svg>
