<svg width="36" height="28" viewBox="0 0 36 28" fill="none" xmlns="http://www.w3.org/2000/svg">
<path d="M21.0082 1H14.4585C8.28352 1 5.196 1 3.27767 2.88839C1.95684 4.18859 1.54544 6.03441 1.4173 9.04224C1.39189 9.63873 1.37918 9.93699 1.49204 10.136C1.60492 10.3349 2.05553 10.5833 2.95672 11.08C3.95759 11.6316 4.63413 12.6854 4.63413 13.8947C4.63413 15.1041 3.95759 16.1579 2.95672 16.7095C2.05553 17.2063 1.60492 17.4545 1.49204 17.6536C1.37918 17.8525 1.39189 18.1508 1.4173 18.7472C1.54544 21.755 1.95684 23.6009 3.27767 24.901C5.196 26.7895 8.28352 26.7895 14.4585 26.7895H21.0082C27.1832 26.7895 30.2706 26.7895 32.189 24.901C33.5099 23.6009 33.9213 21.755 34.0494 18.7472C34.0748 18.1508 34.0876 17.8525 33.9747 17.6536C33.8618 17.4545 33.4112 17.2063 32.5099 16.7095C31.509 16.1579 30.8325 15.1041 30.8325 13.8947C30.8325 12.6854 31.509 11.6316 32.5099 11.08C33.4112 10.5833 33.8618 10.3349 33.9747 10.136C34.0876 9.93699 34.0748 9.63873 34.0494 9.04224C33.9213 6.03441 33.5099 4.18859 32.189 2.88839C30.2706 1 27.1832 1 21.0082 1Z" stroke="white" stroke-width="2"/>
<path d="M12.5754 18.1931L22.0316 8.73694" stroke="white" stroke-width="2" stroke-linecap="round"/>
<path d="M23.751 18.1931C23.751 19.1426 22.9812 19.9124 22.0317 19.9124C21.0821 19.9124 20.3124 19.1426 20.3124 18.1931C20.3124 17.2435 21.0821 16.4738 22.0317 16.4738C22.9812 16.4738 23.751 17.2435 23.751 18.1931Z" fill="white"/>
<path d="M15.1545 9.59662C15.1545 10.5462 14.3848 11.3159 13.4352 11.3159C12.4857 11.3159 11.7159 10.5462 11.7159 9.59662C11.7159 8.64708 12.4857 7.87732 13.4352 7.87732C14.3848 7.87732 15.1545 8.64708 15.1545 9.59662Z" fill="white"/>
</svg>
