<svg width="23" height="30" viewBox="0 0 23 30" fill="none" xmlns="http://www.w3.org/2000/svg">
<path d="M3.75422 30V0H11.8668C15.6354 0 18.4259 0.742297 20.2383 2.22689C22.0794 3.71148 23 5.86835 23 8.69748C23 10.6022 22.5541 12.2409 21.6623 13.6134C20.7705 14.958 19.4472 15.9944 17.6923 16.7227C15.9662 17.451 13.823 17.8151 11.2627 17.8151H7.6379V30H3.75422ZM0 24.2857V21.5546H14.758V24.2857H0ZM0 17.8151V14.6218H9.8818V17.8151H0ZM10.7017 14.6218C12.4565 14.6218 13.9381 14.4398 15.1463 14.0756C16.3834 13.7115 17.3327 13.1092 17.9944 12.2689C18.656 11.4286 18.9869 10.2801 18.9869 8.82353C18.9869 6.91877 18.3827 5.5042 17.1745 4.57983C15.9662 3.65546 14.0819 3.19328 11.5216 3.19328H7.6379V14.6218H10.7017Z" fill="white"/>
</svg>
