<svg width="34" height="34" viewBox="0 0 34 34" fill="none" xmlns="http://www.w3.org/2000/svg">
<path d="M16.3734 8.40228L15.6663 7.69516L15.6662 7.69519L16.3734 8.40228ZM32.9768 1.0232L33.9739 0.946514C33.9361 0.454747 33.5453 0.0639991 33.0536 0.0261502L32.9768 1.0232ZM25.5976 17.6266L26.3047 18.3337L26.3047 18.3337L25.5976 17.6266ZM12.0688 27.4657L11.3617 28.1728C11.6445 28.4557 12.0688 28.5427 12.4402 28.3942L12.0688 27.4657ZM6.53428 21.9312L5.6058 21.5598C5.45723 21.9312 5.5443 22.3554 5.82717 22.6383L6.53428 21.9312ZM15.8505 19.5636C16.2411 19.1731 16.2411 18.5399 15.8505 18.1494C15.46 17.7589 14.8269 17.7589 14.4363 18.1494L15.8505 19.5636ZM5.82717 26.7586C5.43664 27.1491 5.43665 27.7823 5.82717 28.1728C6.2177 28.5633 6.85086 28.5633 7.24138 28.1728L5.82717 26.7586ZM22.2889 21.8406C22.2389 21.2906 21.7525 20.8853 21.2024 20.9353C20.6524 20.9853 20.2471 21.4717 20.2971 22.0217L22.2889 21.8406ZM21.6341 25.6829L22.63 25.5924L22.63 25.5923L21.6341 25.6829ZM19.4298 30.4301L20.0032 31.2494L20.0033 31.2493L19.4298 30.4301ZM15.7585 33L14.7594 33.0434C14.7753 33.4082 14.9887 33.7353 15.3161 33.8968C15.6435 34.0583 16.0329 34.0286 16.332 33.8192L15.7585 33ZM16.4501 25.8847C16.4262 25.3329 15.9594 24.9051 15.4076 24.9291C14.8559 24.9531 14.428 25.4198 14.452 25.9716L16.4501 25.8847ZM11.9782 13.7028C12.5282 13.7528 13.0146 13.3475 13.0647 12.7974C13.1147 12.2474 12.7093 11.761 12.1593 11.711L11.9782 13.7028ZM8.31707 12.3658L8.40762 11.3699L8.40761 11.3699L8.31707 12.3658ZM3.56983 14.5701L4.38907 15.1436L4.38909 15.1436L3.56983 14.5701ZM1 18.2414L0.180762 17.668C-0.0285935 17.967 -0.0583233 18.3564 0.103202 18.6838C0.264728 19.0112 0.591835 19.2246 0.956569 19.2405L1 18.2414ZM8.0284 19.5479C8.58016 19.5719 9.0469 19.144 9.07088 18.5923C9.09487 18.0405 8.66702 17.5738 8.11526 17.5498L8.0284 19.5479ZM17.0804 9.1094C19.4299 6.76008 22.4641 4.9044 25.4065 3.67531C28.3709 2.43702 31.1236 1.88352 32.9001 2.02025L33.0536 0.0261502C30.8329 -0.144763 27.7437 0.53155 24.6356 1.82984C21.5055 3.13734 18.2365 5.12502 15.6663 7.69516L17.0804 9.1094ZM31.9798 1.09989C32.1164 2.87632 31.5629 5.62903 30.3245 8.5935C29.0954 11.5359 27.2398 14.5702 24.8905 16.9195L26.3047 18.3337C28.8748 15.7635 30.8625 12.4945 32.17 9.36439C33.4683 6.25628 34.1447 3.16704 33.9739 0.946514L31.9798 1.09989ZM24.8905 16.9194C20.0309 21.7789 14.6066 25.3735 11.6974 26.5372L12.4402 28.3942C15.6802 27.0981 21.325 23.3132 26.3047 18.3337L24.8905 16.9194ZM12.7759 26.7586L7.24138 21.2241L5.82717 22.6383L11.3617 28.1728L12.7759 26.7586ZM7.46275 22.3026C8.6265 19.3933 12.2211 13.969 17.0805 9.10937L15.6662 7.69519C10.6867 12.6749 6.90187 18.3197 5.6058 21.5598L7.46275 22.3026ZM14.4363 18.1494L5.82717 26.7586L7.24138 28.1728L15.8505 19.5636L14.4363 18.1494ZM25.198 11.0773C24.5696 11.7057 23.5509 11.7057 22.9225 11.0773L21.5083 12.4916C22.9177 13.901 25.2028 13.901 26.6122 12.4916L25.198 11.0773ZM22.9225 11.0773C22.2942 10.449 22.2942 9.43024 22.9225 8.8019L21.5083 7.38769C20.0989 8.79708 20.0989 11.0822 21.5083 12.4916L22.9225 11.0773ZM22.9225 8.8019C23.5509 8.17355 24.5696 8.17355 25.198 8.8019L26.6122 7.38769C25.2028 5.97829 22.9177 5.97829 21.5083 7.38769L22.9225 8.8019ZM25.198 8.8019C25.8263 9.43025 25.8263 10.449 25.198 11.0773L26.6122 12.4916C28.0216 11.0822 28.0216 8.79708 26.6122 7.38769L25.198 8.8019ZM20.2971 22.0217L20.6382 25.7734L22.63 25.5923L22.2889 21.8406L20.2971 22.0217ZM20.6382 25.7734C20.7751 27.2795 20.0952 28.7436 18.8562 29.611L20.0033 31.2493C21.8294 29.9708 22.8318 27.8127 22.63 25.5924L20.6382 25.7734ZM18.8563 29.6109L15.185 32.1808L16.332 33.8192L20.0032 31.2494L18.8563 29.6109ZM16.7576 32.9566L16.4501 25.8847L14.452 25.9716L14.7594 33.0434L16.7576 32.9566ZM12.1593 11.711L8.40762 11.3699L8.22652 13.3617L11.9782 13.7028L12.1593 11.711ZM8.40761 11.3699C7.31687 11.2707 6.21928 11.4614 5.22591 11.9227L6.06823 13.7366C6.74208 13.4237 7.48663 13.2944 8.22653 13.3617L8.40761 11.3699ZM5.22591 11.9227C4.23254 12.3839 3.37863 13.0994 2.75058 13.9967L4.38909 15.1436C4.81513 14.5349 5.39438 14.0496 6.06823 13.7366L5.22591 11.9227ZM2.7506 13.9967L0.180762 17.668L1.81924 18.8149L4.38907 15.1436L2.7506 13.9967ZM0.956569 19.2405L8.0284 19.5479L8.11526 17.5498L1.04343 17.2424L0.956569 19.2405Z" fill="white"/>
</svg>
