<svg width="31" height="26" viewBox="0 0 31 26" fill="none" xmlns="http://www.w3.org/2000/svg">
<path d="M30.6769 22.0901C30.4673 21.7044 30.1577 21.3673 29.7685 21.122L15.8471 12.3412V11.1C15.8469 11.0573 15.8673 11.0187 15.8977 10.9914C16.0222 10.9805 16.187 10.9605 16.3809 10.9224C16.778 10.8433 17.2999 10.6979 17.8239 10.3581C18.5926 9.85565 19.2296 9.17148 19.6765 8.36274C20.123 7.55406 20.378 6.61904 20.3777 5.63271C20.3782 4.08077 19.7485 2.66552 18.7365 1.64919C17.7258 0.63201 16.3179 0 14.7743 0C13.6174 0 12.5333 0.354802 11.6401 0.962287C10.7465 1.56965 10.0378 2.42744 9.61133 3.43969C9.38059 3.98809 9.63622 4.62095 10.1817 4.85306C10.7275 5.08481 11.3574 4.82854 11.5879 4.2802C11.8496 3.65775 12.2897 3.12488 12.842 2.74999C13.3948 2.37523 14.0545 2.15711 14.7743 2.15711C15.7318 2.15711 16.5897 2.54417 17.2189 3.17527C17.8463 3.80722 18.2311 4.66951 18.2314 5.63271C18.2311 6.24695 18.0752 6.81622 17.7999 7.3155C17.5246 7.81392 17.1291 8.2392 16.6546 8.54903C16.4697 8.67306 16.1944 8.76392 15.972 8.80567C15.8613 8.82703 15.7652 8.83841 15.7026 8.8434C15.671 8.84656 15.6481 8.84796 15.6362 8.84839H15.6298L15.4843 8.85021L15.3414 8.89294C14.3687 9.18238 13.7012 10.0801 13.7009 11.1001V12.3744L1.12484 21.1928L1.12508 21.192C0.406634 21.6958 -0.0006652 22.5122 8.15521e-07 23.3591C8.15521e-07 23.6234 0.0398406 23.8911 0.121155 24.1505C0.465304 25.2518 1.48007 26 2.62774 26H28.3721C29.5437 26 30.5731 25.2208 30.8974 24.0891V24.0886C30.9659 23.8474 31 23.6016 31 23.359C31 22.9115 30.8868 22.4763 30.6769 22.0901ZM28.835 23.4935V23.493C28.7758 23.6997 28.5866 23.8433 28.3721 23.8433H2.62774C2.41734 23.8433 2.23127 23.7052 2.16849 23.5044C2.15287 23.4553 2.14615 23.4067 2.14615 23.359C2.14657 23.2036 2.22025 23.0537 2.352 22.9619H2.35249L14.8055 14.2308L28.6279 22.9488C28.7009 22.9951 28.7552 23.0551 28.7943 23.126C28.8331 23.1968 28.8542 23.2773 28.8542 23.3591C28.8542 23.4031 28.8478 23.4472 28.835 23.4935Z" fill="white"/>
</svg>
