<svg width="32" height="32" viewBox="0 0 32 32" fill="none" xmlns="http://www.w3.org/2000/svg">
<path fill-rule="evenodd" clip-rule="evenodd" d="M28.554 28C30.4567 28 31.9995 26.448 31.9995 24.534L32 3.466C32 1.552 30.4572 0 28.5545 0H26.0012C24.0985 0 22.5557 1.552 22.5552 3.466V24.534C22.5552 26.448 24.098 28 26.0007 28H28.554ZM28.5545 2C29.3592 2 30.0113 2.6565 30.0113 3.466L30.0118 24.5345C30.0118 25.344 29.3592 26.0005 28.5545 26.0005H26.0012C25.1965 26.0005 24.5439 25.344 24.5439 24.5345V3.466C24.5439 2.6565 25.1965 2 26.0012 2H28.5545Z" fill="white"/>
<path fill-rule="evenodd" clip-rule="evenodd" d="M21.0646 24.534C21.0646 26.448 19.5218 28 17.6191 28H15.0658C13.1631 28 11.6203 26.448 11.6203 24.534V8.966C11.6203 7.052 13.1631 5.5 15.0658 5.5H17.6191C19.5218 5.5 21.0646 7.052 21.0646 8.966V24.534ZM19.0764 8.966C19.0764 8.1565 18.4238 7.5 17.6191 7.5H15.0658C14.2611 7.5 13.6085 8.1565 13.6085 8.966V24.5345C13.6085 25.344 14.2611 26.0005 15.0658 26.0005H17.6191C18.4238 26.0005 19.0764 25.344 19.0764 24.5345V8.966Z" fill="white"/>
<path fill-rule="evenodd" clip-rule="evenodd" d="M6.18713 28C8.0898 28 9.63262 26.448 9.63262 24.534L9.63311 14.466C9.63311 12.552 8.0903 11 6.18762 11H3.63432C1.73165 11 0.188829 12.552 0.188332 14.466V24.534C0.188332 26.448 1.73115 28 3.63382 28H6.18713ZM6.18713 13C6.99184 13 7.64445 13.6565 7.64445 14.466L7.64495 24.534C7.64495 25.3435 6.99233 26 6.18762 26H3.63432C2.82961 26 2.177 25.344 2.1765 24.5345V14.466C2.1765 13.6565 2.82911 13 3.63382 13H6.18713Z" fill="white"/>
<path d="M0.994083 32H30.8166C31.3653 32 31.8107 31.552 31.8107 31C31.8107 30.448 31.3653 30 30.8166 30H0.994083C0.445349 30 0 30.448 0 31C0 31.552 0.445349 32 0.994083 32Z" fill="white"/>
</svg>
