<svg width="32" height="32" viewBox="0 0 32 32" fill="none" xmlns="http://www.w3.org/2000/svg">
<g clip-path="url(#clip0_1_1267)">
<mask id="mask0_1_1267" style="mask-type:luminance" maskUnits="userSpaceOnUse" x="0" y="0" width="32" height="32">
<path d="M0.15625 0H31.8394V32H0.15625V0Z" fill="white"/>
</mask>
<g mask="url(#mask0_1_1267)">
<path d="M0.15625 15.36C0.15625 8.11936 0.15625 4.49888 2.38358 2.2496C4.61027 0 8.1949 0 15.3642 0H16.6315C23.8004 0 27.3851 0 29.6121 2.2496C31.8394 4.49888 31.8394 8.11936 31.8394 15.36V16.64C31.8394 23.8806 31.8394 27.5011 29.6121 29.7504C27.3854 32 23.8008 32 16.6315 32H15.3642C8.19522 32 4.61059 32 2.38358 29.7504C0.15625 27.5014 0.15625 23.881 0.15625 16.64V15.36Z" fill="#0077FF"/>
<path d="M17.017 23.0534C9.79574 23.0534 5.67693 18.0534 5.5052 9.7334H9.12247C9.24128 15.84 11.9077 18.4268 14.0201 18.96V9.7334H17.426V15C19.512 14.7734 21.7032 12.3734 22.4424 9.7334H25.8483C25.2809 12.9868 22.9046 15.3868 21.2147 16.3734C22.9046 17.1734 25.611 19.2668 26.6407 23.0534H22.8913C22.086 20.52 20.0795 18.56 17.426 18.2934V23.0534H17.017Z" fill="white"/>
</g>
</g>
<defs>
<clipPath id="clip0_1_1267">
<rect width="32" height="32" fill="white"/>
</clipPath>
</defs>
</svg>
